<svg xmlns="http://www.w3.org/2000/svg" viewBox="0 0 431.12 139.72"><defs><style>.cls-1{fill:#3c3c3b;}</style></defs><g id="Layer_2" data-name="Layer 2"><g id="Capa_1" data-name="Capa 1"><path class="cls-1" d="M22.89,96.72,0,95V93.61l1.35-.28q5.3-1.22,5.29-6.77V14.09a8.74,8.74,0,0,0-.88-4.34,5.09,5.09,0,0,0-3.59-2L.27,7.18V5.83L24.38,0,26,1.22l-.54,19.1V34a33.48,33.48,0,0,1,9.75-4.67,37.59,37.59,0,0,1,10.7-1.56A26,26,0,0,1,59.6,31.36,24.27,24.27,0,0,1,69,42.47q3.45,7.52,3.45,19.3T68.61,81.35A27.57,27.57,0,0,1,58.32,93.06,26.65,26.65,0,0,1,44.16,97a39.17,39.17,0,0,1-10.09-1.35,33.26,33.26,0,0,1-9-3.8Zm14.5-4.33A11.49,11.49,0,0,0,45,89.68Q48.23,87,50.12,80.4T52,62.31q0-11.51-1.76-17.74c-1.18-4.15-2.83-7-4.95-8.67a12.18,12.18,0,0,0-7.65-2.44A21.18,21.18,0,0,0,25.87,37V89a23.83,23.83,0,0,0,5.29,2.51A20.32,20.32,0,0,0,37.39,92.39Z"/><path class="cls-1" d="M81.9,95V93.61l2-.55a6.31,6.31,0,0,0,3.73-2.43,7.91,7.91,0,0,0,1-4.2V44a7.72,7.72,0,0,0-1-4.41,5.76,5.76,0,0,0-3.73-2l-2-.54V35.76l23.3-7.85,1.35,1.35,1.22,11.65V42a28.77,28.77,0,0,1,5-7,28,28,0,0,1,6.77-5.22,15.38,15.38,0,0,1,7.38-2q5.15,0,7.86,2.84a10,10,0,0,1,2.71,7.18q0,4.62-2.64,7.12a8.83,8.83,0,0,1-6.3,2.5q-5.69,0-10-5.69l-.27-.27a4.53,4.53,0,0,0-3.11-2.1,3.6,3.6,0,0,0-3.25,1.7A10.1,10.1,0,0,0,109.6,44a34.74,34.74,0,0,0-1.69,3.86V85.61c0,3.62,1.58,5.87,4.74,6.78L117,93.61V95Z"/><path class="cls-1" d="M172.35,97a22.94,22.94,0,0,1-9.69-2,14.92,14.92,0,0,1-6.91-6.57q-2.5-4.53-2.37-12l.41-34.81a7.22,7.22,0,0,0-1.08-4.47,5.91,5.91,0,0,0-3.39-1.9l-1.63-.54V33.32l24.25-4.74,1.36,1.36-.68,19.23V81.82c0,2.89.83,5,2.51,6.37a9.65,9.65,0,0,0,6.29,2,19.6,19.6,0,0,0,6.78-1.09,24.23,24.23,0,0,0,6-3.25l.54-44.16a7.69,7.69,0,0,0-.95-4.4,5.65,5.65,0,0,0-3.52-1.83l-1.35-.41V33.73l23.7-5.15,1.36,1.36-.41,19.23V85.88a10.55,10.55,0,0,0,.81,4.61,6.34,6.34,0,0,0,3.52,2.71l1.36.41V95l-23.71,1.35-1.22-8a48.25,48.25,0,0,1-9.68,6.16A27.93,27.93,0,0,1,172.35,97Z"/><path class="cls-1" d="M252.55,97a42.14,42.14,0,0,1-11.92-1.56,54.57,54.57,0,0,1-9.75-3.86L231,75.45h1.35L237,83.58a24.23,24.23,0,0,0,6.57,8.06,15,15,0,0,0,9.14,2.64c4.34,0,7.83-1,10.5-2.91a9.17,9.17,0,0,0,4-7.79,9.86,9.86,0,0,0-2.84-7.31q-2.85-2.85-10.57-5.15l-5.69-1.76a28.06,28.06,0,0,1-13-7.59,17.91,17.91,0,0,1-4.74-12.6,19.54,19.54,0,0,1,7-15.17q7.05-6.22,20.19-6.23a41.82,41.82,0,0,1,9.95,1.15,38.9,38.9,0,0,1,9,3.46L275.72,47h-1.36l-4.74-8.4a20.2,20.2,0,0,0-5.08-6.3Q262,30.48,257,30.48a15.92,15.92,0,0,0-8.67,2.57,8.2,8.2,0,0,0-4.07,7.32,8.78,8.78,0,0,0,3.46,7.31,35.22,35.22,0,0,0,10.22,5l6.1,1.76q9.75,3,13.95,8.19a19.37,19.37,0,0,1,4.2,12.53A19,19,0,0,1,274.43,91Q266.65,97,252.55,97Z"/><path class="cls-1" d="M326.34,97a35.12,35.12,0,0,1-16.73-4,29.61,29.61,0,0,1-11.92-11.65q-4.41-7.65-4.4-18.77,0-11,4.81-18.76A32.07,32.07,0,0,1,311,31.9a38.27,38.27,0,0,1,17.68-4.13,30.89,30.89,0,0,1,13.28,2.57,20.35,20.35,0,0,1,8.26,6.71,14.92,14.92,0,0,1,2.85,8.6,7.55,7.55,0,0,1-2.31,5.89,8.44,8.44,0,0,1-6,2.1,8,8,0,0,1-6.36-2.84,12.84,12.84,0,0,1-2.85-7.45,28.91,28.91,0,0,1,.14-5.08,17,17,0,0,0,0-4.27A4.79,4.79,0,0,0,334,31a5.84,5.84,0,0,0-3.18-.74A14.32,14.32,0,0,0,318,37.39q-4.54,7.19-4.54,22.89,0,13.68,5.08,20.93t15.65,7.25q6.36,0,10.29-2.3a28.15,28.15,0,0,0,7.59-6.91l1.35,1.08A25.92,25.92,0,0,1,343,92.66,31.14,31.14,0,0,1,326.34,97Z"/><path class="cls-1" d="M397.52,97a35.94,35.94,0,0,1-17.88-4.26A29.15,29.15,0,0,1,367.93,80.6a39,39,0,0,1-4.14-18.42,36.26,36.26,0,0,1,4.41-18.29A30.55,30.55,0,0,1,380.25,32a37.76,37.76,0,0,1,34.48-.07,30.36,30.36,0,0,1,12,11.85q4.39,7.72,4.4,18.43A39,39,0,0,1,427,80.67a29.5,29.5,0,0,1-11.65,12.06A35.55,35.55,0,0,1,397.52,97Zm0-2.71a10.54,10.54,0,0,0,7.59-2.71q2.85-2.7,4.13-9.61a112.86,112.86,0,0,0,1.29-19.51,113.76,113.76,0,0,0-1.29-19.64q-1.29-6.91-4.13-9.62a10.54,10.54,0,0,0-7.59-2.71,10.76,10.76,0,0,0-7.65,2.71q-2.91,2.72-4.2,9.62a113.76,113.76,0,0,0-1.29,19.64A112.86,112.86,0,0,0,385.67,82q1.29,6.9,4.2,9.61A10.76,10.76,0,0,0,397.52,94.28Z"/><path class="cls-1" d="M85.53,139.72a8.34,8.34,0,0,1-4.12-1A7.14,7.14,0,0,1,78.64,136a7.72,7.72,0,0,1-1-4,7.9,7.9,0,0,1,1-3.94,7,7,0,0,1,2.63-2.7,7.72,7.72,0,0,1,7.51,0,6.82,6.82,0,0,1,2.59,2.68,8.22,8.22,0,0,1,.94,4c0,.1,0,.2,0,.3s0,.21,0,.33H79.19v-1.52h12l-.8.6a5.9,5.9,0,0,0-.7-2.9,5.17,5.17,0,0,0-1.9-2,5.27,5.27,0,0,0-2.77-.72,5.41,5.41,0,0,0-2.78.72,4.91,4.91,0,0,0-1.91,2,6.14,6.14,0,0,0-.69,2.94v.32a5.93,5.93,0,0,0,.76,3,5.31,5.31,0,0,0,2.12,2,6.37,6.37,0,0,0,3.1.73,6.55,6.55,0,0,0,2.55-.49,5.27,5.27,0,0,0,2-1.48l1.14,1.31a6.47,6.47,0,0,1-2.5,1.83A8.44,8.44,0,0,1,85.53,139.72Z"/><path class="cls-1" d="M129,139.72a11.62,11.62,0,0,1-3.52-.53,7.35,7.35,0,0,1-2.6-1.33l.91-1.6a8.73,8.73,0,0,0,2.35,1.19,9.08,9.08,0,0,0,3,.5,5.47,5.47,0,0,0,3.08-.67,2.11,2.11,0,0,0,.95-1.79,1.66,1.66,0,0,0-.53-1.3,3.58,3.58,0,0,0-1.39-.72,16.68,16.68,0,0,0-1.91-.41c-.71-.11-1.41-.25-2.1-.4a7.75,7.75,0,0,1-1.9-.67,3.66,3.66,0,0,1-1.39-1.22,3.58,3.58,0,0,1-.53-2.05,3.69,3.69,0,0,1,.69-2.2,4.54,4.54,0,0,1,2-1.53,8.45,8.45,0,0,1,3.25-.56,11.2,11.2,0,0,1,2.91.39,7.85,7.85,0,0,1,2.4,1l-.88,1.63a6.77,6.77,0,0,0-2.15-1,8.93,8.93,0,0,0-2.28-.3,5.15,5.15,0,0,0-3,.7,2.14,2.14,0,0,0-1,1.79A1.73,1.73,0,0,0,126,130a3.53,3.53,0,0,0,1.4.76,13.61,13.61,0,0,0,1.92.44c.69.12,1.39.26,2.08.42a9.62,9.62,0,0,1,1.92.65,3.51,3.51,0,0,1,1.4,1.18,3.39,3.39,0,0,1,.53,2,3.65,3.65,0,0,1-.73,2.27,4.64,4.64,0,0,1-2.12,1.49A9.46,9.46,0,0,1,129,139.72Z"/><path class="cls-1" d="M165.18,126.26v-1.69h9.28v1.69Zm7.08,13.46a4,4,0,0,1-4.4-4.37V121.26h2v14a2.87,2.87,0,0,0,.67,2,2.51,2.51,0,0,0,1.93.72,3.24,3.24,0,0,0,2.23-.78l.72,1.46a3.8,3.8,0,0,1-1.45.8A5.94,5.94,0,0,1,172.26,139.72Z"/><path class="cls-1" d="M213.9,139.72a7.31,7.31,0,0,1-3.34-.72,5.09,5.09,0,0,1-2.22-2.14,7.37,7.37,0,0,1-.78-3.57v-8.72h2v8.49a5,5,0,0,0,1.18,3.62,4.44,4.44,0,0,0,3.33,1.21,5.51,5.51,0,0,0,2.73-.64,4.33,4.33,0,0,0,1.77-1.87,6.52,6.52,0,0,0,.62-2.95v-7.86h2v15H219.3v-4.12l.32.74a5.57,5.57,0,0,1-2.22,2.59A6.49,6.49,0,0,1,213.9,139.72Z"/><path class="cls-1" d="M261.46,139.72a7.62,7.62,0,0,1-3.85-1,7.07,7.07,0,0,1-2.67-2.7,8.71,8.71,0,0,1,0-8,7,7,0,0,1,2.67-2.67,7.72,7.72,0,0,1,3.85-1,7,7,0,0,1,3.52.89,6.45,6.45,0,0,1,2.49,2.58,8.58,8.58,0,0,1,.93,4.16,8.67,8.67,0,0,1-.91,4.14,6.41,6.41,0,0,1-2.48,2.62A7,7,0,0,1,261.46,139.72Zm.14-1.8a5.62,5.62,0,0,0,2.87-.73,5.15,5.15,0,0,0,2-2.06,6.86,6.86,0,0,0,0-6.16,5.23,5.23,0,0,0-2-2,5.62,5.62,0,0,0-2.87-.73,5.5,5.5,0,0,0-2.83.73,5.37,5.37,0,0,0-2,2,6.78,6.78,0,0,0,0,6.16,5.29,5.29,0,0,0,2,2.06A5.5,5.5,0,0,0,261.6,137.92Zm5.66,1.66v-4.52l.2-3-.29-3V118.37h2v21.21Z"/><path class="cls-1" d="M304.47,121.26a1.47,1.47,0,0,1-1.06-.43,1.4,1.4,0,0,1-.43-1,1.32,1.32,0,0,1,.43-1,1.56,1.56,0,0,1,2.11,0,1.3,1.3,0,0,1,.43,1,1.5,1.5,0,0,1-.41,1.06A1.46,1.46,0,0,1,304.47,121.26Zm-1,18.32v-15h2v15Z"/><path class="cls-1" d="M345.82,139.72a7.69,7.69,0,0,1-3.9-1,7.18,7.18,0,0,1-2.73-2.71,8.36,8.36,0,0,1,0-7.93,7.21,7.21,0,0,1,2.71-2.69,7.81,7.81,0,0,1,3.92-1,8,8,0,0,1,4,1,7.07,7.07,0,0,1,2.71,2.69,8.44,8.44,0,0,1,0,7.93,7.11,7.11,0,0,1-2.73,2.71A7.82,7.82,0,0,1,345.82,139.72Zm0-1.8a5.64,5.64,0,0,0,2.89-.73,5.24,5.24,0,0,0,2-2.06,6.86,6.86,0,0,0,0-6.16,5.32,5.32,0,0,0-2-2,6,6,0,0,0-5.72,0,5.37,5.37,0,0,0-2,2,6.78,6.78,0,0,0,0,6.16,5.29,5.29,0,0,0,2,2.06A5.5,5.5,0,0,0,345.82,137.92Z"/></g></g></svg>