<svg xmlns="http://www.w3.org/2000/svg" viewBox="0 0 143.89 167.61"><defs><style>.cls-1{fill:#3c3c3b;}</style></defs><g id="Layer_2" data-name="Layer 2"><g id="Capa_1" data-name="Capa 1"><path class="cls-1" d="M46.72,54.74l-12.95-1V53l.76-.16a3.53,3.53,0,0,0,3-3.83V8A4.79,4.79,0,0,0,37,5.52a2.85,2.85,0,0,0-2-1.15l-1.07-.31V3.3L47.57,0l.92.69L48.18,11.5v7.74A19.24,19.24,0,0,1,53.7,16.6a21.21,21.21,0,0,1,6.06-.88,14.66,14.66,0,0,1,7.74,2A13.79,13.79,0,0,1,72.83,24a26.37,26.37,0,0,1,2,10.93A25,25,0,0,1,72.6,46a15.65,15.65,0,0,1-5.83,6.63,15.11,15.11,0,0,1-8,2.22,22.08,22.08,0,0,1-5.71-.76A19,19,0,0,1,48,52Zm8.21-2.46a6.47,6.47,0,0,0,4.29-1.53,10.39,10.39,0,0,0,2.91-5.25,38.24,38.24,0,0,0,1.08-10.23,39.13,39.13,0,0,0-1-10.05,9.15,9.15,0,0,0-2.8-4.9,6.9,6.9,0,0,0-4.33-1.38,12,12,0,0,0-6.67,2V50.37a13.81,13.81,0,0,0,3,1.42A11.49,11.49,0,0,0,54.93,52.28Z"/><path class="cls-1" d="M80.12,53.74V53l1.15-.31a3.63,3.63,0,0,0,2.11-1.38A4.46,4.46,0,0,0,84,48.91v-24a4.38,4.38,0,0,0-.57-2.5,3.34,3.34,0,0,0-2.11-1.11L80.12,21v-.77L93.3,15.79l.77.77.69,6.59v.62a16.24,16.24,0,0,1,2.8-3.95,15.45,15.45,0,0,1,3.83-2.95,8.65,8.65,0,0,1,4.18-1.15A5.85,5.85,0,0,1,110,17.33a5.64,5.64,0,0,1,1.53,4.06,5.25,5.25,0,0,1-1.5,4,5,5,0,0,1-3.56,1.42q-3.22,0-5.67-3.22l-.16-.15a2.55,2.55,0,0,0-1.76-1.19,2,2,0,0,0-1.84,1,6,6,0,0,0-1.27,1.65,19.73,19.73,0,0,0-1,2.18V48.45a3.53,3.53,0,0,0,2.68,3.83L100,53v.76Z"/><path class="cls-1" d="M46.29,98.3a13,13,0,0,1-5.48-1.15,8.51,8.51,0,0,1-3.91-3.72,13.48,13.48,0,0,1-1.34-6.79l.23-19.7a4.16,4.16,0,0,0-.61-2.53,3.33,3.33,0,0,0-1.92-1.07L32.34,63v-.77l13.72-2.68.77.77-.38,10.88V89.71a4.36,4.36,0,0,0,1.41,3.6,5.48,5.48,0,0,0,3.57,1.15,11.11,11.11,0,0,0,3.83-.61A13.76,13.76,0,0,0,58.64,92l.3-25a4.38,4.38,0,0,0-.53-2.49,3.24,3.24,0,0,0-2-1l-.76-.23v-.77l13.41-2.91.77.77L69.6,71.23V92a6,6,0,0,0,.46,2.61,3.57,3.57,0,0,0,2,1.53l.77.23v.77l-13.42.76-.69-4.52a27.23,27.23,0,0,1-5.48,3.49A16,16,0,0,1,46.29,98.3Z"/><path class="cls-1" d="M91.68,98.3a23.71,23.71,0,0,1-6.74-.89,30.37,30.37,0,0,1-5.52-2.18l.07-9.12h.77l2.61,4.6a13.75,13.75,0,0,0,3.72,4.56,8.47,8.47,0,0,0,5.17,1.49,9.86,9.86,0,0,0,5.94-1.65,5.15,5.15,0,0,0,2.26-4.4,5.57,5.57,0,0,0-1.61-4.14q-1.6-1.62-6-2.92l-3.22-1a15.82,15.82,0,0,1-7.36-4.3,10.17,10.17,0,0,1-2.68-7.13,11,11,0,0,1,4-8.58q4-3.52,11.42-3.53a23.82,23.82,0,0,1,5.64.65,22.22,22.22,0,0,1,5.09,2L104.79,70H104l-2.69-4.76a11.58,11.58,0,0,0-2.87-3.56,7.23,7.23,0,0,0-4.26-1,9,9,0,0,0-4.9,1.46A4.61,4.61,0,0,0,87,66.25,5,5,0,0,0,89,70.39a20.06,20.06,0,0,0,5.79,2.84l3.45,1q5.52,1.69,7.9,4.64A11,11,0,0,1,108.47,86a10.75,10.75,0,0,1-4.4,9Q99.66,98.3,91.68,98.3Z"/><path class="cls-1" d="M53.17,141.79a19.84,19.84,0,0,1-9.47-2.27A16.65,16.65,0,0,1,37,132.93a21,21,0,0,1-2.49-10.62,19.87,19.87,0,0,1,2.72-10.62A18.23,18.23,0,0,1,44.46,105a21.61,21.61,0,0,1,10-2.34A17.43,17.43,0,0,1,62,104.07a11.42,11.42,0,0,1,4.68,3.79,8.49,8.49,0,0,1,1.61,4.87,4.3,4.3,0,0,1-1.3,3.33,4.8,4.8,0,0,1-3.38,1.19,4.5,4.5,0,0,1-3.6-1.61,7.25,7.25,0,0,1-1.61-4.21,16.24,16.24,0,0,1,.08-2.88,9.72,9.72,0,0,0,0-2.41,2.75,2.75,0,0,0-1-1.73,3.33,3.33,0,0,0-1.8-.42,8.11,8.11,0,0,0-7.25,4.06q-2.56,4.07-2.57,13,0,7.74,2.88,11.84c1.91,2.74,4.87,4.11,8.85,4.11a11.44,11.44,0,0,0,5.83-1.31,15.87,15.87,0,0,0,4.29-3.91l.77.62a14.71,14.71,0,0,1-5.9,7A17.62,17.62,0,0,1,53.17,141.79Z"/><path class="cls-1" d="M91.45,141.79a20.32,20.32,0,0,1-10.12-2.42,16.55,16.55,0,0,1-6.63-6.86,22.08,22.08,0,0,1-2.34-10.43,20.6,20.6,0,0,1,2.49-10.35A17.29,17.29,0,0,1,81.68,105a21.34,21.34,0,0,1,19.51,0,17.09,17.09,0,0,1,6.78,6.71,20.71,20.71,0,0,1,2.49,10.42,22,22,0,0,1-2.33,10.47,16.62,16.62,0,0,1-6.6,6.82A20.06,20.06,0,0,1,91.45,141.79Zm0-1.54a6,6,0,0,0,4.3-1.53c1.07-1,1.85-2.84,2.33-5.44a63.56,63.56,0,0,0,.73-11,64.13,64.13,0,0,0-.73-11.12q-.72-3.91-2.33-5.44a6,6,0,0,0-4.3-1.54,6.07,6.07,0,0,0-4.33,1.54q-1.65,1.53-2.38,5.44A65.34,65.34,0,0,0,84,122.24a64.77,64.77,0,0,0,.72,11c.49,2.6,1.28,4.42,2.38,5.44A6.11,6.11,0,0,0,91.45,140.25Z"/><path class="cls-1" d="M4.11,167.61A4.24,4.24,0,0,1,2,167.09a3.71,3.71,0,0,1-1.45-1.41A4,4,0,0,1,0,163.61a4.15,4.15,0,0,1,.5-2.05,3.64,3.64,0,0,1,1.37-1.41,3.83,3.83,0,0,1,2-.52,3.83,3.83,0,0,1,2,.5,3.64,3.64,0,0,1,1.35,1.4,4.29,4.29,0,0,1,.49,2.08v.16a.91.91,0,0,0,0,.17H.8v-.79H7.05l-.42.31A3.12,3.12,0,0,0,6.27,162a2.73,2.73,0,0,0-1-1,2.77,2.77,0,0,0-1.45-.38,2.76,2.76,0,0,0-1.44.38,2.51,2.51,0,0,0-1,1A3.2,3.2,0,0,0,1,163.49v.17a3.1,3.1,0,0,0,.39,1.57,2.83,2.83,0,0,0,1.11,1.06,3.39,3.39,0,0,0,1.61.38,3.47,3.47,0,0,0,1.34-.25,2.71,2.71,0,0,0,1.06-.78l.6.69a3.45,3.45,0,0,1-1.3.95A4.44,4.44,0,0,1,4.11,167.61Z"/><path class="cls-1" d="M26.8,167.61a5.84,5.84,0,0,1-1.83-.28,3.84,3.84,0,0,1-1.36-.69l.48-.83a4.78,4.78,0,0,0,1.22.61,4.58,4.58,0,0,0,1.57.26,2.81,2.81,0,0,0,1.61-.35,1.07,1.07,0,0,0,.49-.93.85.85,0,0,0-.28-.68,1.88,1.88,0,0,0-.72-.37c-.3-.08-.63-.15-1-.21s-.73-.13-1.09-.21a4,4,0,0,1-1-.35,2.05,2.05,0,0,1-.73-.64,1.88,1.88,0,0,1-.27-1.07,2,2,0,0,1,.35-1.15,2.39,2.39,0,0,1,1.06-.8,4.42,4.42,0,0,1,1.69-.29,6.16,6.16,0,0,1,1.52.2,4.7,4.7,0,0,1,1.25.53l-.46.85a3.66,3.66,0,0,0-1.12-.51,4.93,4.93,0,0,0-1.19-.16,2.6,2.6,0,0,0-1.56.37,1.11,1.11,0,0,0-.5.93.88.88,0,0,0,.28.7,1.88,1.88,0,0,0,.73.4,7.8,7.8,0,0,0,1,.23l1.08.21a4.7,4.7,0,0,1,1,.35,1.68,1.68,0,0,1,.73.61,1.72,1.72,0,0,1,.28,1,1.92,1.92,0,0,1-.38,1.19,2.45,2.45,0,0,1-1.1.77A4.85,4.85,0,0,1,26.8,167.61Z"/><path class="cls-1" d="M45.66,160.59v-.88h4.85v.88Zm3.7,7a2.29,2.29,0,0,1-1.7-.6,2.26,2.26,0,0,1-.6-1.68V158h1.06v7.29a1.5,1.5,0,0,0,.35,1.06,1.32,1.32,0,0,0,1,.37,1.69,1.69,0,0,0,1.16-.4l.37.76a1.77,1.77,0,0,1-.75.41A3,3,0,0,1,49.36,167.61Z"/><path class="cls-1" d="M71.08,167.61a3.78,3.78,0,0,1-1.74-.37,2.62,2.62,0,0,1-1.16-1.12,3.89,3.89,0,0,1-.41-1.87v-4.54h1.06v4.43a2.6,2.6,0,0,0,.62,1.88,2.31,2.31,0,0,0,1.73.63,2.93,2.93,0,0,0,1.43-.33,2.19,2.19,0,0,0,.92-1,3.29,3.29,0,0,0,.32-1.53v-4.1h1.06v7.82h-1v-2.14l.16.39a2.9,2.9,0,0,1-1.15,1.34A3.36,3.36,0,0,1,71.08,167.61Z"/><path class="cls-1" d="M95.89,167.61a4,4,0,0,1-2-.51,3.62,3.62,0,0,1-1.39-1.41,4.5,4.5,0,0,1,0-4.16,3.67,3.67,0,0,1,1.39-1.4,4,4,0,0,1,2-.5,3.65,3.65,0,0,1,1.84.47A3.27,3.27,0,0,1,99,161.44a4.43,4.43,0,0,1,.49,2.17,4.55,4.55,0,0,1-.48,2.17,3.39,3.39,0,0,1-1.29,1.36A3.66,3.66,0,0,1,95.89,167.61Zm.07-.94a3,3,0,0,0,1.5-.38,2.68,2.68,0,0,0,1-1.07,3.6,3.6,0,0,0,0-3.22,2.72,2.72,0,0,0-1-1.06,2.89,2.89,0,0,0-1.5-.38A2.81,2.81,0,0,0,93.44,162a3.52,3.52,0,0,0,0,3.22,2.82,2.82,0,0,0,1,1.07A2.94,2.94,0,0,0,96,166.67Zm3,.86v-2.35L99,163.6,98.87,162v-5.55h1.06v11.06Z"/><path class="cls-1" d="M118.32,158a.78.78,0,0,1-.55-.22.73.73,0,0,1-.22-.54.69.69,0,0,1,.22-.53.78.78,0,0,1,.55-.22.75.75,0,0,1,.55.21.68.68,0,0,1,.23.52.75.75,0,0,1-.78.78Zm-.53,9.55v-7.82h1v7.82Z"/><path class="cls-1" d="M139.89,167.61a4,4,0,0,1-2-.52,3.79,3.79,0,0,1-1.43-1.41,4.38,4.38,0,0,1,0-4.14,3.82,3.82,0,0,1,1.42-1.4,4.06,4.06,0,0,1,2-.51,4.13,4.13,0,0,1,2.07.51,3.82,3.82,0,0,1,1.42,1.4,4.46,4.46,0,0,1,0,4.14,3.73,3.73,0,0,1-1.43,1.41A4,4,0,0,1,139.89,167.61Zm0-.94a3,3,0,0,0,1.51-.38,2.75,2.75,0,0,0,1-1.07,3.6,3.6,0,0,0,0-3.22,2.79,2.79,0,0,0-1-1.06,3.11,3.11,0,0,0-3,0,2.81,2.81,0,0,0-1,1.06,3.6,3.6,0,0,0,0,3.22,2.77,2.77,0,0,0,1,1.07A2.93,2.93,0,0,0,139.89,166.67Z"/></g></g></svg>