<svg xmlns="http://www.w3.org/2000/svg" viewBox="0 0 252.17 77.31"><defs><style>.cls-1{fill:#1d1d1b;}</style></defs><g id="Layer_2" data-name="Layer 2"><g id="Capa_1" data-name="Capa 1"><path class="cls-1" d="M82.55,8.35c-.92-.75-3.34-.58-4.7.78L67.59,20.08,69.25,22l0,0,1.88,2.14L83,11.52A2.22,2.22,0,0,0,82.55,8.35Z"/><path class="cls-1" d="M37.07,28.23,24.45,9.45a2.42,2.42,0,0,0-2.13-1.07A2.4,2.4,0,0,0,20.2,9.45L7.58,28.23.39,38.93a2.53,2.53,0,0,0,.75,3.44l0,0a2.7,2.7,0,0,0,3.62-.51l5.89-8.77H34l5.89,8.77a2.7,2.7,0,0,0,3.62.51l.05,0a2.53,2.53,0,0,0,.74-3.44Zm-6.4,0H14l8.34-12.42,8.35,12.42Z"/><path class="cls-1" d="M63.09,28.22,61.58,26.5,60,28.23,49.77,39.11a1.64,1.64,0,0,0,0,2.58,1.6,1.6,0,0,0,.79.33c1.85.25,3.71.12,4.35-.55L65.15,30.59,63.1,28.23Z"/><path class="cls-1" d="M125.19,28.23,112.57,9.45a2.65,2.65,0,0,0-4.25,0L95.7,28.23l-7.19,10.7a2.53,2.53,0,0,0,.75,3.44l0,0a2.7,2.7,0,0,0,3.62-.51l5.89-8.77h23.27L128,41.89a2.7,2.7,0,0,0,3.62.51l0,0a2.53,2.53,0,0,0,.75-3.44Zm-23.09,0h0l8.35-12.42,8.34,12.42H102.1Z"/><path class="cls-1" d="M183.24,28.23v-.34h28.5a2.45,2.45,0,1,0,0-4.89h-28.5V19.83c0-5.24,2.21-5.57,3.49-5.59H197a2.44,2.44,0,0,0,0-4.88h-10.1c-2.61,0-8.55,1.08-8.55,10.46v12.7c0,7.79,4.68,9.42,8.6,9.42h24.77a2.45,2.45,0,1,0,0-4.89H187c-2.58,0-3.73-.66-3.73-4.55v-4.3Z"/><path class="cls-1" d="M166.38,29.26a9.76,9.76,0,0,0,3.2-1,10,10,0,0,0-3.2-18.76,2.46,2.46,0,0,0-.72-.11h-27.8a2.48,2.48,0,0,0-.73.11,2.44,2.44,0,0,0-1.72,2.33V39.54A2.45,2.45,0,0,0,137.86,42h.42a2.45,2.45,0,0,0,2.45-2.44V29.37H141l25.75,12.45a2.17,2.17,0,0,0,.71.14h4.32a1.23,1.23,0,0,0,1-.7c.57-1.46-.7-2.78-1.74-3.28l-17.82-8.61h12.49A2.46,2.46,0,0,0,166.38,29.26Zm-25.65-15h24.4a5.12,5.12,0,0,1,0,10.24h-24.4Z"/><path class="cls-1" d="M251.1,28.23A10.06,10.06,0,0,0,242.17,23h-16c-2.83,0-5.13-2-5.13-4.39s2.3-4.38,5.13-4.38h7.74a2.44,2.44,0,0,0,0-4.88h-7.74c-5.51,0-10,4.15-10,9.25s4.49,9.26,10,9.26h16a5.63,5.63,0,0,1,2,.36,4.64,4.64,0,0,1,3.14,4.25,4.9,4.9,0,0,1-5.13,4.6H218.1a2.45,2.45,0,0,0,0,4.89h24.07a9.76,9.76,0,0,0,10-9.47A9,9,0,0,0,251.1,28.23Z"/><path class="cls-1" d="M97.6,38.93c-1.23,3.1-2.83,4.51-5.33,4.75a6.41,6.41,0,0,1-5.47-1.76c-.87-.92-2.51-2.8-2.51-2.8L81.59,36h0l-6.85-7.8-3.58-4.07L69.29,22l0,0-1.66-1.9c-2.78-3.17-8.29-9.46-10.7-12.16l-.26-.3h0l-.77-.84c-1.45-1.54-5-5.68-10-6.54C37.9-1.14,34,3.66,33.68,10.72c-.08,1.55,1,1.35,1.25.79C36.17,8.4,37.77,7,40.27,6.76a6.38,6.38,0,0,1,5.46,1.75c.64.67,1.68,1.85,2.2,2.44L61.58,26.5l1.51,1.72h0l2.05,2.36C67.6,33.38,71.65,38,74.28,41l1,1.16h0c.66.74,1.15,1.28,1.38,1.52,1.45,1.54,5,5.69,9.95,6.55,8,1.38,11.89-3.42,12.22-10.49C98.94,38.16,97.82,38.37,97.6,38.93Z"/><path class="cls-1" d="M140.36,69.77c0,5.12-4.54,7.54-10.76,7.54H117.07l4.78-23.9h11.54c5.16,0,8,2,8,5.46A6.43,6.43,0,0,1,137.15,65,4.85,4.85,0,0,1,140.36,69.77Zm-5.5-.07c0-1.78-1.4-2.46-3.59-2.46h-6.69l-1.16,5.91h6.52C133,73.15,134.86,72,134.86,69.7Zm-8.37-12.12-1.12,5.63H131c2.87,0,4.61-1.16,4.61-3.38,0-1.57-1.3-2.25-3.52-2.25Z"/><path class="cls-1" d="M154.8,53.41h5.57l-4.78,23.9H150Z"/><path class="cls-1" d="M182.67,64.47,191,77.31h-6.22L178.61,68l-3.86,3.41-1.2,5.94h-5.5l4.78-23.9h5.5l-2.18,11,12.39-11h6.7Z"/><path class="cls-1" d="M209.54,57.85l-1,5.19h11.1l-.86,4.3H207.63l-1.09,5.54h13l-.92,4.43H200.15l4.78-23.9H223l-.92,4.44Z"/></g></g></svg>