<svg xmlns="http://www.w3.org/2000/svg" viewBox="0 0 225.58 77.43"><defs><style>.cls-1{fill:#2d2a26;}</style></defs><g id="Layer_2" data-name="Layer 2"><g id="Capa_1" data-name="Capa 1"><polygon class="cls-1" points="8.46 26.63 38.01 26.63 38.01 20.64 8.46 20.64 8.46 7.07 40.16 7.07 40.16 1.08 0 1.08 0 47.47 40.39 47.47 40.39 41.48 8.46 41.48 8.46 26.63"/><path class="cls-1" d="M88.25,4.72c-3-2.41-7.49-3.64-13.3-3.64H49.58V47.47H58V28.86H75.25c5.66,0,10-1.22,13-3.61A12.56,12.56,0,0,0,92.84,15,12.44,12.44,0,0,0,88.25,4.72ZM81.58,20.86c-1.91,1.38-5,2.06-9.17,2H58V7.07H72.4c4.19,0,7.27.69,9.18,2A6.71,6.71,0,0,1,84.38,15,6.79,6.79,0,0,1,81.58,20.86Z"/><rect class="cls-1" x="101.15" y="1.08" width="8.46" height="46.39"/><path class="cls-1" d="M161.81,29.85a13.94,13.94,0,0,1-1.39,5.06,12.31,12.31,0,0,1-3.19,4,15.33,15.33,0,0,1-4.87,2.66,20.36,20.36,0,0,1-6.51,1,22.35,22.35,0,0,1-8.59-1.49,16.3,16.3,0,0,1-5.85-4A15.75,15.75,0,0,1,128,31.18a23.46,23.46,0,0,1-1.1-7.22A21.2,21.2,0,0,1,128,17.22a16.11,16.11,0,0,1,3.38-5.74,16.4,16.4,0,0,1,5.81-4A22.1,22.1,0,0,1,145.77,6a20.54,20.54,0,0,1,10.1,2.36,11,11,0,0,1,5.4,7l.08.33h8.44l-.09-.52a15.16,15.16,0,0,0-2.79-6.59,18.17,18.17,0,0,0-5.3-4.74A25.74,25.74,0,0,0,154.39,1a36.81,36.81,0,0,0-8.54-1A33.67,33.67,0,0,0,134.1,1.91a24.85,24.85,0,0,0-8.59,5.22,22.24,22.24,0,0,0-5.24,7.77,25.28,25.28,0,0,0-1.79,9.5,26.55,26.55,0,0,0,1.67,9.46,20.9,20.9,0,0,0,5,7.68,23.37,23.37,0,0,0,8.36,5.11,34,34,0,0,0,11.7,1.84c7.34,0,13.22-1.64,17.47-4.87a19.6,19.6,0,0,0,7.58-13.68l.07-.5h-8.49Z"/><path class="cls-1" d="M202.93,1.08H194L171.75,46.83l-.31.64h8.72l6.37-13.7H210l6.21,13.7h9.36Zm4.29,26.7H189.33l9-19.86Z"/><path class="cls-1" d="M29.88,61.88l3.71,10.68h0l3.78-10.68h5.36v.3h-2V76.85h2v.3h-7v-.3h1.95V62.18h0l-5.28,15H32l-5.3-15h-.05V76.85h2v.3H24.37v-.3h2V62.18h-2v-.3Z"/><path class="cls-1" d="M52.21,77.34a6.79,6.79,0,0,1-1.06.09A2.72,2.72,0,0,1,49.53,77,1.6,1.6,0,0,1,48.88,76h-.05a2,2,0,0,1-.94,1.16,4,4,0,0,1-1.74.3,5.51,5.51,0,0,1-1-.11,3.44,3.44,0,0,1-1-.34,2,2,0,0,1-.73-.65,1.77,1.77,0,0,1-.28-1,2.05,2.05,0,0,1,.24-1,2.32,2.32,0,0,1,.65-.71,3.48,3.48,0,0,1,.9-.47l1-.36c.58-.17,1.06-.31,1.43-.44a3.74,3.74,0,0,0,.84-.38,1.2,1.2,0,0,0,.42-.46,1.61,1.61,0,0,0,.12-.67V69.47a2,2,0,0,0-.28-1,1.13,1.13,0,0,0-1-.47,1.6,1.6,0,0,0-.86.23.89.89,0,0,0-.36.82,1.22,1.22,0,0,0,0,.23c0,.1,0,.22,0,.35s0,.25,0,.37a1.22,1.22,0,0,1,0,.23.79.79,0,0,1-.15.51.81.81,0,0,1-.35.26,1.28,1.28,0,0,1-.43.1H45a3.25,3.25,0,0,1-.44,0,.88.88,0,0,1-.4-.15,1,1,0,0,1-.29-.33,1.22,1.22,0,0,1-.12-.58,1.74,1.74,0,0,1,.31-1,2.56,2.56,0,0,1,.83-.73,4.38,4.38,0,0,1,1.17-.44,6,6,0,0,1,1.36-.15,8.31,8.31,0,0,1,1.53.13,3.22,3.22,0,0,1,1.25.47,2.41,2.41,0,0,1,.83.93,3.16,3.16,0,0,1,.31,1.49V76a2,2,0,0,0,.12.72c.08.21.28.31.59.31a.9.9,0,0,0,.46-.1,2,2,0,0,0,.36-.3l.19.19A1.18,1.18,0,0,1,52.21,77.34Zm-3.5-5.51a.66.66,0,0,1-.17.25,1.43,1.43,0,0,1-.41.27l-.82.37a3.22,3.22,0,0,0-.73.46,2.24,2.24,0,0,0-.52.69,2.28,2.28,0,0,0-.21,1,4.62,4.62,0,0,0,0,.6,2,2,0,0,0,.17.67,1.44,1.44,0,0,0,.41.54,1.23,1.23,0,0,0,.78.23,1.19,1.19,0,0,0,.54-.13,1.52,1.52,0,0,0,.49-.4,2.18,2.18,0,0,0,.34-.7,3.73,3.73,0,0,0,.13-1.07V71.83Z"/><path class="cls-1" d="M57.3,68v8.9h1.44v.3H53.25v-.3h1.43v-8.6H53.25V68Zm-2.38-5.68A1.47,1.47,0,0,1,56,61.82a1.54,1.54,0,0,1,1.52,1.52,1.47,1.47,0,0,1-.45,1.07,1.45,1.45,0,0,1-1.07.45,1.54,1.54,0,0,1-1.52-1.52A1.45,1.45,0,0,1,54.92,62.27Z"/><path class="cls-1" d="M59.4,74c.17.4.35.79.53,1.16a4.92,4.92,0,0,0,.63,1,3,3,0,0,0,.88.69,2.67,2.67,0,0,0,1.26.27l.52,0a1.5,1.5,0,0,0,.63-.18,1.42,1.42,0,0,0,.54-.5,1.67,1.67,0,0,0,.22-1,1.41,1.41,0,0,0,0-.4,1.14,1.14,0,0,0-.23-.41,1.66,1.66,0,0,0-.5-.42,5,5,0,0,0-.91-.42l-1.74-.64a6.83,6.83,0,0,1-.64-.29,2.68,2.68,0,0,1-.63-.49,2.48,2.48,0,0,1-.49-.72,2.3,2.3,0,0,1-.19-1,2.79,2.79,0,0,1,.26-1.18,3,3,0,0,1,.72-1,3.31,3.31,0,0,1,1.11-.66,3.91,3.91,0,0,1,1.43-.25,3.1,3.1,0,0,1,.76.09,4.49,4.49,0,0,1,.64.18l.52.18a1,1,0,0,0,.35.09q.24,0,.3-.09a1.18,1.18,0,0,0,.11-.19h.3v2.61h-.28c-.14-.34-.29-.67-.44-1a3.5,3.5,0,0,0-.54-.83,2.28,2.28,0,0,0-.76-.56A2.79,2.79,0,0,0,62.6,68a2.38,2.38,0,0,0-1.3.38,1.22,1.22,0,0,0-.59,1.1,1.42,1.42,0,0,0,0,.34,1.07,1.07,0,0,0,.2.4,1.64,1.64,0,0,0,.47.41,4.15,4.15,0,0,0,.86.39l1.82.63a4.23,4.23,0,0,1,1.76,1.07,2.43,2.43,0,0,1,.6,1.69,2.69,2.69,0,0,1-.31,1.28,3,3,0,0,1-.82,1,3.63,3.63,0,0,1-1.17.62,4.51,4.51,0,0,1-1.37.21,4.3,4.3,0,0,1-.84-.09,7.22,7.22,0,0,1-.86-.2l-.77-.2a2.15,2.15,0,0,0-.53-.09.34.34,0,0,0-.25.07.53.53,0,0,0-.14.23h-.3V74Z"/><path class="cls-1" d="M74.14,68.05a5.36,5.36,0,0,1,1.66,1.06,4.74,4.74,0,0,1,1.11,1.55,4.67,4.67,0,0,1,0,3.78A4.74,4.74,0,0,1,75.8,76,5,5,0,0,1,74.14,77a5.37,5.37,0,0,1-2.07.39A5.45,5.45,0,0,1,70,77,5.1,5.1,0,0,1,68.34,76a4.71,4.71,0,0,1-1.1-1.55,4.67,4.67,0,0,1,0-3.78,4.71,4.71,0,0,1,1.1-1.55A5.48,5.48,0,0,1,70,68.05a5.27,5.27,0,0,1,2.07-.4A5.2,5.2,0,0,1,74.14,68.05Zm-.76,8.7a2.28,2.28,0,0,0,.7-1,5.81,5.81,0,0,0,.28-1.49c0-.55,0-1.12,0-1.69s0-1.13,0-1.68a5.73,5.73,0,0,0-.28-1.47,2.26,2.26,0,0,0-.7-1,2.35,2.35,0,0,0-2.62,0,2.32,2.32,0,0,0-.69,1,5.33,5.33,0,0,0-.28,1.47q-.06.83-.06,1.68c0,.57,0,1.14.06,1.69a5.41,5.41,0,0,0,.28,1.49,2.35,2.35,0,0,0,.69,1,2.35,2.35,0,0,0,2.62,0Z"/><path class="cls-1" d="M78.78,76.85v-8.6H77.36V68h4V70.1h0c.06-.13.16-.33.3-.59a3.11,3.11,0,0,1,.62-.79,4.12,4.12,0,0,1,1-.67A3.83,3.83,0,0,1,85,67.76a2.91,2.91,0,0,1,2.2.81A3.11,3.11,0,0,1,88,70.8v6h1.44v.3H84v-.3h1.33V70.07A2,2,0,0,0,85,68.75a1.25,1.25,0,0,0-1-.41,2.13,2.13,0,0,0-1,.24,2.39,2.39,0,0,0-.82.74,3.89,3.89,0,0,0-.57,1.23,5.77,5.77,0,0,0-.22,1.71v4.59h1.35v.3H77.36v-.3Z"/><path class="cls-1" d="M105.84,76.85v.3h-4V75.56h0a3.14,3.14,0,0,1-1,1.39,2.45,2.45,0,0,1-1.57.48A4.42,4.42,0,0,1,97.37,77a4.67,4.67,0,0,1-1.47-1.08,5.18,5.18,0,0,1-1.3-3.4,5.37,5.37,0,0,1,.27-1.61,5.07,5.07,0,0,1,.84-1.59,4.74,4.74,0,0,1,1.44-1.21,4.41,4.41,0,0,1,2.13-.48,2.53,2.53,0,0,1,1.56.45,2.79,2.79,0,0,1,.93,1.35h0V62h-1.46v-.3h4.08V76.85ZM101.73,71a6.33,6.33,0,0,0-.31-1.5,2.75,2.75,0,0,0-.7-1.14A1.78,1.78,0,0,0,99.45,68a1.65,1.65,0,0,0-.91.24,1.57,1.57,0,0,0-.61.77,4.72,4.72,0,0,0-.33,1.42,19.26,19.26,0,0,0-.1,2.18c0,.7,0,1.34,0,1.9a6.84,6.84,0,0,0,.24,1.45,2,2,0,0,0,.53.92,1.41,1.41,0,0,0,1,.32,2,2,0,0,0,1.4-.46,3,3,0,0,0,.77-1.16,5.47,5.47,0,0,0,.31-1.5c0-.54,0-1,0-1.47S101.78,71.58,101.73,71Z"/><path class="cls-1" d="M108.63,72.73q0,.78.06,1.56A4.42,4.42,0,0,0,109,75.7a2.46,2.46,0,0,0,.81,1,2.39,2.39,0,0,0,1.5.41,3,3,0,0,0,1.45-.32,3.71,3.71,0,0,0,1-.74,3.06,3.06,0,0,0,.55-.83,2.7,2.7,0,0,0,.21-.6l.3.11a4.43,4.43,0,0,1-.37.87,3.32,3.32,0,0,1-.71.86,4,4,0,0,1-1.11.66,4.27,4.27,0,0,1-1.61.27A6.39,6.39,0,0,1,109,77.1a5,5,0,0,1-1.68-1,4.37,4.37,0,0,1-1.13-1.54,5.06,5.06,0,0,1-.41-2.07,4.36,4.36,0,0,1,.39-1.8,5.07,5.07,0,0,1,1.06-1.56,5.41,5.41,0,0,1,1.59-1.09,4.63,4.63,0,0,1,2-.42,4.9,4.9,0,0,1,1.5.24,3.85,3.85,0,0,1,1.35.73,3.74,3.74,0,0,1,1,1.27,4.18,4.18,0,0,1,.39,1.88h-6.33Zm3.43-2.7c0-.16,0-.35,0-.58a2.67,2.67,0,0,0-.15-.68,1.36,1.36,0,0,0-.42-.58,1.21,1.21,0,0,0-.8-.24,1.68,1.68,0,0,0-1.13.34,2.14,2.14,0,0,0-.59.87,4.52,4.52,0,0,0-.25,1.14c0,.41-.06.8-.07,1.17h3.43Z"/><path class="cls-1" d="M115.89,74c.17.4.35.79.53,1.16a4.92,4.92,0,0,0,.63,1,3,3,0,0,0,.88.69,2.67,2.67,0,0,0,1.26.27l.52,0a1.5,1.5,0,0,0,.63-.18,1.42,1.42,0,0,0,.54-.5,1.67,1.67,0,0,0,.22-1,1.9,1.9,0,0,0,0-.4,1.14,1.14,0,0,0-.23-.41,1.66,1.66,0,0,0-.5-.42,5,5,0,0,0-.91-.42l-1.74-.64a6.83,6.83,0,0,1-.64-.29,2.68,2.68,0,0,1-.63-.49,2.48,2.48,0,0,1-.49-.72,2.3,2.3,0,0,1-.19-1,2.79,2.79,0,0,1,.26-1.18,3,3,0,0,1,.72-1,3.31,3.31,0,0,1,1.11-.66,3.91,3.91,0,0,1,1.43-.25,3.1,3.1,0,0,1,.76.09,4.49,4.49,0,0,1,.64.18l.52.18a1,1,0,0,0,.35.09q.24,0,.3-.09a1.18,1.18,0,0,0,.11-.19h.3v2.61h-.28c-.14-.34-.29-.67-.44-1a3.5,3.5,0,0,0-.54-.83,2.28,2.28,0,0,0-.76-.56,2.79,2.79,0,0,0-1.11-.2,2.38,2.38,0,0,0-1.3.38,1.22,1.22,0,0,0-.59,1.1,1.42,1.42,0,0,0,0,.34,1.07,1.07,0,0,0,.2.4,1.64,1.64,0,0,0,.47.41,4.15,4.15,0,0,0,.86.39l1.82.63a4.23,4.23,0,0,1,1.76,1.07,2.43,2.43,0,0,1,.6,1.69,2.69,2.69,0,0,1-.31,1.28,3,3,0,0,1-.82,1,3.63,3.63,0,0,1-1.17.62,4.51,4.51,0,0,1-1.37.21,4.3,4.3,0,0,1-.84-.09,7.22,7.22,0,0,1-.86-.2l-.77-.2a2.15,2.15,0,0,0-.53-.09.34.34,0,0,0-.25.07.53.53,0,0,0-.14.23h-.3V74Z"/><path class="cls-1" d="M135.39,76.85v.3h-7.06v-.3h2V62.18h-2v-.3h2l2.19,0q1.09,0,2.19,0a14.32,14.32,0,0,1,2.08.16,7.24,7.24,0,0,1,2.06.6,4.3,4.3,0,0,1,1.57,1.22,3.09,3.09,0,0,1,.64,2,3.2,3.2,0,0,1-.41,1.57,3.62,3.62,0,0,1-1.24,1.29,7,7,0,0,1-2.11.87,12.36,12.36,0,0,1-3,.32h-.88v7Zm-1.31-7.27a3.57,3.57,0,0,0,2.64-.83,3.91,3.91,0,0,0,.81-2.79,4.89,4.89,0,0,0-.71-2.86,3,3,0,0,0-2.57-1,3.24,3.24,0,0,0-.45,0l-.39,0v7.4Z"/><path class="cls-1" d="M149.41,77.34a6.69,6.69,0,0,1-1.06.09,2.72,2.72,0,0,1-1.62-.39,1.6,1.6,0,0,1-.65-1.07h0a2.1,2.1,0,0,1-.95,1.16,4,4,0,0,1-1.74.3,5.51,5.51,0,0,1-1-.11,3.56,3.56,0,0,1-1-.34,2,2,0,0,1-.73-.65,1.77,1.77,0,0,1-.28-1,2,2,0,0,1,.25-1,2.17,2.17,0,0,1,.64-.71,3.48,3.48,0,0,1,.9-.47l1-.36c.59-.17,1.06-.31,1.43-.44a3.74,3.74,0,0,0,.84-.38,1.2,1.2,0,0,0,.42-.46,1.61,1.61,0,0,0,.12-.67V69.47a2,2,0,0,0-.28-1,1.11,1.11,0,0,0-1-.47,1.62,1.62,0,0,0-.86.23.89.89,0,0,0-.36.82,1.22,1.22,0,0,0,0,.23c0,.1,0,.22,0,.35s0,.25,0,.37a1.58,1.58,0,0,1,0,.23.79.79,0,0,1-.15.51A.83.83,0,0,1,143,71a1.23,1.23,0,0,1-.43.1h-.37a3.25,3.25,0,0,1-.44,0,.92.92,0,0,1-.4-.15,1,1,0,0,1-.29-.33A1.22,1.22,0,0,1,141,70a1.68,1.68,0,0,1,.32-1,2.42,2.42,0,0,1,.82-.73,4.38,4.38,0,0,1,1.17-.44,6.1,6.1,0,0,1,1.36-.15,8.16,8.16,0,0,1,1.53.13,3.22,3.22,0,0,1,1.25.47,2.52,2.52,0,0,1,.84.93,3.29,3.29,0,0,1,.31,1.49V76a2.22,2.22,0,0,0,.11.72c.08.21.28.31.59.31a1,1,0,0,0,.47-.1,2.33,2.33,0,0,0,.35-.3l.19.19A1.18,1.18,0,0,1,149.41,77.34Zm-3.5-5.51a.76.76,0,0,1-.16.25,1.69,1.69,0,0,1-.42.27l-.82.37a3.22,3.22,0,0,0-.73.46,2.24,2.24,0,0,0-.52.69,2.28,2.28,0,0,0-.21,1c0,.17,0,.37,0,.6a2.28,2.28,0,0,0,.17.67,1.37,1.37,0,0,0,.42.54,1.18,1.18,0,0,0,.77.23,1.23,1.23,0,0,0,.55-.13,1.49,1.49,0,0,0,.48-.4,2,2,0,0,0,.34-.7,3.73,3.73,0,0,0,.13-1.07V71.83Z"/><path class="cls-1" d="M154.47,68v1.8h0a4.53,4.53,0,0,1,1-1.4,2.46,2.46,0,0,1,1.73-.59,2.18,2.18,0,0,1,1.46.48,1.68,1.68,0,0,1,.55,1.34,1.49,1.49,0,0,1-.31,1,1.23,1.23,0,0,1-1,.36,1.92,1.92,0,0,1-.9-.2.76.76,0,0,1-.41-.76s0-.12,0-.23,0-.22.05-.34,0-.23.06-.33,0-.16,0-.17a1,1,0,0,0-.07-.27.32.32,0,0,0-.14-.17.44.44,0,0,0-.28-.08,1.09,1.09,0,0,0-.54.2,2.23,2.23,0,0,0-.6.59,3.6,3.6,0,0,0-.48.94,3.37,3.37,0,0,0-.21,1.23v5.49h1.7v.3H150.5v-.3h1.4v-8.6h-1.4V68Z"/><path class="cls-1" d="M160.56,68c0-.47,0-1,0-1.46a10,10,0,0,1,.14-1.46,6,6,0,0,1,.37-1.34,3.45,3.45,0,0,1,.73-1.11,3.17,3.17,0,0,1,1.2-.76,5,5,0,0,1,1.8-.28,4,4,0,0,1,1,.12,2.85,2.85,0,0,1,.86.36,2,2,0,0,1,.62.64,2,2,0,0,1,.23,1,1.08,1.08,0,0,1-.36.83,1.21,1.21,0,0,1-.86.35,1,1,0,0,1-1.13-1.1,1.49,1.49,0,0,1,0-.22l.06-.34c0-.13,0-.24.06-.34s0-.17,0-.21A.64.64,0,0,0,165,62a1.18,1.18,0,0,0-.65-.18,1,1,0,0,0-.7.22,1.19,1.19,0,0,0-.37.61,4.52,4.52,0,0,0-.13.89c0,.34,0,.69,0,1.07V68H165v.3h-1.78v8.6h1.65v.3h-5.68v-.3h1.42v-8.6h-1.42V68Z"/><path class="cls-1" d="M169.4,68v6.8a2.71,2.71,0,0,0,.32,1.38,1.18,1.18,0,0,0,1.13.57,1.89,1.89,0,0,0,.91-.23,2.21,2.21,0,0,0,.69-.64,2.69,2.69,0,0,0,.45-.93,3.79,3.79,0,0,0,.16-1.12V68.25h-1.41V68h4v8.9h1.42v.3h-4V75.41h-.05a2.22,2.22,0,0,1-.51.83,3.25,3.25,0,0,1-.78.6,3.61,3.61,0,0,1-.94.37,4.64,4.64,0,0,1-1,.11,3.52,3.52,0,0,1-2.3-.65,2.74,2.74,0,0,1-.79-2.22v-6.2h-1.44V68Z"/><path class="cls-1" d="M181.57,68v1.52h0A6,6,0,0,1,182,69a3,3,0,0,1,.56-.56,3.67,3.67,0,0,1,.86-.46,3.4,3.4,0,0,1,1.22-.19,4.13,4.13,0,0,1,1.25.16,2.74,2.74,0,0,1,.84.41,2.08,2.08,0,0,1,.53.54c.14.2.26.4.38.6a3.08,3.08,0,0,1,.72-.91,3.36,3.36,0,0,1,.8-.51,3.22,3.22,0,0,1,.77-.24,5.51,5.51,0,0,1,.6,0,4,4,0,0,1,1.89.36,2.52,2.52,0,0,1,1,.87,2.6,2.6,0,0,1,.35,1.06c0,.37.05.69.05,1v5.85h1.42v.3h-5.3v-.3h1.27V70.2a2.34,2.34,0,0,0-.34-1.38,1.23,1.23,0,0,0-1.1-.48,1.62,1.62,0,0,0-.58.13,2.21,2.21,0,0,0-.66.38,2.11,2.11,0,0,0-.78,1.67v6.33H189v.3h-5.17v-.3h1.29V70a1.75,1.75,0,0,0-.41-1.32,1.29,1.29,0,0,0-.9-.37,1.93,1.93,0,0,0-1.5.75,2.45,2.45,0,0,0-.3.44,2,2,0,0,0-.21.51,4,4,0,0,0-.1.67c0,.25,0,.55,0,.91v5.23h1.27v.3h-5.3v-.3H179v-8.6h-1.42V68Z"/><path class="cls-1" d="M195.88,74c.17.4.35.79.53,1.16a4.92,4.92,0,0,0,.63,1,2.87,2.87,0,0,0,.88.69,2.67,2.67,0,0,0,1.26.27l.52,0a1.5,1.5,0,0,0,.63-.18,1.42,1.42,0,0,0,.54-.5,1.67,1.67,0,0,0,.22-1,1.9,1.9,0,0,0-.05-.4,1.14,1.14,0,0,0-.23-.41,1.66,1.66,0,0,0-.5-.42,5,5,0,0,0-.91-.42l-1.74-.64a6.83,6.83,0,0,1-.64-.29,3,3,0,0,1-.64-.49,2.66,2.66,0,0,1-.48-.72,2.3,2.3,0,0,1-.19-1,2.79,2.79,0,0,1,.26-1.18,3,3,0,0,1,.72-1,3.21,3.21,0,0,1,1.11-.66,3.91,3.91,0,0,1,1.43-.25,3.1,3.1,0,0,1,.76.09,4.9,4.9,0,0,1,.64.18l.52.18a1,1,0,0,0,.35.09q.24,0,.3-.09a1.18,1.18,0,0,0,.11-.19h.3v2.61h-.28c-.14-.34-.29-.67-.44-1a3.5,3.5,0,0,0-.54-.83,2.28,2.28,0,0,0-.76-.56,2.79,2.79,0,0,0-1.11-.2,2.36,2.36,0,0,0-1.3.38,1.22,1.22,0,0,0-.59,1.1,1.42,1.42,0,0,0,0,.34.94.94,0,0,0,.2.4,1.51,1.51,0,0,0,.47.41,4.29,4.29,0,0,0,.85.39l1.83.63a4.23,4.23,0,0,1,1.76,1.07,2.43,2.43,0,0,1,.6,1.69,2.69,2.69,0,0,1-.31,1.28,3,3,0,0,1-.82,1,3.74,3.74,0,0,1-1.17.62,4.51,4.51,0,0,1-1.37.21,4.3,4.3,0,0,1-.84-.09,7.88,7.88,0,0,1-.87-.2c-.27-.08-.53-.15-.76-.2a2.15,2.15,0,0,0-.53-.09.34.34,0,0,0-.25.07.53.53,0,0,0-.14.23h-.3V74Z"/></g></g></svg>