<svg xmlns="http://www.w3.org/2000/svg" viewBox="0 0 175 103.4"><defs><style>.cls-1{fill:#1d1d1b;}</style></defs><g id="Layer_2" data-name="Layer 2"><g id="Capa_1" data-name="Capa 1"><path class="cls-1" d="M73.26,34.12l5.32-2.69a16.86,16.86,0,0,1,15.16,0l5.32,2.69a14.53,14.53,0,0,0,8.07,1.47,6.35,6.35,0,0,0,5.57-5.54,26.39,26.39,0,0,0,.22-3.47,27.12,27.12,0,0,0-.45-4.89,16.92,16.92,0,0,1-8,2.08,18.07,18.07,0,0,1-6.3-1.18L98,22.54l-5.32-2.69a14.57,14.57,0,0,0-13.12,0l-5.32,2.69a15,15,0,0,1-6.48,1.51A15.85,15.85,0,0,1,60.17,22a26.77,26.77,0,0,0-.41,4.6A25.44,25.44,0,0,0,60,30.09a6.4,6.4,0,0,0,6,5.57,14.56,14.56,0,0,0,7.22-1.54"/><path class="cls-1" d="M73.26,18.54l5.32-2.68a16.86,16.86,0,0,1,15.16,0l5.32,2.68a14.56,14.56,0,0,0,12.69.2,26.59,26.59,0,0,0-50.85.15,14.57,14.57,0,0,0,12.36-.35"/><path class="cls-1" d="M104.45,39.34a17.85,17.85,0,0,1-6.3-1.18l-.11,0-5.32-2.69a14.64,14.64,0,0,0-13.12,0l-5.32,2.69a14.66,14.66,0,0,1-11.59.59,26.58,26.58,0,0,0,47.52-.41,16.43,16.43,0,0,1-5.76,1.05"/><polygon class="cls-1" points="19.29 103.07 16.29 103.07 16.29 89.91 3 89.91 3 103.07 0 103.07 0 74.69 3 74.69 3 87.19 16.29 87.19 16.29 74.69 19.29 74.69 19.29 103.07"/><rect class="cls-1" x="25.4" y="74.69" width="3" height="28.38"/><path class="cls-1" d="M44.18,74.69a9.79,9.79,0,0,1,7.18,2.61Q54,79.91,54,85.55v6.66q0,5.64-2.65,8.25a9.79,9.79,0,0,1-7.18,2.61h-9.7V74.69ZM51,92.38V85.67c0-2.88-.58-5-1.75-6.29a6.3,6.3,0,0,0-5-2h-6.7v23h6.7q6.75,0,6.75-8"/><path class="cls-1" d="M62.44,90.61v12.46h-3V74.69H70a8.94,8.94,0,0,1,6.27,2.08,7.57,7.57,0,0,1,2.28,5.9,7.71,7.71,0,0,1-1.6,5,7.8,7.8,0,0,1-4.49,2.63l6.71,12.75H75.68L69.27,90.61ZM69.72,88A6.15,6.15,0,0,0,74,86.64a5.92,5.92,0,0,0,0-7.9,6.27,6.27,0,0,0-4.3-1.34H62.44V88Z"/><path class="cls-1" d="M83.23,92.54V85.18c0-3.76.9-6.51,2.68-8.25a9.86,9.86,0,0,1,7.2-2.61,9.73,9.73,0,0,1,7.13,2.61q2.66,2.61,2.66,8.25v7.36c0,3.76-.9,6.51-2.68,8.25a9.81,9.81,0,0,1-7.16,2.61,9.78,9.78,0,0,1-7.17-2.61q-2.65-2.61-2.66-8.25M99.89,85.3q0-8.26-6.78-8.27A6.54,6.54,0,0,0,88,79c-1.15,1.3-1.72,3.41-1.72,6.31v7.41q0,4.16,1.74,6a6.66,6.66,0,0,0,5.13,1.9q6.78,0,6.78-7.94Z"/><path class="cls-1" d="M118,74.69a10.33,10.33,0,0,1,7.47,2.63c1.82,1.76,2.74,4.64,2.74,8.64v5.8c0,4-.94,6.89-2.8,8.66a10.55,10.55,0,0,1-7.57,2.65H108V74.69Zm3.6,22.09a8.43,8.43,0,0,0,1.22-5.06V86.25q0-3.61-1.2-5.25a4.23,4.23,0,0,0-3.66-1.62h-4.56v19h4.56a4.27,4.27,0,0,0,3.64-1.6"/><path class="cls-1" d="M137,97.56l-1.72,5.51h-5.68L139.7,74.69h4.4l10.12,28.38H148.5l-1.73-5.51Zm4.86-15.38-3.42,10.9h6.87Z"/><polygon class="cls-1" points="162.57 74.69 162.57 98.38 175 98.38 175 103.07 157.19 103.07 157.19 74.69 162.57 74.69"/></g></g></svg>