<svg xmlns="http://www.w3.org/2000/svg" viewBox="0 0 294.12 102.74"><defs><style>.cls-1{fill:#2d2a26;}</style></defs><g id="Layer_2" data-name="Layer 2"><g id="Capa_1" data-name="Capa 1"><path class="cls-1" d="M97.44,9.43c.22,0,.29.06.22.29a2.79,2.79,0,0,1-.8.95q-.66.55-1.32,1.14c-.74.66-1.5,1.31-2.27,1.93a16,16,0,0,1-2.33,1.59,5.8,5.8,0,0,1-1,.47,1.65,1.65,0,0,1-1.26,0,.49.49,0,0,1-.21-.24.74.74,0,0,1,0-.3,4.08,4.08,0,0,1,.11-.55c.06-.2.13-.43.22-.67.37-1,.86-2.16,1.45-3.45.44-1,.83-1.89,1.18-2.74a9,9,0,0,0,.6-2,.57.57,0,0,1,0-.14l.06-.09a2.36,2.36,0,0,0-.32.2,16.16,16.16,0,0,0-2.19,1.84c-.83.8-1.66,1.64-2.5,2.51q-1.71,1.78-3,2.91a7.75,7.75,0,0,1-.77.58,2.54,2.54,0,0,1-1.15.43,1,1,0,0,1-.63-.09.43.43,0,0,1-.2-.22.79.79,0,0,1-.09-.4,2.6,2.6,0,0,1,0-.53,14,14,0,0,1,.55-2.13c.27-.85.57-1.75.91-2.69a39.28,39.28,0,0,0,1.38-4.43c.15-.67.18-1,.1-1.08s-.5.25-1.06.78-1.22,1.24-2,2.12c-.55.6-1.11,1.25-1.68,1.93l0,.09a42.91,42.91,0,0,1-3.12,4.8,42.93,42.93,0,0,1-2.82,3.51,6.9,6.9,0,0,1-.83.83,1.16,1.16,0,0,1-1.29.25c-.12-.07-.14-.18-.07-.35a6.63,6.63,0,0,1,.62-1q2.63-3.75,6.18-8.12a18,18,0,0,0,1.27-2.85,4.52,4.52,0,0,0,.25-2.24,1.46,1.46,0,0,0-1.15-1.07,6.16,6.16,0,0,0-2.49,0,15.88,15.88,0,0,0-3.18,1,12.72,12.72,0,0,0-2.87,1.63,2.84,2.84,0,0,0-1.26,1.8,1.25,1.25,0,0,0,.56,1.06,5.18,5.18,0,0,0,1.69.76l.12,0,.16,0h0l.11,0a0,0,0,0,1,0,0c0,.05,0,.12,0,.2a.91.91,0,0,1-.24.24,1.63,1.63,0,0,1-.52.22,1.18,1.18,0,0,1-.53,0,6,6,0,0,1-2.16-.93A1.59,1.59,0,0,1,67.17,6,3.49,3.49,0,0,1,68.7,3.77a15,15,0,0,1,3.47-2A19.6,19.6,0,0,1,76.05.59a8.22,8.22,0,0,1,3.46,0A1.94,1.94,0,0,1,81.07,2a4.8,4.8,0,0,1-.26,2.43,13.31,13.31,0,0,1,2.42-2,2.82,2.82,0,0,1,2-.55.57.57,0,0,1,.46.49,2.73,2.73,0,0,1-.05,1.08,40.19,40.19,0,0,1-1.41,4.48c-.32.93-.62,1.82-.89,2.66a13.78,13.78,0,0,0-.54,2.09,2,2,0,0,0,0,.46l.16-.14c.8-.7,1.76-1.64,2.89-2.83.86-.89,1.72-1.76,2.59-2.59a18.16,18.16,0,0,1,2.36-2,4.81,4.81,0,0,1,.93-.51,2.54,2.54,0,0,1,1.23-.21c.44.05.62.31.57.77a9.45,9.45,0,0,1-.63,2.05q-.52,1.3-1.2,2.79c-.59,1.29-1.06,2.43-1.44,3.42-.08.23-.14.44-.2.63s0,.14,0,.19a.77.77,0,0,0,0,.15,0,0,0,0,0,0,0,18.87,18.87,0,0,0,3.41-2.11,41.57,41.57,0,0,0,3.19-2.69A2.33,2.33,0,0,1,97.44,9.43Z"/><path class="cls-1" d="M98.66,12.65a2,2,0,0,1-1.36-.5,1.71,1.71,0,0,1-.54-1.33,2.27,2.27,0,0,1,.6-1.48A2.91,2.91,0,0,1,97.82,9a1.21,1.21,0,0,1,.56-.19,2.75,2.75,0,0,1,.69.08,2.67,2.67,0,0,1,.78.28.57.57,0,0,1,.37.48.82.82,0,0,1-.34.6,3.16,3.16,0,0,1-.76.47,8.09,8.09,0,0,1-.85.35l-.39.15a.82.82,0,0,0,.27.61,1.06,1.06,0,0,0,.62.19,3.85,3.85,0,0,0,1.7-.46,12.39,12.39,0,0,0,1.62-1c.48-.35.8-.6,1-.75s.43-.29.5-.22,0,.11,0,.22a1.05,1.05,0,0,1-.24.37A12.66,12.66,0,0,1,102,11.36a7.47,7.47,0,0,1-1.57.91A5.05,5.05,0,0,1,98.66,12.65Zm.15-2.47c.29-.22.42-.41.42-.57a.28.28,0,0,0-.14-.1.61.61,0,0,0-.24-.07.4.4,0,0,0-.19,0l-.07.05-.06,0a2.32,2.32,0,0,0-.63,1.19A5.38,5.38,0,0,0,98.81,10.18Z"/><path class="cls-1" d="M104,12.89a.46.46,0,0,1-.22,0,2.4,2.4,0,0,1-.38-.1,1.49,1.49,0,0,1-.36-.17.34.34,0,0,1-.17-.23,2.12,2.12,0,0,1,.15-.6c.1-.31.23-.66.38-1.06s.29-.77.43-1.12.21-.55.27-.73a.5.5,0,0,1,.52-.25,1.6,1.6,0,0,1,.65.15c.08,0,.12.08.11.13a.23.23,0,0,1-.08.13l-.08.11c-.16.39-.3.77-.43,1.14a5.17,5.17,0,0,1,.66-.79c.22-.19.41-.24.57-.14l.94.63c.33.21.61.37.83.48a.83.83,0,0,1-.23.43.41.41,0,0,1-.34.15,1.8,1.8,0,0,1-.54-.29c-.18-.14-.36-.28-.52-.42s-.26-.22-.35-.29-.24.15-.47.44a11.93,11.93,0,0,0-.7,1,6.87,6.87,0,0,0-.51,1A1.21,1.21,0,0,1,104,12.89Z"/><path class="cls-1" d="M111.19,9.2c.11.1.16.16.15.2s0,.07-.13.07l-.29,0h-.27l-.21,0a1.44,1.44,0,0,0-.63.32,2.48,2.48,0,0,0-.57.64,1.11,1.11,0,0,0-.21.7c0,.22.17.39.46.51a2.58,2.58,0,0,0,1.66-.09,7.55,7.55,0,0,0,1.65-.84c.52-.35.94-.65,1.25-.91l.12-.08c.28-.2.46-.27.54-.2s.06.11,0,.22a1.51,1.51,0,0,1-.25.37,11.24,11.24,0,0,1-1.72,1.48,5.9,5.9,0,0,1-2,.92,3.91,3.91,0,0,1-2.23-.18,1.17,1.17,0,0,1-.82-.88,1.89,1.89,0,0,1,.24-1.15,3.87,3.87,0,0,1,.79-1,1.9,1.9,0,0,1,.84-.51,3.06,3.06,0,0,1,.86.07A2.2,2.2,0,0,1,111.19,9.2Z"/><path class="cls-1" d="M116,8.63a.67.67,0,0,1,.34,0,3.69,3.69,0,0,1,.46.08,2.7,2.7,0,0,1,.37.12c.1,0,.13.07.09.1a4.76,4.76,0,0,0-1.25.95,4.28,4.28,0,0,0-.74,1,1,1,0,0,0-.1.62.25.25,0,0,0,.3.16,2.77,2.77,0,0,0,1.06-.67c.4-.37.73-.7,1-1l.19-.2a.35.35,0,0,1,.35,0,1.56,1.56,0,0,1,.43.21.84.84,0,0,1,.25.21.87.87,0,0,0-.09.21.75.75,0,0,0,0,.3.4.4,0,0,0,.09.27s.19,0,.44-.12.52-.26.83-.43.61-.34.87-.5l.51-.32a.38.38,0,0,1,.29-.1c.08,0,.1.09.07.22a1.9,1.9,0,0,1-.43.44c-.25.22-.55.45-.9.71s-.68.49-1,.69a2.31,2.31,0,0,1-.68.33.84.84,0,0,1-.38-.06,2.12,2.12,0,0,1-.37-.18,3.33,3.33,0,0,1-.4-.28,8,8,0,0,1-1,.73,3.74,3.74,0,0,1-1.06.52,1.88,1.88,0,0,1-.74-.06,1.75,1.75,0,0,1-.66-.36.79.79,0,0,1-.27-.59,2.35,2.35,0,0,1,.3-1.12A4.3,4.3,0,0,1,115,9.41,4.25,4.25,0,0,1,116,8.63Z"/><path class="cls-1" d="M124.42,9.92h0a21.66,21.66,0,0,1,.31-2.48,22.49,22.49,0,0,1,.7-2.86,9.81,9.81,0,0,1,1.06-2.41,2.17,2.17,0,0,1,1.42-1.12,1.07,1.07,0,0,1,1,.33,1.3,1.3,0,0,1,.22,1.14,23.18,23.18,0,0,1-1.32,3.92c-.62,1.42-1.25,2.73-1.92,3.94a2,2,0,0,0,.89-.08,4.4,4.4,0,0,0,.86-.34,3,3,0,0,0,.56-.37c.15-.11.26-.13.32-.07s0,.17-.08.32a3.49,3.49,0,0,1-.81.62,5.56,5.56,0,0,1-1.1.52,2.49,2.49,0,0,1-1.09.13,7.57,7.57,0,0,1-1.21,1.25,3.73,3.73,0,0,1-1.36.74,1.48,1.48,0,0,1-1.34-.29,1.43,1.43,0,0,1-.47-1.28,3.6,3.6,0,0,1,.43-1.21,2.52,2.52,0,0,1,.78-.9,1,1,0,0,1,.74-.07,3.61,3.61,0,0,1,.86.28A4.69,4.69,0,0,1,124.42,9.92Zm-1,1.56a9.62,9.62,0,0,0,.89-1,3.11,3.11,0,0,0-.63-.2.71.71,0,0,0-.59.09,2.42,2.42,0,0,0-.44.59,5.16,5.16,0,0,0-.38.79c-.1.25-.12.41-.06.49s.19,0,.4-.06A4.92,4.92,0,0,0,123.46,11.48Zm4.14-9.55c-.18-.05-.4.17-.65.64a12.07,12.07,0,0,0-.78,1.89c-.26.78-.49,1.58-.69,2.42a17.75,17.75,0,0,0-.4,2.28,34.59,34.59,0,0,0,1.7-3.82l0-.1c.06-.17.16-.42.28-.76s.24-.69.36-1.07a7.06,7.06,0,0,0,.23-1C127.73,2.15,127.7,2,127.6,1.93Z"/><path class="cls-1" d="M129.73,12.65a2,2,0,0,1-1.36-.5,1.74,1.74,0,0,1-.53-1.33,2.27,2.27,0,0,1,.6-1.48A2.22,2.22,0,0,1,128.9,9a1.17,1.17,0,0,1,.56-.19,2.84,2.84,0,0,1,.69.08,2.9,2.9,0,0,1,.78.28.57.57,0,0,1,.36.48.84.84,0,0,1-.33.6,3.23,3.23,0,0,1-.77.47,8.09,8.09,0,0,1-.85.35l-.38.15a.75.75,0,0,0,.27.61,1,1,0,0,0,.61.19,3.81,3.81,0,0,0,1.7-.46,12.39,12.39,0,0,0,1.62-1c.48-.35.8-.6,1-.75s.43-.29.49-.22.05.11,0,.22a1.27,1.27,0,0,1-.25.37,12.66,12.66,0,0,1-1.32,1.19,7.22,7.22,0,0,1-1.57.91A5.05,5.05,0,0,1,129.73,12.65Zm.15-2.47q.44-.33.42-.57a.24.24,0,0,0-.13-.1.73.73,0,0,0-.24-.07.39.39,0,0,0-.19,0l-.08.05-.06,0a2.32,2.32,0,0,0-.63,1.19A5,5,0,0,0,129.88,10.18Z"/><path class="cls-1" d="M135,12.89a.47.47,0,0,1-.22,0,2.06,2.06,0,0,1-.37-.1,1.2,1.2,0,0,1-.36-.17.35.35,0,0,1-.18-.23,2.57,2.57,0,0,1,.15-.6c.1-.31.23-.66.38-1.06s.29-.77.43-1.12l.28-.73a.49.49,0,0,1,.51-.25,1.6,1.6,0,0,1,.65.15c.09,0,.12.08.12.13a.26.26,0,0,1-.09.13l-.07.11c-.17.39-.31.77-.43,1.14a4.23,4.23,0,0,1,.66-.79c.22-.19.4-.24.56-.14L138,10c.34.21.61.37.83.48a.83.83,0,0,1-.23.43.4.4,0,0,1-.34.15,1.65,1.65,0,0,1-.53-.29c-.19-.14-.37-.28-.53-.42s-.26-.22-.35-.29-.24.15-.47.44a10,10,0,0,0-.69,1,6.16,6.16,0,0,0-.52,1A1.21,1.21,0,0,1,135,12.89Z"/><path class="cls-1" d="M145,6.7a.79.79,0,0,1,.33.27c0,.08,0,.13-.07.16a1.21,1.21,0,0,1-.43,0A6.55,6.55,0,0,1,142.43,6a1.74,1.74,0,0,1-.74-1.27,1.63,1.63,0,0,1,.11-.64,5.9,5.9,0,0,1,2.94-2.66A13.24,13.24,0,0,1,150,0a9.92,9.92,0,0,1,3.89.59,7.5,7.5,0,0,1,2.53,1.54,7.42,7.42,0,0,1,1.66,2.26,7.52,7.52,0,0,1,.47,5.16.19.19,0,0,0,0,.07,37.3,37.3,0,0,1,5-.5H164c.2,0,.3.08.29.18s-.12.15-.35.17a32.24,32.24,0,0,0-5.71.82A11.35,11.35,0,0,1,155,14.11a17.5,17.5,0,0,1-6.17,3.24,9.21,9.21,0,0,1-1.42.25,6.16,6.16,0,0,1-1.36,0,5.43,5.43,0,0,1-1.82-.57,3.46,3.46,0,0,1-1.14-.94,1.74,1.74,0,0,1-.11-.18,1.07,1.07,0,0,1,0-1,2.74,2.74,0,0,1,.86-.94,8.83,8.83,0,0,1,.78-.5c.3-.16.61-.32.93-.47.29-1,.6-2,.92-2.9A58,58,0,0,1,148.9,4a.35.35,0,0,1,.37-.13,2.4,2.4,0,0,1,.6.15,1.78,1.78,0,0,1,.48.26.17.17,0,0,1,.05.17.75.75,0,0,1-.1.17.24.24,0,0,0-.06.09,49.88,49.88,0,0,0-3,7.64c.69-.25,1.38-.47,2.07-.67a73.47,73.47,0,0,1,7.45-1.71,5.21,5.21,0,0,0,.36-.91,7.37,7.37,0,0,0-.45-5,6.63,6.63,0,0,0-1.22-1.8,4.36,4.36,0,0,0-1.62-1.11,7.12,7.12,0,0,0-2.76-.35,12.54,12.54,0,0,0-5,1.35,5.78,5.78,0,0,0-2.85,2.56,1.56,1.56,0,0,0-.1.59,1.12,1.12,0,0,0,.46.87,2.42,2.42,0,0,0,.89.39A2.18,2.18,0,0,1,145,6.7Zm0,8a2.34,2.34,0,0,0-.65.77.85.85,0,0,0,0,.82l.08.12.08.1C144.7,15.91,144.87,15.3,145,14.69Zm8.63-1.21a13.32,13.32,0,0,0,2.61-2.73q-3.42.83-6.61,1.83a24.86,24.86,0,0,0-2.83,1.07c-.3,1.06-.58,2.15-.83,3.27l.31,0a8.71,8.71,0,0,0,1.31-.24A17,17,0,0,0,153.66,13.48Z"/><path class="cls-1" d="M165.36,12.65a2,2,0,0,1-1.36-.5,1.71,1.71,0,0,1-.54-1.33,2.27,2.27,0,0,1,.6-1.48,2.52,2.52,0,0,1,.46-.38,1.21,1.21,0,0,1,.56-.19,2.75,2.75,0,0,1,.69.08,2.67,2.67,0,0,1,.78.28.59.59,0,0,1,.37.48.85.85,0,0,1-.34.6,3,3,0,0,1-.77.47A7.18,7.18,0,0,1,165,11l-.39.15a.78.78,0,0,0,.27.61,1,1,0,0,0,.62.19,3.85,3.85,0,0,0,1.7-.46,12.25,12.25,0,0,0,1.61-1c.48-.35.81-.6,1-.75s.43-.29.5-.22.05.11,0,.22a1.22,1.22,0,0,1-.24.37,11.83,11.83,0,0,1-1.33,1.19,7.15,7.15,0,0,1-1.56.91A5.05,5.05,0,0,1,165.36,12.65Zm.14-2.47c.29-.22.43-.41.43-.57a.28.28,0,0,0-.14-.1.61.61,0,0,0-.24-.07.4.4,0,0,0-.19,0l-.07.05-.06,0a2.32,2.32,0,0,0-.63,1.19A5.3,5.3,0,0,0,165.5,10.18Z"/><path class="cls-1" d="M172.76,9.48l.05-.06a1.71,1.71,0,0,1,.76-.51,3.29,3.29,0,0,1,1.2-.14,19,19,0,0,1,2,.22c.77.13,1.55.27,2.32.42,1.38.27,2.76.48,4.15.62l1,.08q.63-.69,1.26-1.41c.93-1.07,1.86-2.16,2.76-3.27L189.49,4c.6-.7,1.18-1.4,1.75-2.1l.15-.33a0,0,0,0,1,0,0h.2a2.62,2.62,0,0,1,.48.13l.24.1a.81.81,0,0,1,.23.17.18.18,0,0,1,.06.21c0,.1-.09.2-.13.31l-.25.6c-.23.58-.45,1.16-.67,1.75-.63,1.7-1.22,3.47-1.75,5.28a17.1,17.1,0,0,0,1.88-.3,11.46,11.46,0,0,0,1.82-.52l.17,0a.62.62,0,0,1,.18,0h.06s0,0,0,0a.08.08,0,0,1,0,.07s0,0,0,.06a.66.66,0,0,1-.23.17l-1,.35a18.1,18.1,0,0,1-3.08.71c-.1.35-.19.71-.28,1.07s-.25,1.05-.41,1.81a15,15,0,0,0-.27,2.29,3,3,0,0,0,.34,1.74v0l0,0s0,0,0,0l.17.15,0,0,0,0v0h-.09a1.39,1.39,0,0,1-.33-.05l-.32-.1-.31-.17a1.55,1.55,0,0,1-.69-.88,6.14,6.14,0,0,1-.06-2.51,27.09,27.09,0,0,1,.69-3.38c-.76.05-1.52.07-2.28.05h-.59c-.39.43-.79.85-1.19,1.27-.78.82-1.58,1.6-2.42,2.35a19.23,19.23,0,0,1-2.67,2,2.69,2.69,0,0,1-1.71.35,5.14,5.14,0,0,1-2.49-1.07l-.2-.17a7.15,7.15,0,0,1-2.06-3.12,4.85,4.85,0,0,1-.26-1.64A2.18,2.18,0,0,1,172.76,9.48Zm7.71,4.42c.84-.75,1.65-1.53,2.43-2.35.28-.29.55-.57.82-.87-1.35-.12-2.69-.31-4-.56l-.14,0c-.68-.14-1.36-.26-2.05-.37l-1-.14-.84-.07a2.51,2.51,0,0,0-.94.12,1.69,1.69,0,0,0-.72.49l0,0,0,0a2.08,2.08,0,0,0-.4,1.32,5.2,5.2,0,0,0,.28,1.4,6.59,6.59,0,0,0,1.86,2.88l.14.12a1.84,1.84,0,0,0,.31.2,1.21,1.21,0,0,0,.35.12,2,2,0,0,0,1.28-.32,19.26,19.26,0,0,0,2.66-2Zm7.9-3.72q.76-2.68,1.47-4.62l-.33.39c-.9,1.1-1.81,2.18-2.75,3.25-.29.34-.58.67-.88,1C186.71,10.23,187.54,10.23,188.37,10.18Z"/><path class="cls-1" d="M193.65,12.89a.47.47,0,0,1-.22,0,2.31,2.31,0,0,1-.37-.1,1.2,1.2,0,0,1-.36-.17.35.35,0,0,1-.18-.23,2.57,2.57,0,0,1,.15-.6c.11-.31.23-.66.38-1.06s.3-.77.43-1.12l.28-.73a.49.49,0,0,1,.51-.25,1.6,1.6,0,0,1,.65.15c.09,0,.13.08.12.13A.31.31,0,0,1,195,9a.76.76,0,0,0-.08.11c-.17.39-.31.77-.43,1.14a4.23,4.23,0,0,1,.66-.79c.22-.19.4-.24.56-.14l.94.63c.34.21.61.37.83.48a.76.76,0,0,1-.23.43.39.39,0,0,1-.34.15,1.88,1.88,0,0,1-.53-.29c-.19-.14-.37-.28-.53-.42s-.26-.22-.35-.29-.24.15-.47.44a12,12,0,0,0-.69,1,6.16,6.16,0,0,0-.52,1C193.72,12.75,193.68,12.88,193.65,12.89Z"/><path class="cls-1" d="M201.21,11.34l-.07.12a6.19,6.19,0,0,1-.58.67l-.21.17a2.07,2.07,0,0,1-1.14.47,1.76,1.76,0,0,1-1.42-.57l-.09-.1h0a1.52,1.52,0,0,1-.29-.63,2.09,2.09,0,0,1,0-.67,2.14,2.14,0,0,1,.63-1.3,3.54,3.54,0,0,1,1.44-.87.54.54,0,0,1,.33,0,1,1,0,0,1,.36.19,1,1,0,0,1,.63-.09,1.24,1.24,0,0,1,.58.24,1,1,0,0,1,.43.6,1.48,1.48,0,0,1-.07.71,3.12,3.12,0,0,1-.15.39,5.74,5.74,0,0,0,1.37-.57,7.09,7.09,0,0,0,.91-.6q.19-.15.27-.06c0,.06,0,.16-.08.31a4.57,4.57,0,0,1-1.13,1A4.28,4.28,0,0,1,201.21,11.34Zm-2.27-1.24a1.91,1.91,0,0,0-.53,1.1,1.46,1.46,0,0,0,0,.52.63.63,0,0,0,.09.25.52.52,0,0,0,.18.18.82.82,0,0,0,.72-.07,1.7,1.7,0,0,0,.68-.81l-.26-.15a1.68,1.68,0,0,1-.26-.17,1.07,1.07,0,0,1-.14-.16,1,1,0,0,1-.17-.76.77.77,0,0,1,.07-.26A2.2,2.2,0,0,0,198.94,10.1Zm1.79,0a1.82,1.82,0,0,0,.15-.61.94.94,0,0,0-.44.3.72.72,0,0,0-.21.45.4.4,0,0,0,.22.38A3.57,3.57,0,0,0,200.73,10.14Z"/><path class="cls-1" d="M206.18,8.18l0,.05-.05.09-.58,1.23c-.23.5-.41.89-.52,1.16a5.45,5.45,0,0,0,.45-.52c.18-.22.37-.45.58-.67a2.91,2.91,0,0,1,.65-.54.93.93,0,0,1,.67-.15,1.1,1.1,0,0,1,.76.54,3.67,3.67,0,0,1,.35,1c.06.22.12.43.19.62.19-.16.41-.37.66-.62a7.13,7.13,0,0,1,.64-.6,1.79,1.79,0,0,1,.65-.39.81.81,0,0,1,.66.07,3,3,0,0,1,.51.46,6.57,6.57,0,0,1,.48.57,7.84,7.84,0,0,0,.61.7.85.85,0,0,0,.58.28,1.71,1.71,0,0,0,.82-.51,9.56,9.56,0,0,0,1-1.2c.12-.14.22-.18.31-.13s.08.16,0,.33A5.89,5.89,0,0,1,214,11.64a1.44,1.44,0,0,1-1.17.23,1.74,1.74,0,0,1-.79-.47,5.06,5.06,0,0,1-.59-.67l-.31-.37a.36.36,0,0,0-.24-.13,1.1,1.1,0,0,0-.37.27c-.17.17-.34.35-.52.56a5.89,5.89,0,0,1-.53.55,1,1,0,0,1-.85.25,1.38,1.38,0,0,1-.72-.54,1.91,1.91,0,0,1-.29-.57c-.08-.21-.14-.43-.2-.65s-.08-.23-.13-.24-.14,0-.27.15a8.41,8.41,0,0,0-.6.6l-.67.78q-.39.46-.66.75a4,4,0,0,1-.31.3.57.57,0,0,1-.22.13.91.91,0,0,1-.57-.14,2.29,2.29,0,0,1-.54-.35.45.45,0,0,1,0-.24c0-.12.05-.25.08-.38s.07-.23.1-.31,0,0,0,0c.13-.38.34-.88.61-1.5s.52-1.14.74-1.59a.31.31,0,0,1,.24-.13,1.36,1.36,0,0,1,.4,0A1.74,1.74,0,0,1,206,8c.1.05.15.09.16.14S206.18,8.17,206.18,8.18Z"/><path class="cls-1" d="M217.09,8.63a.72.72,0,0,1,.35,0,3.54,3.54,0,0,1,.45.08,2.9,2.9,0,0,1,.38.12c.09,0,.12.07.08.1a4.71,4.71,0,0,0-1.24.95,4.1,4.1,0,0,0-.75,1,1,1,0,0,0-.1.62.25.25,0,0,0,.3.16,2.69,2.69,0,0,0,1.06-.67c.4-.37.73-.7,1-1l.19-.2a.37.37,0,0,1,.36,0,1.9,1.9,0,0,1,.43.21.9.9,0,0,1,.24.21.87.87,0,0,0-.09.21,1,1,0,0,0,0,.3.4.4,0,0,0,.09.27c.05,0,.19,0,.44-.12s.52-.26.84-.43l.86-.5.51-.32a.38.38,0,0,1,.29-.1c.08,0,.1.09.07.22a2,2,0,0,1-.42.44c-.26.22-.56.45-.91.71s-.67.49-1,.69a2.31,2.31,0,0,1-.68.33.86.86,0,0,1-.38-.06,2.53,2.53,0,0,1-.37-.18,3.33,3.33,0,0,1-.4-.28,7.08,7.08,0,0,1-1,.73,3.9,3.9,0,0,1-1.07.52,1.88,1.88,0,0,1-.74-.06,1.71,1.71,0,0,1-.65-.36.79.79,0,0,1-.27-.59,2.46,2.46,0,0,1,.29-1.12A4.34,4.34,0,0,1,216,9.41,4.2,4.2,0,0,1,217.09,8.63Z"/><path class="cls-1" d="M225.19,10.93a1,1,0,0,1,.37.63.89.89,0,0,1-.12.54,1.66,1.66,0,0,1-.54.59,2.32,2.32,0,0,1-.9.39,1.25,1.25,0,0,1-.65-.06,1.73,1.73,0,0,1-.63-.34.59.59,0,0,1-.24-.5,1.19,1.19,0,0,1,.31-.47,4.85,4.85,0,0,1,.55-.49h-.16c-.2,0-.43,0-.68-.07a2,2,0,0,1-.59-.16c-.13-.09-.1-.25.06-.49a5,5,0,0,1,.73-.79,10.14,10.14,0,0,1,1-.77,2.94,2.94,0,0,1,.83-.44l.15,0h.15a1.34,1.34,0,0,1,.38.14,1.27,1.27,0,0,1,.31.19c.08.07.13.12.13.17s0,0,0,0l-.12.05-.12,0-.08,0a4.12,4.12,0,0,0-.84.46,9.05,9.05,0,0,0-1.17.95c.39,0,.79.06,1.2.07a12.39,12.39,0,0,1,2.63-.95,1.37,1.37,0,0,1,.71,0c.09.06,0,.12-.14.2l-1,.4A9.7,9.7,0,0,0,225.19,10.93Zm-2,1.5a.38.38,0,0,0,.29.09.6.6,0,0,0,.29-.08,2,2,0,0,0,.48-.38,2.07,2.07,0,0,0,.31-.43.63.63,0,0,0,.08-.34.11.11,0,0,0,0-.06c-.26.16-.51.32-.74.48a3.36,3.36,0,0,0-.54.45Q223.16,12.35,223.2,12.43Z"/><path class="cls-1" d="M27.47,53.29,39,12.6H53.55v2.79c-4.43,0-5.13,2.09-5.13,10.54V53c0,9.22.75,10.33,5.68,10.54v2.79H35.35V63.54c4.94-.21,5.74-1.39,5.74-10V20.83h-.25L27.43,67h-3.7L9.87,20.83h-.2V53c0,9.22.75,10.33,5.69,10.54v2.79H0V63.54c4.94-.21,5.78-1.39,5.78-10v-28c0-7.88-.74-10-5.23-10V12.6H15.66L27.28,53.29Z"/><path class="cls-1" d="M76,54.15H65.37c-1.2,3.76-1.76,6.22-1.76,7.69,0,2.09,1.12,2.4,3.37,2.4v2.09H56.73V64.24C59.12,63.88,60.17,63,61,60l9.84-34.47h2.76l8.94,30.54c2.06,7.06,2.62,7.64,6,8.11v2.14H74.42V64.19c2.39-.16,3.37-.52,3.37-2.2a21.59,21.59,0,0,0-1-4.7ZM66.23,51h8.9l-4.3-15.85h-.15Z"/><path class="cls-1" d="M107.42,47.35l8.67,13.91a5.68,5.68,0,0,0,4.64,3v2.09h-8.86l-9.28-15.9c-1.23-2.09-2.13-2.66-2.92-2.66V58c0,5.18.68,6.22,5.43,6.22v2.09H90.25V64.24c3.29,0,3.93-1,3.93-6V34.11c0-4.86-.45-5.75-3.52-6V26.06H103.6c7.18,0,11.33,3.77,11.33,10.09C114.93,42,112.65,46,107.42,47.35Zm-7.75-2.72h2.44c4.67,0,7-2.41,7-8.22C109.1,32,107,29,103.6,29h-3.25c-.41,0-.68.36-.68.89Z"/><path class="cls-1" d="M144.61,26.06h1.83l-.75,13.23H144.2c-1-6.38-4.26-10.35-8.53-10.35-5.87,0-9.24,6.69-9.24,17.62s3.26,16.84,9.39,16.84c4.94,0,8.3-3.81,9.69-11.24h1.64V66.33H145.4l-.53-4.13a12.8,12.8,0,0,1-10,4.66c-9.09,0-15-7.8-15-20,0-12.66,6.28-21.34,15.41-21.34,3,0,5.49,1.09,8.56,3.76Z"/><path class="cls-1" d="M179.07,57.91c0,5.34.56,6.18,3.93,6.33v2.09H169.27V64.24c3.66-.15,4.3-1,4.3-6V47.35H159.7V57.91c0,5.34.6,6.18,4.26,6.33v2.09H150.27V64.24c3.37-.15,3.93-1,3.93-6V34.11c0-4.86-.49-5.75-3.52-6V26.06h12.91v2.09c-3.37.16-3.89,1.05-3.89,6.33V44.1h13.87v-10c0-4.86-.56-5.75-3.93-6V26.06h12.94v2.09c-3,.16-3.51,1.05-3.51,6.33Z"/><path class="cls-1" d="M204.24,54.15H193.66c-1.2,3.76-1.76,6.22-1.76,7.69,0,2.09,1.12,2.4,3.37,2.4v2.09H185V64.24c2.39-.36,3.44-1.25,4.3-4.23l9.84-34.47h2.76l8.94,30.54c2.06,7.06,2.62,7.64,6,8.11v2.14H202.71V64.19c2.39-.16,3.36-.52,3.36-2.2a21.4,21.4,0,0,0-1-4.7ZM194.52,51h8.9l-4.3-15.85H199Z"/><path class="cls-1" d="M242.38,66.86l-16.57-33h-.15V56.34c0,6.91.56,7.75,3.89,7.9v2.09h-11.1V64.24c3.66-.15,4.29-1,4.29-7.53v-21c0-5.91-.55-7.32-3.92-7.53V26.06h10.43l15.07,30.23h.15V36.05c0-6.9-.56-7.74-3.89-7.9V26.06h11.11v2.09c-3.66.16-4.3,1.05-4.3,7.53V66.86Z"/><path class="cls-1" d="M252.34,66.33V63.54c4.39-.21,5.23-1.32,5.23-7.95V23.35c0-6.49-.64-7.68-4.43-8V12.6h18.95c12.76,0,22,11.73,22,27.77,0,15.29-8.62,26-21,26Zm13.41-49.47c-.55,0-.85.49-.85,1.18V54.12c0,5.38,2.35,8,7.34,8,8.67,0,13.56-7.61,13.56-21.57,0-14.86-5.24-23.65-13.81-23.65Z"/><path class="cls-1" d="M65.8,102.48v-1c2.65-.08,3.12-.5,3.12-3V86.42c0-2.42-.36-2.86-2.6-3v-1h9.12c6.27,0,10.81,4.36,10.81,10.34,0,5.69-4.23,9.67-10.29,9.67Zm6.29-18.74a.4.4,0,0,0-.44.44V98.24c0,2,1.25,3,3.87,3,4.71,0,7.36-2.88,7.36-8.34,0-5.74-2.86-9.12-7.49-9.12Z"/><path class="cls-1" d="M88.82,87.25C90.41,86.05,91,85,91,83.71a1.51,1.51,0,0,1-.78.21,1.34,1.34,0,0,1-1.35-1.43,1.6,1.6,0,0,1,1.77-1.58c1.19,0,1.84.85,1.84,2.44,0,1.77-.72,2.86-3.09,4.6Z"/><path class="cls-1" d="M113.91,95.23H107c-1.2,2.85-1.61,4.29-1.61,5,0,1,.6,1.27,2,1.27v1h-6.31v-1a2.85,2.85,0,0,0,2.83-2.11l6.76-16.91h1.12l5.9,14.65c1.58,3.9,2.15,4.34,3.95,4.34v1h-8.48v-1c1.85,0,2.42-.31,2.42-1.11A5.74,5.74,0,0,0,115,98Zm-6.42-1.3h5.92l-2.88-7.67Z"/><path class="cls-1" d="M134.22,92.78,140,99.7a5.11,5.11,0,0,0,3.57,1.79v1h-5l-6.37-8.16c-.91-1.2-1.43-1.33-3-1.33V98.4c0,2.57.44,3.09,3.59,3.09v1h-9.18v-1c2.45-.08,2.86-.52,2.86-3V86.42c0-2.42-.36-2.86-2.6-3v-1h8.17c4.75,0,7.51,1.87,7.51,5C139.45,90.24,137.86,92.16,134.22,92.78Zm-5.12-1.09H131c3.43,0,5.12-1.19,5.12-4.08s-1.3-3.92-4.13-3.92h-2.4a.41.41,0,0,0-.44.44Z"/><path class="cls-1" d="M165,92.63c0,5.64-4.78,10.11-10.81,10.11s-10.81-4.47-10.81-10.11a10.82,10.82,0,0,1,21.62,0Zm-3.38.08c0-5.57-2.86-9.07-7.43-9.07s-7.43,3.5-7.43,9.07c0,5.27,2.86,8.6,7.43,8.6S161.6,98,161.6,92.71Zm-6-15.18,2.84,2.83h-1.17l-3.1-1.4-3.09,1.4h-1.17l2.84-2.83Z"/><path class="cls-1" d="M180,97.82l6.76-15.35h5.82v1c-2.24.08-2.58.78-2.58,3.93V97.57c0,3.42.39,3.84,2.84,3.92v1h-8.42v-1c2.44-.08,2.85-.52,2.85-3.74V85.69H187l-7.58,17h-.58l-7.45-17h-.11V97.57c0,3.42.39,3.84,2.83,3.92v1H166.9v-1c2.45-.08,2.86-.52,2.86-3.74V87.2c0-2.94-.36-3.64-2.6-3.75v-1h6.22l6.54,15.35Z"/><path class="cls-1" d="M201.14,91.48c3.74,0,4.91-.88,4.91-3H207v7.09h-.91c0-2.08-1-3-4.91-3.07V98.4c0,2.26,1,3,4.31,3,3.67,0,5-.93,5.64-4h1l-.39,5.12H195.55v-1c2.44-.08,2.86-.52,2.86-3V86.42c0-2.42-.36-2.86-2.6-3v-1h15l.24,4.57h-.91c-.42-2.76-1.74-3.46-5.28-3.46h-3.3a.41.41,0,0,0-.44.45Z"/><path class="cls-1" d="M214.85,96.37h1a5.66,5.66,0,0,0,5.9,5c2.55,0,4.16-1.32,4.16-3.38,0-1.76-1-2.78-4.55-4.31-4.31-1.9-5.64-3.33-5.64-6,0-3.23,2.42-5.51,5.82-5.51a6.34,6.34,0,0,1,4.14,1.53l.67-1.17h.6l.28,5.17h-1c-.83-2.83-2.44-4.21-4.65-4.21s-3.46,1.15-3.46,2.89,1,2.62,4,4c5.15,2.31,6.6,3.74,6.6,6.47,0,3.48-2.88,5.9-7.07,5.9a7.42,7.42,0,0,1-5.06-1.82l-.73,1.27h-.6Z"/></g></g></svg>