<svg xmlns="http://www.w3.org/2000/svg" viewBox="0 0 205.52 51.72"><g id="Layer_2" data-name="Layer 2"><g id="Capa_1" data-name="Capa 1"><path d="M205.52.43V51.72H0V.43C1.87.29,3.73,0,5.6,0q96.14,0,192.27,0C200.42,0,203,.29,205.52.43ZM7.35,45.18H198.89V6.85H7.35Z"/><path d="M107.81,29.35l.94-19.44h9c-.55,10.72-1.09,21.19-1.62,31.6-9.17,2.56-11.55,1.67-16.21-6.07-2.45-4.06-4.81-8.18-7.22-12.26-.05-.09-.3-.06-.92-.16-.3,6.35-.6,12.68-.91,19.17h-9c.52-10.71,1-21.19,1.55-31.64,9.12-2.58,11.64-1.64,16,6,2.51,4.35,4.92,8.75,7.37,13.14Z"/><path d="M195.11,25.4c0,8.38-4.81,15-13,16.6a38.6,38.6,0,0,1-13.13.29c-8.55-1.3-13.25-6.52-13.73-14-.55-8.82,3.2-15.61,11.55-17.51a42.76,42.76,0,0,1,17.95.08C191.66,12.29,195.13,18.33,195.11,25.4Zm-29.65.86c-.07,5.71,3.9,9.8,9.5,9.79s9.72-4.55,9.72-10.37-3.54-9.59-8.94-9.73C169.89,15.79,165.54,20.15,165.46,26.26Z"/><path d="M31.17,9.62c6.37,0,12.18,0,18,0,4.66,0,9.11.83,10.72,6s-1.07,8.79-5.2,11.58c-.55.37-1.07.78-2,1.44l6.14,13.73a80.18,80.18,0,0,1-8.45-.09,4.18,4.18,0,0,1-2.93-2C45.53,35.19,43.88,30,42,24.6a12.79,12.79,0,0,1,2-.46c3.1-.19,6.35-.83,6.13-4.59-.24-4.06-4-3.33-6.79-3.56S40,17.31,40,19.77c.08,7.31,0,14.63,0,22.28H29.5Z"/><path d="M123.07,42.09c.54-10.81,1.06-21.19,1.6-32h26.62c-.12,2.05-.22,3.88-.35,6.24h-16c-.21,2-.37,3.48-.59,5.58h13.41V29.2L133.94,30v5.43h15.8v6.65Z"/><path d="M13.17,9.94H23.23V42.11H13.17Z"/><path d="M75.47,42.14H64.73c.48-10.74.94-21.21,1.42-32.08h9.32Z"/></g></g></svg>