<svg xmlns="http://www.w3.org/2000/svg" xmlns:xlink="http://www.w3.org/1999/xlink" viewBox="0 0 274 63.15"><defs><style>.cls-1,.cls-2,.cls-4{fill:#1d1d1b;}.cls-1{clip-rule:evenodd;}.cls-2{fill-rule:evenodd;}.cls-3{clip-path:url(#clip-path);}</style><clipPath id="clip-path" transform="translate(0 0.03)"><path class="cls-1" d="M142.8,3.11a30.73,30.73,0,0,1,2.68,5.45c.94,2.89,4.57,10.92-1.21,14.43a9.68,9.68,0,0,1-8.46,1c-3-1.08-4.95-3.49-5-6.22,0-4.2,2.64-12.86,5.25-16.06A3.91,3.91,0,0,1,138.71,0c2.14,0,3.18,1.89,4.09,3.11m-33,33.61a16.32,16.32,0,0,1-.28,3.63h-4.18a8,8,0,0,1,0-3.77c.78-.93,2.23-.81,3.41-.63A1.42,1.42,0,0,1,109.83,36.72Zm93.45,0a14.77,14.77,0,0,1-.23,3.55,29.56,29.56,0,0,1-4.1.11,9.06,9.06,0,0,1-.4-3,1.7,1.7,0,0,1,1-1.41C200.83,35.7,202.6,35.66,203.28,36.7Zm-179,7-4.78,0L22,28Zm97.43-13.49c3.64,2.93,3.36,7.37,3.58,11.55l0,4.59a40.19,40.19,0,0,1-5.6.07l-14.23,0-.23.52c.09,1.89-.46,4.07.26,6,.69.7,1.73.34,2.69.49.59-.08,1.27-.11,1.54-.67l.14-2.89,1.55-.07L125,50c0,3.7.17,8.36-4.56,10.2a22.64,22.64,0,0,1-7.19.92l-12.05,0c-3.36-.18-7.27-.52-9.18-3-1.77-3-1.76-6.59-1.67-10.14-.13-5.26-.12-10.25,1.07-15.1A6,6,0,0,1,95,29c5.33-1.51,11.1-.77,17-1C115.43,28.25,119,28.48,121.75,30.18ZM147,28.1l0,25.68h1.77v6.88H130.26V53.91l1.54,0,0-19.77h-1.33v-6.1Zm66.75,1.32c4.37,2.26,4.63,6.7,4.86,10.51a49.51,49.51,0,0,1,0,6.33l-1.46.11-16.14,0c-.5.3-2.32-.48-2.23.67.18,1.81-.42,4.07.26,5.88.78.67,2.09.41,3.18.41,2-.33.74-2.37,1.24-3.51h15c-.09,3.7,0,8.62-5,10.43-5.32,1.14-11,.8-16.6.8-4.23-.3-9.27,0-11.59-3.42-1.18-2.18-1.17-4.73-1.44-7.21l.1-8.11c0-3.88,0-7.88,1.83-11.17,2.56-3.33,7.87-2.87,11.85-3C202.69,28.13,209.58,27.67,213.7,29.42ZM83.28,31c2.81,2.51,3.36,5.92,3.3,9.36l-3.63,0H71.53c-.31-1.52.1-3.4-1.77-4.29-1.54-.37-3.68-.38-5,.51-1,.7-.87,1.7-1.1,2.63l-.06,10.25c.18.89.18,2,1.13,2.74a5.82,5.82,0,0,0,5,.37c1.64-1.11,1.69-3.1,1.64-4.73l15.1-.14c.31,4.82-.88,10.18-6.56,12.17A30.17,30.17,0,0,1,73.23,61L60.72,61C56.81,60.57,52,60.72,50,57.38c-1.9-3.74-1.4-7.84-1.48-12,.28-4.44-.31-9.43,1.61-13.54S58.77,28.17,62.32,28C69.38,28,79.19,27.27,83.28,31Zm176.58,3.66-8.63,9.91,8.69,9.54-.06,6.39-14.76-.07V53.76l-3.29-2.7-3.32,2.77-.05,6.65h-14.9l0-6.51,9.15-9.49-9.16-9.79,0-6.7,15,0,.06,7,3.22,3,3.37-3.3V28.06h14.65Zm-88.22-6.84c.41.6,1.59.23,2.32.34a9.17,9.17,0,0,1,2.73.08l.18.4c-.05,2.07.09,4-.14,6.29l-4.64,0a.57.57,0,0,0-.46.34l-.12,17.31c.18,1.63,2.32,2.12,3.91,2.52.5,0,1.5-.14,1.55.52l-.1,5.7-.64.22c-5.73.18-13.28,1.62-17.32-2.27A7.87,7.87,0,0,1,156.73,55l.06-10,0-10c-.41-.33-1.36.19-1.45-.44.14-2-.09-4.07.05-6.29.32-.56,1.59.22,1.55-.67l.05-4.33a11.41,11.41,0,0,1,2.32-.63c4.09-.84,8-1.58,12-2.54l.41,0ZM34.32,15.7l.28.22,7.5,37.75h1.43v6.77h-20l0-6.82c.14-.63,1.14-.55,1.46-1.07.27-.26.68-.55.68-.92H18.31c0,.92,1.45,1.48,2,1.93l0,6.88H0l0-6.84H1.44l2.7-12.49c1.19-5.77,5.44-25.3,5.44-25.3l.41-.15Zm101.5,4.06a8.49,8.49,0,0,0,7.55.71,6.91,6.91,0,0,1-5.15,1.7c-2-.3-4.13-1.3-5-2.93a4.46,4.46,0,0,1,.23-5A5.34,5.34,0,0,0,135.82,19.76Zm126,12.66c0,2.95,2.87,4.85,6.09,4.86s6.11-1.9,6.11-4.85-2.87-4.83-6.1-4.83S261.8,29.49,261.8,32.42Zm1.62,0c0-2.2,2-3.79,4.48-3.78s4.48,1.59,4.48,3.79-2,3.81-4.49,3.81S263.42,34.63,263.42,32.42Zm2.11,2.71h1.32V32.81h.83l1.61,2.32h1.38l-1.77-2.37c1-.06,1.75-.45,1.75-1.44,0-1.18-.94-1.61-2.6-1.61h-2.52Zm1.32-4.58H268c.6,0,1.36.09,1.36.68s-.56.74-1.3.74h-1.18Z"/></clipPath></defs><g id="Layer_2" data-name="Layer 2"><g id="Capa_1" data-name="Capa 1"><path class="cls-2" d="M142.8,3.11a30.73,30.73,0,0,1,2.68,5.45c.94,2.89,4.57,10.92-1.21,14.43a9.68,9.68,0,0,1-8.46,1c-3-1.08-4.95-3.49-5-6.22,0-4.2,2.64-12.86,5.25-16.06A3.91,3.91,0,0,1,138.71,0c2.14,0,3.18,1.89,4.09,3.11m-33,33.61a16.32,16.32,0,0,1-.28,3.63h-4.18a8,8,0,0,1,0-3.77c.78-.93,2.23-.81,3.41-.63A1.42,1.42,0,0,1,109.83,36.72Zm93.45,0a14.77,14.77,0,0,1-.23,3.55,29.56,29.56,0,0,1-4.1.11,9.06,9.06,0,0,1-.4-3,1.7,1.7,0,0,1,1-1.41C200.83,35.7,202.6,35.66,203.28,36.7Zm-179,7-4.78,0L22,28Zm97.43-13.49c3.64,2.93,3.36,7.37,3.58,11.55l0,4.59a40.19,40.19,0,0,1-5.6.07l-14.23,0-.23.52c.09,1.89-.46,4.07.26,6,.69.7,1.73.34,2.69.49.59-.08,1.27-.11,1.54-.67l.14-2.89,1.55-.07L125,50c0,3.7.17,8.36-4.56,10.2a22.64,22.64,0,0,1-7.19.92l-12.05,0c-3.36-.18-7.27-.52-9.18-3-1.77-3-1.76-6.59-1.67-10.14-.13-5.26-.12-10.25,1.07-15.1A6,6,0,0,1,95,29c5.33-1.51,11.1-.77,17-1C115.43,28.25,119,28.48,121.75,30.18ZM147,28.1l0,25.68h1.77v6.88H130.26V53.91l1.54,0,0-19.77h-1.33v-6.1Zm66.75,1.32c4.37,2.26,4.63,6.7,4.86,10.51a49.51,49.51,0,0,1,0,6.33l-1.46.11-16.14,0c-.5.3-2.32-.48-2.23.67.18,1.81-.42,4.07.26,5.88.78.67,2.09.41,3.18.41,2-.33.74-2.37,1.24-3.51h15c-.09,3.7,0,8.62-5,10.43-5.32,1.14-11,.8-16.6.8-4.23-.3-9.27,0-11.59-3.42-1.18-2.18-1.17-4.73-1.44-7.21l.1-8.11c0-3.88,0-7.88,1.83-11.17,2.56-3.33,7.87-2.87,11.85-3C202.69,28.13,209.58,27.67,213.7,29.42ZM83.28,31c2.81,2.51,3.36,5.92,3.3,9.36l-3.63,0H71.53c-.31-1.52.1-3.4-1.77-4.29-1.54-.37-3.68-.38-5,.51-1,.7-.87,1.7-1.1,2.63l-.06,10.25c.18.89.18,2,1.13,2.74a5.82,5.82,0,0,0,5,.37c1.64-1.11,1.69-3.1,1.64-4.73l15.1-.14c.31,4.82-.88,10.18-6.56,12.17A30.17,30.17,0,0,1,73.23,61L60.72,61C56.81,60.57,52,60.72,50,57.38c-1.9-3.74-1.4-7.84-1.48-12,.28-4.44-.31-9.43,1.61-13.54S58.77,28.17,62.32,28C69.38,28,79.19,27.27,83.28,31Zm176.58,3.66-8.63,9.91,8.69,9.54-.06,6.39-14.76-.07V53.76l-3.29-2.7-3.32,2.77-.05,6.65h-14.9l0-6.51,9.15-9.49-9.16-9.79,0-6.7,15,0,.06,7,3.22,3,3.37-3.3V28.06h14.65Zm-88.22-6.84c.41.6,1.59.23,2.32.34a9.17,9.17,0,0,1,2.73.08l.18.4c-.05,2.07.09,4-.14,6.29l-4.64,0a.57.57,0,0,0-.46.34l-.12,17.31c.18,1.63,2.32,2.12,3.91,2.52.5,0,1.5-.14,1.55.52l-.1,5.7-.64.22c-5.73.18-13.28,1.62-17.32-2.27A7.87,7.87,0,0,1,156.73,55l.06-10,0-10c-.41-.33-1.36.19-1.45-.44.14-2-.09-4.07.05-6.29.32-.56,1.59.22,1.55-.67l.05-4.33a11.41,11.41,0,0,1,2.32-.63c4.09-.84,8-1.58,12-2.54l.41,0ZM34.32,15.7l.28.22,7.5,37.75h1.43v6.77h-20l0-6.82c.14-.63,1.14-.55,1.46-1.07.27-.26.68-.55.68-.92H18.31c0,.92,1.45,1.48,2,1.93l0,6.88H0l0-6.84H1.44l2.7-12.49c1.19-5.77,5.44-25.3,5.44-25.3l.41-.15Zm101.5,4.06a8.49,8.49,0,0,0,7.55.71,6.91,6.91,0,0,1-5.15,1.7c-2-.3-4.13-1.3-5-2.93a4.46,4.46,0,0,1,.23-5A5.34,5.34,0,0,0,135.82,19.76Zm126,12.66c0,2.95,2.87,4.85,6.09,4.86s6.11-1.9,6.11-4.85-2.87-4.83-6.1-4.83S261.8,29.49,261.8,32.42Zm1.62,0c0-2.2,2-3.79,4.48-3.78s4.48,1.59,4.48,3.79-2,3.81-4.49,3.81S263.42,34.63,263.42,32.42Zm2.11,2.71h1.32V32.81h.83l1.61,2.32h1.38l-1.77-2.37c1-.06,1.75-.45,1.75-1.44,0-1.18-.94-1.61-2.6-1.61h-2.52Zm1.32-4.58H268c.6,0,1.36.09,1.36.68s-.56.74-1.3.74h-1.18Z" transform="translate(0 0.03)"/><g class="cls-3"><rect class="cls-4" width="274" height="63.15"/></g></g></g></svg>