<svg xmlns="http://www.w3.org/2000/svg" viewBox="0 0 259.63 58.96"><defs><style>.cls-1{fill:#1d1d1b;}</style></defs><g id="Layer_2" data-name="Layer 2"><g id="Capa_1" data-name="Capa 1"><path class="cls-1" d="M101.4,1.43a.28.28,0,0,1,.31.31V3.11c0,.22-.11.33-.31.33H95.17a3.79,3.79,0,0,0-.9.09,1.16,1.16,0,0,0-.56.3,1.28,1.28,0,0,0-.3.58,3.53,3.53,0,0,0-.1.93v2a3.43,3.43,0,0,0,.1.93,1.22,1.22,0,0,0,.3.59,1.1,1.1,0,0,0,.56.31,3.79,3.79,0,0,0,.9.09h6.23a.28.28,0,0,1,.31.31v1.37a.28.28,0,0,1-.31.31H95.09a7.1,7.1,0,0,1-1.8-.2,2.65,2.65,0,0,1-1.21-.64,2.52,2.52,0,0,1-.69-1.14,6.1,6.1,0,0,1-.22-1.72V5.13a6,6,0,0,1,.22-1.71,2.58,2.58,0,0,1,.69-1.14,2.75,2.75,0,0,1,1.21-.64,6.64,6.64,0,0,1,1.8-.21Z"/><path class="cls-1" d="M112.73,1.43a6.77,6.77,0,0,1,1.81.21,2.84,2.84,0,0,1,1.22.64,2.56,2.56,0,0,1,.68,1.14,6.08,6.08,0,0,1,.2,1.71v2.4a6.16,6.16,0,0,1-.2,1.72,2.51,2.51,0,0,1-.68,1.14,2.74,2.74,0,0,1-1.22.64,7.24,7.24,0,0,1-1.81.2h-4.32a7.24,7.24,0,0,1-1.81-.2,2.7,2.7,0,0,1-1.21-.64,2.51,2.51,0,0,1-.68-1.14,5.75,5.75,0,0,1-.22-1.72V5.13a5.68,5.68,0,0,1,.22-1.71,2.56,2.56,0,0,1,.68-1.14,2.81,2.81,0,0,1,1.21-.64,6.77,6.77,0,0,1,1.81-.21Zm-6.1,6a4,4,0,0,0,.09.92,1.23,1.23,0,0,0,.3.58,1.13,1.13,0,0,0,.57.31,3.79,3.79,0,0,0,.9.09h4.15a3.82,3.82,0,0,0,.91-.09,1.14,1.14,0,0,0,.56-.31,1.23,1.23,0,0,0,.3-.58,4,4,0,0,0,.09-.92V5.28a3.88,3.88,0,0,0-.09-.91,1.22,1.22,0,0,0-.3-.59,1.14,1.14,0,0,0-.56-.31,3.82,3.82,0,0,0-.91-.09h-4.15a3.79,3.79,0,0,0-.9.09,1.13,1.13,0,0,0-.57.31,1.22,1.22,0,0,0-.3.59,3.88,3.88,0,0,0-.09.91Z"/><path class="cls-1" d="M122.27,1.43a4.39,4.39,0,0,1,.56,0,1.12,1.12,0,0,1,.39.12,1.46,1.46,0,0,1,.32.25,4.85,4.85,0,0,1,.35.43l5.2,6.83a.21.21,0,0,0,.19.09h.12c.08,0,.11,0,.11-.14V1.74a.28.28,0,0,1,.31-.31h1.47a.28.28,0,0,1,.31.31v8a1.63,1.63,0,0,1-.31,1.16,1.3,1.3,0,0,1-.95.3h-1.2a4,4,0,0,1-.54,0,1.38,1.38,0,0,1-.39-.11,1.44,1.44,0,0,1-.33-.25,5.21,5.21,0,0,1-.37-.44L122.3,3.57a.26.26,0,0,0-.19-.09H122c-.08,0-.11,0-.11.14v7.3a.28.28,0,0,1-.31.31H120.1a.28.28,0,0,1-.32-.31v-8a1.58,1.58,0,0,1,.31-1.15,1.31,1.31,0,0,1,1-.31Z"/><path class="cls-1" d="M145.5,1.43a.28.28,0,0,1,.32.31V3.11c0,.22-.1.33-.32.33h-4.39v7.48a.28.28,0,0,1-.31.31h-1.52a.28.28,0,0,1-.31-.31V3.44h-4.39c-.22,0-.32-.11-.32-.33V1.74a.28.28,0,0,1,.32-.31Z"/><path class="cls-1" d="M158.15,1.43a.28.28,0,0,1,.32.31V3.07a.28.28,0,0,1-.32.31H152a3.79,3.79,0,0,0-.9.09,1.13,1.13,0,0,0-.57.31,1.07,1.07,0,0,0-.3.59,3.88,3.88,0,0,0-.09.91v.14h7.91c.2,0,.3.1.3.31v1.1c0,.21-.1.31-.3.31h-7.91v.24a4,4,0,0,0,.09.92,1.08,1.08,0,0,0,.3.58,1.13,1.13,0,0,0,.57.31,3.79,3.79,0,0,0,.9.09h6.12a.28.28,0,0,1,.32.31v1.33a.28.28,0,0,1-.32.31H152a7.1,7.1,0,0,1-1.8-.2,2.65,2.65,0,0,1-1.21-.64,2.52,2.52,0,0,1-.69-1.14,6.13,6.13,0,0,1-.21-1.72V5.13a6.05,6.05,0,0,1,.21-1.71A2.58,2.58,0,0,1,149,2.28a2.75,2.75,0,0,1,1.21-.64,6.64,6.64,0,0,1,1.8-.21Z"/><path class="cls-1" d="M164,1.43a4.28,4.28,0,0,1,.56,0,1.25,1.25,0,0,1,.4.12,1.75,1.75,0,0,1,.32.25,4.85,4.85,0,0,1,.35.43l5.2,6.83a.2.2,0,0,0,.18.09h.13c.07,0,.11,0,.11-.14V1.74a.28.28,0,0,1,.31-.31H173a.27.27,0,0,1,.3.31v8a1.68,1.68,0,0,1-.3,1.16,1.34,1.34,0,0,1-1,.3h-1.21a4.16,4.16,0,0,1-.54,0,1.41,1.41,0,0,1-.38-.11,1.44,1.44,0,0,1-.33-.25,3.82,3.82,0,0,1-.37-.44L164,3.57a.23.23,0,0,0-.18-.09h-.13c-.07,0-.11,0-.11.14v7.3a.27.27,0,0,1-.3.31H161.8a.28.28,0,0,1-.32-.31v-8a1.64,1.64,0,0,1,.3-1.15,1.32,1.32,0,0,1,.95-.31Z"/><path class="cls-1" d="M186.51,1.43a.28.28,0,0,1,.32.31V3.07c0,.21-.1.31-.32.31H180.4a3.79,3.79,0,0,0-.9.09,1.2,1.2,0,0,0-.58.31,1.22,1.22,0,0,0-.3.59,4.58,4.58,0,0,0-.08.91v.14h7.9a.27.27,0,0,1,.31.31v1.1a.27.27,0,0,1-.31.31h-7.9v.24a4.77,4.77,0,0,0,.08.92,1.23,1.23,0,0,0,.3.58,1.2,1.2,0,0,0,.58.31,3.79,3.79,0,0,0,.9.09h6.11c.22,0,.32.1.32.31v1.33a.28.28,0,0,1-.32.31h-6.15a7.24,7.24,0,0,1-1.81-.2,2.76,2.76,0,0,1-1.21-.64,2.51,2.51,0,0,1-.68-1.14,5.75,5.75,0,0,1-.22-1.72V5.13a5.68,5.68,0,0,1,.22-1.71,2.56,2.56,0,0,1,.68-1.14,2.86,2.86,0,0,1,1.21-.64,6.77,6.77,0,0,1,1.81-.21Z"/><path class="cls-1" d="M196.81,1.43a6.9,6.9,0,0,1,1.94.24,3.14,3.14,0,0,1,1.33.71,2.86,2.86,0,0,1,.76,1.23,5.52,5.52,0,0,1,.25,1.77v1.9a5.52,5.52,0,0,1-.25,1.77,2.86,2.86,0,0,1-.76,1.23,3.27,3.27,0,0,1-1.33.72,7.32,7.32,0,0,1-1.94.23h-6.55a.37.37,0,0,1-.42-.42v-9a.38.38,0,0,1,.42-.42ZM192,9.1a.16.16,0,0,0,.18.18h4.59a3.9,3.9,0,0,0,1-.11,1.49,1.49,0,0,0,.67-.36,1.46,1.46,0,0,0,.38-.68,4.21,4.21,0,0,0,.11-1V5.56a4.27,4.27,0,0,0-.11-1,1.46,1.46,0,0,0-.38-.68,1.59,1.59,0,0,0-.67-.36,4.36,4.36,0,0,0-1-.11h-4.59a.17.17,0,0,0-.18.19Z"/><path class="cls-1" d="M212.36,1.43a6.77,6.77,0,0,1,1.81.21,2.79,2.79,0,0,1,1.22.64,2.56,2.56,0,0,1,.68,1.14,6.05,6.05,0,0,1,.21,1.71v2.4a6.13,6.13,0,0,1-.21,1.72,2.51,2.51,0,0,1-.68,1.14,2.69,2.69,0,0,1-1.22.64,7.24,7.24,0,0,1-1.81.2H208a7.24,7.24,0,0,1-1.81-.2,2.76,2.76,0,0,1-1.21-.64,2.51,2.51,0,0,1-.68-1.14,5.75,5.75,0,0,1-.22-1.72V5.13a5.68,5.68,0,0,1,.22-1.71A2.56,2.56,0,0,1,205,2.28a2.86,2.86,0,0,1,1.21-.64A6.77,6.77,0,0,1,208,1.43Zm-6.1,6a4,4,0,0,0,.09.92,1.23,1.23,0,0,0,.3.58,1.13,1.13,0,0,0,.57.31,3.79,3.79,0,0,0,.9.09h4.16a3.79,3.79,0,0,0,.9-.09,1.13,1.13,0,0,0,.57-.31,1.23,1.23,0,0,0,.3-.58,4,4,0,0,0,.09-.92V5.28a3.88,3.88,0,0,0-.09-.91,1.22,1.22,0,0,0-.3-.59,1.13,1.13,0,0,0-.57-.31,3.79,3.79,0,0,0-.9-.09h-4.16a3.79,3.79,0,0,0-.9.09,1.13,1.13,0,0,0-.57.31,1.22,1.22,0,0,0-.3.59,3.88,3.88,0,0,0-.09.91Z"/><path class="cls-1" d="M227.34,1.43a3.13,3.13,0,0,1,2.31.73,3,3,0,0,1,.7,2.16v.79A3.26,3.26,0,0,1,229.86,7a2.37,2.37,0,0,1-1.6.89l2.4,3a.22.22,0,0,1,0,.21c0,.09-.09.14-.23.14h-1.8a.49.49,0,0,1-.25-.05.37.37,0,0,1-.14-.14l-2.21-2.91h-4.52v2.79a.28.28,0,0,1-.31.31h-1.51a.28.28,0,0,1-.32-.31V1.85a.38.38,0,0,1,.42-.42Zm-5.79,5h5.36a1.32,1.32,0,0,0,1-.31,1.29,1.29,0,0,0,.3-.94V4.6a1.29,1.29,0,0,0-.3-.94,1.32,1.32,0,0,0-1-.31h-5.18c-.12,0-.18.06-.18.17Z"/><path class="cls-1" d="M243.18,1.43a.28.28,0,0,1,.32.31V3.07a.28.28,0,0,1-.32.31h-6.12a3.79,3.79,0,0,0-.9.09,1.13,1.13,0,0,0-.57.31,1.07,1.07,0,0,0-.3.59,3.88,3.88,0,0,0-.09.91v.14h7.91c.2,0,.3.1.3.31v1.1c0,.21-.1.31-.3.31H235.2v.24a4,4,0,0,0,.09.92,1.08,1.08,0,0,0,.3.58,1.13,1.13,0,0,0,.57.31,3.79,3.79,0,0,0,.9.09h6.12a.28.28,0,0,1,.32.31v1.33a.28.28,0,0,1-.32.31H237a7.1,7.1,0,0,1-1.8-.2,2.65,2.65,0,0,1-1.21-.64,2.52,2.52,0,0,1-.69-1.14,6.1,6.1,0,0,1-.22-1.72V5.13a6,6,0,0,1,.22-1.71A2.58,2.58,0,0,1,234,2.28a2.75,2.75,0,0,1,1.21-.64,6.64,6.64,0,0,1,1.8-.21Z"/><path class="cls-1" d="M256.23,1.43a.27.27,0,0,1,.3.31V3.07c0,.21-.1.31-.3.31h-7a.72.72,0,0,0-.58.21.9.9,0,0,0-.16.57v.48q0,.78.72.78h5.25a2.48,2.48,0,0,1,1.83.62,2.45,2.45,0,0,1,.62,1.79V9a2.29,2.29,0,0,1-.6,1.65,2.51,2.51,0,0,1-1.88.63h-7.75a.28.28,0,0,1-.32-.31V9.59a.28.28,0,0,1,.32-.31H254a.69.69,0,0,0,.58-.21.9.9,0,0,0,.17-.57V7.93c0-.53-.25-.79-.73-.79h-5.25A2.48,2.48,0,0,1,247,6.52a2.43,2.43,0,0,1-.61-1.78v-1a2.3,2.3,0,0,1,.6-1.66,2.51,2.51,0,0,1,1.87-.63Z"/><polygon class="cls-1" points="114.94 30.53 99.17 30.53 99.17 17.72 89.96 17.72 89.96 51.04 99.17 51.04 99.17 36.81 114.94 36.81 114.94 51.04 124.14 51.04 124.14 17.72 114.94 17.72 114.94 30.53"/><path class="cls-1" d="M157.31,36.11a12.56,12.56,0,0,1-.37,3.89,4.14,4.14,0,0,1-2,2.57,10,10,0,0,1-5.21,1.08,10.57,10.57,0,0,1-5.38-1.15,4.88,4.88,0,0,1-2.4-3,11.64,11.64,0,0,1-.31-3.8v-18h-9.2V35.47a31.54,31.54,0,0,0,.84,8.37,8.81,8.81,0,0,0,2.47,3.77,13.49,13.49,0,0,0,5,2.89,29.57,29.57,0,0,0,9.2,1.1,27.38,27.38,0,0,0,8.16-1,13.65,13.65,0,0,0,5.06-2.73,9,9,0,0,0,2.64-4.27,34.53,34.53,0,0,0,.69-8.39V17.72h-9.2Z"/><path class="cls-1" d="M193.83,39.07h9.67V42.6A15.1,15.1,0,0,1,194,45.21a13.78,13.78,0,0,1-8.92-2.86,10.67,10.67,0,0,1-3.5-8.35,10.21,10.21,0,0,1,4-7.81c2.09-1.75,5-2.64,8.55-2.64A11.8,11.8,0,0,1,200,24.89a6.75,6.75,0,0,1,3.15,3.58l.11.29,9.13-1.32-.12-.43a12,12,0,0,0-5.81-7.25c-3-1.73-7.12-2.6-12.35-2.6a27.47,27.47,0,0,0-10.15,1.65,17.57,17.57,0,0,0-8.19,6.2,15.94,15.94,0,0,0-2.8,9.26,18.52,18.52,0,0,0,2.21,9.45A18,18,0,0,0,183,50.51a28.81,28.81,0,0,0,11.59,2.17c12.13,0,18.22-6.32,18.22-6.32V32.82h-19Z"/><path class="cls-1" d="M253.94,21.71c-3.75-3-8.81-4.55-15-4.55a29.23,29.23,0,0,0-9.13,1.31,17.28,17.28,0,0,0-5.52,3,16.17,16.17,0,0,0-4,4.57,17.2,17.2,0,0,0-2,8.54c0,5.28,1.9,9.49,5.65,12.5S232.75,51.6,239,51.6s11.23-1.53,14.95-4.54,5.65-7.28,5.65-12.64S257.71,24.75,253.94,21.71Zm-3.81,12.56c0,3.64-1,6.4-3.1,8.2a13.16,13.16,0,0,1-16.1,0c-2.09-1.82-3.15-4.54-3.15-8.09s1-6.35,3.06-8.12a13.71,13.71,0,0,1,16.27,0C249.12,28,250.13,30.67,250.13,34.27Z"/><polygon class="cls-1" points="0 8.66 30.8 8.66 30.8 30.92 15.4 30.92 0 8.66"/><polygon class="cls-1" points="81.98 0 30.8 0 30.8 8.66 61.48 8.66 46.08 30.92 30.8 30.92 30.8 51.17 38.82 51.17 42.97 43.38 50.25 43.38 46.1 51.17 53.78 51.17 57.93 43.38 65.22 43.38 61.07 51.17 69.38 51.17 73.53 43.38 80.81 43.38 76.66 51.17 81.98 51.17 81.98 0"/><polygon class="cls-1" points="41.95 58.96 34.66 58.96 38.89 51.02 46.18 51.02 41.95 58.96"/><polygon class="cls-1" points="56.91 58.96 49.62 58.96 53.86 51.02 61.14 51.02 56.91 58.96"/><polygon class="cls-1" points="72.5 58.96 65.22 58.96 69.45 51.02 76.74 51.02 72.5 58.96"/></g></g></svg>