<svg xmlns="http://www.w3.org/2000/svg" viewBox="0 0 309.72 72.42"><defs><style>.cls-1,.cls-2{fill:#1d1d1b;}.cls-2{fill-rule:evenodd;}.cls-3{fill:#fff;}.cls-4{fill:#21284d;}</style></defs><g id="Layer_2" data-name="Layer 2"><g id="Capa_1" data-name="Capa 1"><path class="cls-1" d="M81.88,14.64,77.67,36.3h-6L75.9,14.64H71l1-5.16H87.8l-1,5.16Z"/><path class="cls-1" d="M92.46,27,90.65,36.3h-6L89.88,9.48h10.17c2.17,0,3.54.38,4.13,1.1a3.18,3.18,0,0,1,.6,2,7.63,7.63,0,0,1-.15,1.42l-1.27,6.48A4.73,4.73,0,0,1,100.65,24c-.38.15-.58.29-.62.41v0c0,.1.15.23.47.37a2.89,2.89,0,0,1,1.62,2.64,4.7,4.7,0,0,1-.07.82l-1.57,8.06h-6l1.68-8.62a1.5,1.5,0,0,0,0-.2c0-.34-.2-.51-.58-.51Zm2.39-12.33L93.47,21.8h3.16a.77.77,0,0,0,.82-.71l1.12-5.74a1.65,1.65,0,0,0,0-.21c0-.33-.19-.5-.58-.5Z"/><path class="cls-1" d="M109.55,9.48h6L110.31,36.3h-6Z"/><path class="cls-1" d="M117.21,22.11a3.21,3.21,0,0,1-.58-2,8.74,8.74,0,0,1,.17-1.61l.88-4.43a5.85,5.85,0,0,1,1.75-3.46c.89-.72,2.42-1.09,4.58-1.1h4.53c2.16,0,3.54.38,4.13,1.1a3.23,3.23,0,0,1,.59,2,7.63,7.63,0,0,1-.15,1.42l-.86,4.34h-5.6l.6-3a1.55,1.55,0,0,0,0-.21c0-.33-.19-.5-.57-.5H124a.75.75,0,0,0-.8.71l-.5,2.56V18q0,.9,3.27,2.77a18.23,18.23,0,0,1,4.31,3.06,3.21,3.21,0,0,1,.56,2,8.29,8.29,0,0,1-.17,1.63l-.84,4.26a5.78,5.78,0,0,1-1.77,3.45c-.87.73-2.39,1.09-4.56,1.11h-4.9c-2.16,0-3.55-.38-4.15-1.11a3.22,3.22,0,0,1-.58-2,7.66,7.66,0,0,1,.15-1.44l.86-4.34h5.8l-.6,3a1.5,1.5,0,0,0,0,.2c0,.34.19.51.58.51h2.67a.77.77,0,0,0,.81-.71l.5-2.58v-.06c0-.48-1.07-1.36-3.2-2.63A17.46,17.46,0,0,1,117.21,22.11Z"/><path class="cls-1" d="M145.5,14.71l-4.2,21.66h-6l4.2-21.66h-4.91l1-5.16h15.81l-1,5.16Z"/><path class="cls-1" d="M155.07,9.48h9.51l-.36,26.82h-6l.12-5.07h-5.52L151,36.3h-6ZM159,14l-4.2,12.05h3.68Zm3.42-5.23h-4.82l1.91-4.47h7.08Z"/><path class="cls-1" d="M175,21.35,172,36.3h-5.6l5.21-26.82h6L180,25l3-15.51h5.61L183.36,36.3h-6Z"/><path class="cls-1" d="M201.82,22.11a3.15,3.15,0,0,1-.58-2,8.74,8.74,0,0,1,.17-1.61l.88-4.43A5.8,5.8,0,0,1,204,10.58c.89-.72,2.41-1.09,4.58-1.1h4.52c2.17,0,3.55.38,4.13,1.1a3.18,3.18,0,0,1,.6,2,7.63,7.63,0,0,1-.15,1.42l-.86,4.34h-5.61l.6-3a.78.78,0,0,0,0-.21c0-.33-.19-.5-.58-.5h-2.67a.74.74,0,0,0-.8.71l-.51,2.56V18q0,.9,3.27,2.77a18.36,18.36,0,0,1,4.32,3.06,3.28,3.28,0,0,1,.56,2,9.13,9.13,0,0,1-.17,1.63l-.84,4.26a5.78,5.78,0,0,1-1.77,3.45c-.88.73-2.4,1.09-4.56,1.11h-4.9c-2.17,0-3.55-.38-4.15-1.11a3.22,3.22,0,0,1-.58-2,7.66,7.66,0,0,1,.15-1.44l.86-4.34h5.79l-.59,3a.71.71,0,0,0,0,.2c0,.34.19.51.58.51h2.67a.75.75,0,0,0,.8-.71l.51-2.58v-.06c0-.48-1.07-1.36-3.2-2.63A17.25,17.25,0,0,1,201.82,22.11Z"/><path class="cls-1" d="M232.13,9.48h6l-4.34,22.26A5.78,5.78,0,0,1,232,35.19c-.87.73-2.39,1.09-4.56,1.11h-4.9c-2.17,0-3.55-.38-4.15-1.11a3.22,3.22,0,0,1-.58-2,7.66,7.66,0,0,1,.15-1.44L222.3,9.48h6l-4.08,21a1.41,1.41,0,0,0,0,.2c0,.34.18.51.56.51h2.48a.76.76,0,0,0,.82-.71Z"/><path class="cls-1" d="M245.34,9.48h9.51l-.36,26.82h-6l.12-5.07h-5.52l-1.87,5.07h-6ZM249.22,14,245,26.09h3.68Zm3.42-5.23h-4.82l1.91-4.47h7.08Z"/><path class="cls-1" d="M264.46,27l-1.82,9.33h-6l5.22-26.82H272c2.17,0,3.55.38,4.13,1.1a3.18,3.18,0,0,1,.6,2,7.63,7.63,0,0,1-.15,1.42l-1.27,6.48A4.71,4.71,0,0,1,272.64,24c-.37.15-.58.29-.62.41v0c0,.1.16.23.47.37a2.9,2.9,0,0,1,1.63,2.64,4.74,4.74,0,0,1-.08.82l-1.57,8.06h-6l1.68-8.62a.71.71,0,0,0,0-.2c0-.34-.19-.51-.58-.51Zm2.39-12.33-1.39,7.16h3.16a.76.76,0,0,0,.82-.71l1.13-5.74a1.55,1.55,0,0,0,0-.21c0-.33-.19-.5-.57-.5Z"/><path class="cls-1" d="M295.08,9.48l-1,5.16h-7.44l-1.1,5.66h6.39l-1,5.16h-6.39l-1.11,5.68h7.44l-1,5.16H276.43l1-5.16h0l4.21-21.66Z"/><path class="cls-1" d="M309,13.18l-8.46,18h6l-1,5.16H292.86l.55-2.77,8.91-18.89H296.7l1-5.16h12Z"/><path class="cls-1" d="M75.65,52.23H71.81l.58-3a.66.66,0,0,0,0-.14c0-.23-.13-.34-.4-.34H70.3a.51.51,0,0,0-.55.48l-2,10.34a.71.71,0,0,0,0,.14c0,.23.13.35.38.35h1.7a.53.53,0,0,0,.57-.49l.57-3H74.8L74,60.49a4,4,0,0,1-1.22,2.37,5.06,5.06,0,0,1-3.12.75H66.6c-1.49,0-2.43-.26-2.84-.75a2.21,2.21,0,0,1-.4-1.39,5,5,0,0,1,.1-1l2.37-12.13A4,4,0,0,1,67,46a5,5,0,0,1,3.13-.76h3.1c1.49,0,2.43.26,2.83.76a2.13,2.13,0,0,1,.41,1.39,5.09,5.09,0,0,1-.1,1Z"/><path class="cls-1" d="M81.7,45.23h6.52L88,63.61h-4.1L84,60.14H80.18L78.9,63.61H74.8Zm2.66,3.13-2.88,8.26H84Z"/><path class="cls-1" d="M95.44,53.37l-2,10.24H89.6l3.57-18.38h4.1l1.6,10.63,2.06-10.63h3.85L101.2,63.61H97.1Z"/><path class="cls-1" d="M110.17,53.37l-2,10.24h-3.84l3.58-18.38H112l1.6,10.63,2.07-10.63h3.84l-3.57,18.38h-4.1Z"/><path class="cls-1" d="M122.62,45.23h4.09l-3.57,18.38H119Z"/><path class="cls-1" d="M132,53.37l-2,10.24h-3.85l3.58-18.38h4.09l1.61,10.63,2.06-10.63h3.84l-3.57,18.38h-4.1Z"/><path class="cls-1" d="M153.44,53.69l-1.34,6.8a4,4,0,0,1-1.21,2.37,5.1,5.1,0,0,1-3.13.75h-3.35q-2.24,0-2.85-.75a2.27,2.27,0,0,1-.39-1.39,5,5,0,0,1,.1-1l2.37-12.13a4,4,0,0,1,1.2-2.37,5.1,5.1,0,0,1,3.14-.76h3.23c1.48,0,2.43.26,2.83.76a2.19,2.19,0,0,1,.41,1.39,6,6,0,0,1-.1,1l-.63,3.23h-4l.45-2.34s0-.09,0-.14c0-.23-.13-.34-.4-.34h-1.7a.51.51,0,0,0-.55.48l-2,10.34a.78.78,0,0,0,0,.14c0,.23.13.35.39.35h1.83a.53.53,0,0,0,.56-.49l.46-2.37H147.4l.7-3.53Z"/><path class="cls-1" d="M173.75,52.23h-3.84l.57-3a.66.66,0,0,0,0-.14c0-.23-.13-.34-.39-.34h-1.71a.52.52,0,0,0-.55.48l-2,10.34a.71.71,0,0,0,0,.14c0,.23.13.35.38.35h1.71a.53.53,0,0,0,.56-.49l.58-3h3.84l-.76,3.87a4,4,0,0,1-1.21,2.37,5.1,5.1,0,0,1-3.13.75h-3.1c-1.48,0-2.43-.26-2.84-.75a2.27,2.27,0,0,1-.4-1.39,5.07,5.07,0,0,1,.11-1l2.36-12.13A4,4,0,0,1,165.13,46a5.06,5.06,0,0,1,3.14-.76h3.1c1.48,0,2.42.26,2.83.76a2.19,2.19,0,0,1,.41,1.39,5.15,5.15,0,0,1-.11,1Z"/><path class="cls-1" d="M179.79,45.23h6.52l-.24,18.38H182l.08-3.47h-3.78L177,63.61h-4.1Zm2.67,3.13-2.89,8.26h2.53Z"/><path class="cls-1" d="M194.84,63.61,194,50.93l-2.46,12.68h-3.84l3.58-18.38h5.5l.83,13.1,5.93-13.1H209l-3.57,18.38h-3.84l2.45-12.68-5.63,12.68Z"/><path class="cls-1" d="M213.79,57.21l-1.25,6.4h-4.09L212,45.23h7.09c1.49,0,2.43.26,2.83.76a2.13,2.13,0,0,1,.41,1.39,5.09,5.09,0,0,1-.1,1l-1.11,5.72a4.07,4.07,0,0,1-1.22,2.37,5.08,5.08,0,0,1-3.14.76Zm.69-3.54h2.16a.53.53,0,0,0,.57-.48l.76-3.94a.68.68,0,0,0,0-.14c0-.23-.14-.34-.4-.34h-2.16Z"/><polygon class="cls-2" points="52.89 72.42 29.19 63.61 0 72.42 12.3 0 65.42 0 52.89 72.42"/><path class="cls-3" d="M52.91,10c0,.18,0,.28,0,.37,0,7.37.07,14.74,0,22.1a23.94,23.94,0,0,1-6,15.36A23.49,23.49,0,0,1,36.2,55.16a6.55,6.55,0,0,1-4.39,0,24.15,24.15,0,0,1-12.34-9.58,24.37,24.37,0,0,1-4.4-14.3c.07-6.91,0-13.82,0-20.73V10l.88.46c5.61,3,11,2.49,16.35-.79a13.62,13.62,0,0,0,1.34-.9.5.5,0,0,1,.72,0,17.67,17.67,0,0,0,7.2,3.44,15.46,15.46,0,0,0,10.35-1.7C52.24,10.32,52.53,10.15,52.91,10ZM49.19,23.1V42.89a21.41,21.41,0,0,0,2.92-10.25c0-7,0-13.92,0-20.88,0-.14,0-.28,0-.42H52l-.67.3a15.9,15.9,0,0,1-9.23,1.44,17.83,17.83,0,0,1-7.72-3.35.57.57,0,0,0-.76,0c-1,.62-2,1.27-3.11,1.79a15.61,15.61,0,0,1-14.28-.07,3.32,3.32,0,0,0-.35-.13v1c0,5.91,0,11.82,0,17.74A25.2,25.2,0,0,0,17,38.73c.5,1.42,1.12,2.8,1.68,4.2l.19,0V23.12h6.09v.68q0,13.1,0,26.18a.76.76,0,0,0,.38.77c1.3.82,2.58,1.68,3.89,2.47A17.56,17.56,0,0,0,31,54V23.12h6.08V54l.52-.21a22,22,0,0,0,5.11-3,.92.92,0,0,0,.4-.81q0-13.12,0-26.24V23.1ZM32.73,37v3.2h.64V38.83c.73-.09.91.47,1.16.88a.81.81,0,0,0,1.09.41l-1-1.39.2-.07a.84.84,0,0,0,.51-1,.75.75,0,0,0-.75-.7C34,36.93,33.37,37,32.73,37Zm0,6.16v3.22h2.41v-.54H33.39v-.9H35v-.53H33.38V43.6h1.75l0-.49ZM35.62,34c-.4-1-.8-2-1.22-3a.57.57,0,0,0-.43-.18.45.45,0,0,0-.38.17c-.42,1-.8,2-1.2,3,.44.13.72.07.85-.4,0-.13.25-.26.4-.29a1.79,1.79,0,0,1,.73,0,.52.52,0,0,1,.38.26C34.88,34,35.16,34.13,35.62,34ZM34.14,49.78c-.54.67-1,1.24-1.47,1.84a4,4,0,0,0-.35.85H35V52H33.21c.57-.7,1.09-1.31,1.57-2a3.09,3.09,0,0,0,.28-.73H32.61l0,.51Zm.51-25.13c0,.68,0,1.34,0,2s-.19.75-.62.75-.67-.25-.67-.77,0-1.31,0-2h-.6c0,.83,0,1.63,0,2.43a.78.78,0,0,0,.64.77,2.56,2.56,0,0,0,1.2,0,1,1,0,0,0,.61-.72c.08-.8,0-1.62,0-2.46Z"/><path class="cls-1" d="M49.19,23.1h-6.1v.62q0,13.13,0,26.24a.92.92,0,0,1-.4.81,22,22,0,0,1-5.11,3l-.52.21V23.12H31V54a17.56,17.56,0,0,1-1.77-.79c-1.31-.79-2.59-1.65-3.89-2.47a.76.76,0,0,1-.38-.77q0-13.09,0-26.18v-.68H18.85V42.88l-.19,0c-.56-1.4-1.18-2.78-1.68-4.2a25.2,25.2,0,0,1-1.11-8.67c0-5.92,0-11.83,0-17.74v-1a3.32,3.32,0,0,1,.35.13,15.61,15.61,0,0,0,14.28.07c1.08-.52,2.09-1.17,3.11-1.79a.57.57,0,0,1,.76,0,17.83,17.83,0,0,0,7.72,3.35,15.9,15.9,0,0,0,9.23-1.44l.67-.3h.11c0,.14,0,.28,0,.42,0,7,0,13.92,0,20.88a21.41,21.41,0,0,1-2.92,10.25Zm-24.3-4.51v3.29h.68V20.47c.25.09.48.1.59.21a3.08,3.08,0,0,1,.55.75c.24.49.6.56,1.14.41l-1-1.4a.17.17,0,0,1,.07,0,.89.89,0,0,0,.61-1,.86.86,0,0,0-.94-.75C26.06,18.57,25.49,18.59,24.89,18.59Zm13.23-1.42c.53,0,1,0,1.53,0a1,1,0,0,0,1.06-.61.85.85,0,0,0-.43-1.1c.52-.63.4-1.32-.28-1.42a13.08,13.08,0,0,0-1.88,0Zm10.49,1.44v2.08c-.4-.65-.75-1.16-1-1.71a.65.65,0,0,0-.9-.35v3.24h.65v-2c.39.64.73,1.12,1,1.64a.69.69,0,0,0,.94.37V18.61Zm-13.41.92c0-.78-.7-1.06-1.44-1a1,1,0,0,0-1,.83.93.93,0,0,0,.74,1c.28.1.57.15.84.26s.28.21.27.3a.56.56,0,0,1-.26.36c-.32.15-.72.16-.87-.18s-.48-.37-.82-.27c.11.91.87,1.33,1.88,1.06a1,1,0,0,0,.79-.94.93.93,0,0,0-.67-1c-.29-.11-.61-.16-.89-.28s-.23-.22-.34-.34c.14-.08.29-.23.44-.24s.45.05.52.17C34.59,19.67,34.88,19.57,35.2,19.53Zm9.44,2.32c-.42-1-.82-2.06-1.24-3.06a.55.55,0,0,0-.43-.2c-.15,0-.39.08-.43.19-.42,1-.8,2-1.2,3.07.46.13.79.09.91-.44,0-.11.25-.22.39-.24a1.78,1.78,0,0,1,.69,0c.14,0,.34.14.37.26C43.83,21.92,44.15,22,44.64,21.85ZM36.23,14c0,.74,0,1.42,0,2.1,0,.44-.26.61-.68.54s-.49-.33-.49-.68V14h-.63c0,.81,0,1.6,0,2.37,0,.54.45.81,1.09.83s1.27-.2,1.32-.74c.07-.82,0-1.65,0-2.49Zm-6.16.88a1.28,1.28,0,0,0-1.6-.92,1.56,1.56,0,0,0-1.16,1.76,1.45,1.45,0,0,0,1.32,1.51,1.23,1.23,0,0,0,1.43-1.06L29.51,16l.06.13c-.28.17-.55.45-.85.49-.48.07-.75-.43-.71-1.17s.34-1,.83-.91a1.07,1.07,0,0,1,.46.24.86.86,0,0,1,.2.26Zm-7.31,4.31V18.6H20.18v.55l.95.05v2.66h.71V19.17ZM39,21.88V19.15h1l0-.55H37.33v.55l.94.05v2.68ZM31.19,14v3.1h2.23l0-.54H31.83V14ZM29.85,18.6v3.27h.64V18.6Z"/><path class="cls-4" d="M32.73,37c.64,0,1.25,0,1.87,0a.75.75,0,0,1,.75.7.84.84,0,0,1-.51,1l-.2.07,1,1.39a.81.81,0,0,1-1.09-.41c-.25-.41-.43-1-1.16-.88v1.32h-.64Zm.65.53v.82a4.83,4.83,0,0,0,.94,0,.65.65,0,0,0,.37-.42c0-.1-.21-.34-.35-.37A6.13,6.13,0,0,0,33.38,37.48Z"/><path class="cls-4" d="M32.74,43.11h2.35l0,.49H33.38v.76H35v.53H33.39v.9h1.76v.54H32.74Z"/><path class="cls-4" d="M35.62,34c-.46.14-.74,0-.87-.43a.52.52,0,0,0-.38-.26,1.79,1.79,0,0,0-.73,0c-.15,0-.37.16-.4.29-.13.47-.41.53-.85.4.4-1,.78-2,1.2-3a.45.45,0,0,1,.38-.17.57.57,0,0,1,.43.18C34.82,32,35.22,33,35.62,34Zm-1.18-1.27L34,31.52l-.43,1.2Z"/><path class="cls-4" d="M34.14,49.78h-1.5l0-.51h2.45a3.09,3.09,0,0,1-.28.73c-.48.64-1,1.25-1.57,2H35v.52H32.32a4,4,0,0,1,.35-.85C33.11,51,33.6,50.45,34.14,49.78Z"/><path class="cls-4" d="M34.65,24.65h.6c0,.84,0,1.66,0,2.46a1,1,0,0,1-.61.72,2.56,2.56,0,0,1-1.2,0,.78.78,0,0,1-.64-.77c0-.8,0-1.6,0-2.43h.6c0,.67,0,1.32,0,2s.22.77.67.77.61-.22.62-.75S34.65,25.33,34.65,24.65Z"/><path class="cls-3" d="M24.89,18.59c.6,0,1.17,0,1.74,0a.86.86,0,0,1,.94.75.89.89,0,0,1-.61,1,.17.17,0,0,0-.07,0l1,1.4c-.54.15-.9.08-1.14-.41a3.08,3.08,0,0,0-.55-.75c-.11-.11-.34-.12-.59-.21v1.41h-.68Zm.7,1.36a4.07,4.07,0,0,0,.86,0c.16,0,.27-.25.41-.38-.14-.13-.27-.33-.43-.37a3.9,3.9,0,0,0-.84,0Z"/><path class="cls-3" d="M38.12,17.17V14A13.08,13.08,0,0,1,40,14c.68.1.8.79.28,1.42a.85.85,0,0,1,.43,1.1,1,1,0,0,1-1.06.61C39.15,17.16,38.65,17.17,38.12,17.17Zm.69-1.37v.78a4,4,0,0,0,.85,0c.16,0,.28-.25.41-.38-.13-.13-.25-.33-.41-.37A4,4,0,0,0,38.81,15.8Zm0-.59a4.55,4.55,0,0,0,.84,0,.53.53,0,0,0,.3-.35c0-.08-.18-.27-.31-.29a5.69,5.69,0,0,0-.83,0Z"/><path class="cls-3" d="M48.61,18.61h.65v3.24a.69.69,0,0,1-.94-.37c-.27-.52-.61-1-1-1.64v2h-.65V18.63a.65.65,0,0,1,.9.35c.29.55.64,1.06,1,1.71Z"/><path class="cls-3" d="M35.2,19.53c-.32,0-.61.14-.82-.23-.07-.12-.34-.18-.52-.17s-.3.16-.44.24c.11.12.2.28.34.34s.6.17.89.28a.93.93,0,0,1,.67,1,1,1,0,0,1-.79.94c-1,.27-1.77-.15-1.88-1.06.34-.1.6-.17.82.27s.55.33.87.18a.56.56,0,0,0,.26-.36c0-.09-.15-.25-.27-.3s-.56-.16-.84-.26a.93.93,0,0,1-.74-1,1,1,0,0,1,1-.83C34.5,18.47,35.19,18.75,35.2,19.53Z"/><path class="cls-3" d="M44.64,21.85c-.49.12-.81.07-.94-.42,0-.12-.23-.23-.37-.26a1.78,1.78,0,0,0-.69,0c-.14,0-.36.13-.39.24-.12.53-.45.57-.91.44.4-1,.78-2.06,1.2-3.07,0-.11.28-.19.43-.19a.55.55,0,0,1,.43.2C43.82,19.79,44.22,20.81,44.64,21.85Zm-1.26-1.31L43,19.44l-.39,1.1Z"/><path class="cls-3" d="M36.23,14h.63c0,.84.06,1.67,0,2.49-.05.54-.56.77-1.32.74s-1.06-.29-1.09-.83c-.06-.77,0-1.56,0-2.37h.63v1.93c0,.35.1.62.49.68s.67-.1.68-.54C36.24,15.4,36.23,14.72,36.23,14Z"/><path class="cls-3" d="M30.07,14.86,29.5,15a.86.86,0,0,0-.2-.26,1.07,1.07,0,0,0-.46-.24c-.49-.07-.79.27-.83.91s.23,1.24.71,1.17c.3,0,.57-.32.85-.49L29.51,16l.55.17a1.23,1.23,0,0,1-1.43,1.06,1.45,1.45,0,0,1-1.32-1.51,1.56,1.56,0,0,1,1.16-1.76A1.28,1.28,0,0,1,30.07,14.86Z"/><path class="cls-3" d="M22.76,19.17h-.92v2.69h-.71V19.2l-.95-.05V18.6h2.58Z"/><path class="cls-3" d="M39,21.88h-.7V19.2l-.94-.05V18.6h2.58l0,.55H39Z"/><path class="cls-3" d="M31.19,14h.64v2.56h1.56l0,.54H31.19Z"/><path class="cls-3" d="M29.85,18.6h.64v3.27h-.64Z"/><path class="cls-3" d="M33.38,37.48a6.13,6.13,0,0,1,1,0c.14,0,.36.27.35.37a.65.65,0,0,1-.37.42,4.83,4.83,0,0,1-.94,0Z"/><path class="cls-3" d="M34.44,32.72h-.9l.43-1.2Z"/><path class="cls-4" d="M25.59,20v-.77a3.9,3.9,0,0,1,.84,0c.16,0,.29.24.43.37-.14.13-.25.34-.41.38A4.07,4.07,0,0,1,25.59,20Z"/><path class="cls-4" d="M38.81,15.8a4,4,0,0,1,.85,0c.16,0,.28.24.41.37-.13.13-.25.34-.41.38a4,4,0,0,1-.85,0Z"/><path class="cls-4" d="M38.79,15.21v-.67a5.69,5.69,0,0,1,.83,0c.13,0,.33.21.31.29a.53.53,0,0,1-.3.35A4.55,4.55,0,0,1,38.79,15.21Z"/><path class="cls-4" d="M43.38,20.54h-.82l.39-1.1Z"/></g></g></svg>