<svg xmlns="http://www.w3.org/2000/svg" viewBox="0 0 141.11 176.46"><defs><style>.cls-1{fill:#bebdbd;}.cls-2,.cls-3{fill:none;stroke:#c9cbd2;stroke-miterlimit:10;}.cls-2{stroke-width:1.47px;}.cls-11,.cls-3{font-size:14.96px;letter-spacing:0.01em;}.cls-3{stroke-width:1.47px;}.cls-11,.cls-12,.cls-13,.cls-14,.cls-15,.cls-16,.cls-17,.cls-18,.cls-19,.cls-20,.cls-21,.cls-22,.cls-23,.cls-24,.cls-27,.cls-3{font-family:SportsWorld, Sports World;}.cls-4{letter-spacing:0.01em;}.cls-5{letter-spacing:0.01em;}.cls-6{letter-spacing:0.02em;}.cls-7{letter-spacing:0.02em;}.cls-8{letter-spacing:0.01em;}.cls-9{letter-spacing:0em;}.cls-10{letter-spacing:0.02em;}.cls-11,.cls-12,.cls-13,.cls-14,.cls-15,.cls-16,.cls-17,.cls-18,.cls-19,.cls-20,.cls-21,.cls-22,.cls-23,.cls-24,.cls-25{fill:#1d1d1b;}.cls-12{font-size:14.96px;}.cls-13{font-size:14.96px;}.cls-14{font-size:14.96px;}.cls-15{font-size:14.96px;}.cls-16{font-size:14.96px;}.cls-17{font-size:14.96px;}.cls-18{font-size:14.96px;}.cls-19{font-size:14.96px;}.cls-20{font-size:14.96px;}.cls-21{font-size:14.96px;}.cls-22{font-size:14.96px;}.cls-23{font-size:14.96px;}.cls-24{font-size:14.96px;}.cls-26{fill:#fff;}.cls-27{font-size:24.63px;fill:#191830;}</style></defs><g id="Layer_2" data-name="Layer 2"><g id="Capa_1" data-name="Capa 1"><polygon class="cls-1" points="39.89 31.41 39.89 52.17 56.34 52.17 56.34 47.8 60.71 47.8 60.71 90.39 81.77 91.89 81.77 47.8 86.14 47.8 86.14 52.17 102.58 52.17 102.58 31.41 39.89 31.41"/><polygon class="cls-1" points="81.77 99.71 61.14 98.22 61.14 132.32 56.79 132.32 56.79 149.04 85.95 149.04 85.95 132.32 81.77 132.32 81.77 99.71"/><polygon class="cls-1" points="71.48 100.66 71.48 83.89 36.7 84.12 36.7 75.63 39.15 75.63 39.15 59.19 13.56 59.19 13.56 75.61 16.32 75.61 16.32 108.51 13.56 108.51 13.56 125.27 39.15 125.27 39.15 108.51 36.48 108.51 36.48 100.66 71.48 100.66"/><polygon class="cls-2" points="24.09 163.89 24.09 169.26 25.23 169.57 25.23 171.87 20.31 171.87 20.31 169.57 20.98 169.26 20.98 167.42 18.45 167.42 18.45 169.26 19.14 169.57 19.14 171.87 14.22 171.87 14.22 169.57 15.36 169.26 15.36 163.89 14.22 163.59 14.22 161.27 19.14 161.27 19.14 163.59 18.45 163.89 18.45 165.6 20.98 165.6 20.98 163.89 20.31 163.59 20.31 161.27 25.23 161.27 25.23 163.59 24.09 163.89"/><text class="cls-3" transform="translate(13.56 171.87) scale(1 1.01)">H<tspan class="cls-4" x="12.49" y="0">O</tspan><tspan class="cls-5" x="22.75" y="0">C</tspan><tspan class="cls-6" x="32.89" y="0">K</tspan><tspan class="cls-7" x="45.17" y="0">E</tspan><tspan class="cls-8" x="56.05" y="0">Y </tspan><tspan class="cls-5" x="72.69" y="0">C</tspan><tspan class="cls-9" x="82.84" y="0">L</tspan><tspan class="cls-10" x="92.94" y="0">U</tspan><tspan class="cls-8" x="104.74" y="0">B</tspan></text><polygon class="cls-2" points="10.49 35.49 8.8 34.52 8.08 35.43 12.42 38.87 13.47 38.06 15.26 39.48 11.75 43.91 9.96 42.49 10.51 41.31 6.16 37.85 5.44 38.76 6.76 40.19 5.38 41.92 1.96 39.2 8.43 31.04 11.86 33.76 10.49 35.49"/><path class="cls-2" d="M17.22,37.13l-1.58-1.67.62-1-3.68-3.92-1,.56L10,29.41l5.66-5.33L18.28,24l2.17,2.31-.21,1.94,2.08.55.68-.43,1.69,1.79-2.07,1.94L18,30.69l-.57.53,1.05,1.11,1-.56,1.57,1.68ZM16,29.68l1.55-1.46.05-.47-.78-.82-.47,0-1.54,1.46Z"/><polygon class="cls-2" points="24.29 20.62 27.47 24.95 28.57 24.53 29.93 26.38 25.61 29.55 24.24 27.7 24.98 26.78 21.8 22.44 20.71 22.87 19.34 21 23.66 17.83 25.03 19.7 24.29 20.62"/><polygon class="cls-2" points="35.26 15.21 32.83 16.59 32.02 15.78 30.22 16.81 30.03 17.26 30.33 17.8 30.75 17.86 34.18 16.61 36.39 16.95 37.89 19.58 36.91 22.2 32.99 24.42 30.26 23.92 29.31 22.25 31.75 20.86 32.55 21.68 34.45 20.6 34.62 20.14 34.27 19.52 33.9 19.43 30.47 20.68 28.19 20.27 26.76 17.76 27.68 15.25 31.66 12.99 34.28 13.48 35.26 15.21"/><polygon class="cls-2" points="44.7 11.98 43.71 10.3 42.64 10.73 44.69 15.88 46 15.7 46.84 17.83 41.58 19.91 40.74 17.79 41.81 17.04 39.76 11.87 38.69 12.29 39.12 14.19 37.06 15.01 35.45 10.94 45.13 7.1 46.74 11.17 44.7 11.98"/><path class="cls-2" d="M50.05,4.63l-.52-.92,3.9-2.65.81,1.48Zm2.39,6,1.29-.3L52.54,8.15Zm7.14,1.5.51,2.23-5.17,1.2-.52-2.24.7-.48L54.63,12l-2.21.51,0,1,.78.13.52,2.24-4.37,1L48.8,14.6l1.05-.55.28-5.59-1-.07-.52-2.26,5.89-1.36,3.77,7.35Z"/><polygon class="cls-2" points="71.32 2.84 71.5 5.15 70.39 5.54 71 13.5 67.99 13.73 64.09 8.11 64.34 11.4 65.5 11.61 65.67 13.91 60.8 14.28 60.62 11.99 61.73 11.6 61.32 6.24 60.16 6.03 59.98 3.72 64.46 3.37 68 8.78 67.76 5.74 66.61 5.53 66.43 3.22 71.32 2.84"/><polygon class="cls-2" points="88.07 8.37 85.31 7.94 85.18 6.81 83.12 6.49 82.69 6.73 82.6 7.35 82.89 7.65 86.36 8.8 87.88 10.43 87.42 13.43 85.03 14.87 80.58 14.19 78.75 12.1 79.04 10.2 81.81 10.62 81.94 11.76 84.09 12.09 84.51 11.84 84.62 11.13 84.38 10.84 80.92 9.69 79.39 7.95 79.83 5.09 82.1 3.7 86.63 4.39 88.38 6.4 88.07 8.37"/><polygon class="cls-2" points="99.52 10.49 97.68 16.55 95.32 17.56 90.81 16.18 89.4 14.03 91.25 7.97 90.25 7.35 90.92 5.13 95.64 6.57 94.96 8.79 94.21 8.88 92.75 13.68 93.03 14.13 94.69 14.64 95.17 14.42 96.63 9.61 96.08 9.13 96.75 6.91 101.38 8.32 100.7 10.54 99.52 10.49"/><path class="cls-2" d="M106.82,9.51l.17-1,4.7.38-.3,1.65Zm-1.89,6.16,1.2.58.43-2.43Zm4.63,5.65-1,2.06-4.78-2.31,1-2.07.84.07.17-1-2-1-.64.74.53.59-1,2.07-4-1.94,1-2.08,1.17.23,3.71-4.18-.75-.7,1-2.08,5.44,2.62-1.65,8.09Z"/><path class="cls-2" d="M109.15,23.77l1.3-1.9,1.11.39,3-4.44-.77-.89L115.13,15l6.42,4.38.7,2.57-1.78,2.61-2,.22L118.43,27l.57.57-1.38,2L115.27,28l.35-4.77-.64-.44L114.12,24l.77.89-1.3,1.9Zm7-2.78,1.75,1.2.47-.05.64-.93-.13-.46-1.75-1.19Z"/><polygon class="cls-2" points="127.94 29.67 128.47 28.65 126.61 26.95 125.44 28.23 127.3 29.92 126.07 31.26 124.22 29.57 122.97 30.93 124.82 32.63 125.79 32.01 127.42 33.51 124.92 36.24 118.1 30 119.65 28.3 120.7 28.85 124.33 24.88 123.69 23.89 125.26 22.18 132.07 28.42 129.56 31.15 127.94 29.67"/><polygon class="cls-2" points="130.22 38.45 131.62 40.13 132.91 39.44 134.33 41.14 131.23 43.73 125.47 36.84 127.1 35.48 134.59 35.27 133.23 33.66 131.94 34.35 130.52 32.65 133.62 30.06 139.33 36.89 137.68 38.27 130.22 38.45"/><text class="cls-11" transform="translate(13.56 171.87) scale(1 1.01)">H<tspan class="cls-4" x="12.49" y="0">O</tspan><tspan class="cls-5" x="22.75" y="0">C</tspan><tspan class="cls-6" x="32.89" y="0">K</tspan><tspan class="cls-7" x="45.17" y="0">E</tspan><tspan class="cls-8" x="56.05" y="0">Y </tspan><tspan class="cls-5" x="72.69" y="0">C</tspan><tspan class="cls-9" x="82.84" y="0">L</tspan><tspan class="cls-10" x="92.94" y="0">U</tspan><tspan class="cls-8" x="104.74" y="0">B</tspan></text><text class="cls-12" transform="translate(10.08 45.98) rotate(-51.57) scale(1 1.01)">T</text><text class="cls-13" transform="matrix(0.73, -0.69, 0.69, 0.74, 16.5, 37.3)">R</text><text class="cls-14" transform="translate(24.59 29.93) rotate(-36.25) scale(1 1.01)">I</text><text class="cls-15" transform="translate(30.76 25.98) rotate(-29.61) scale(1 1.01)">S</text><text class="cls-16" transform="translate(39.21 20.98) rotate(-21.63) scale(1 1.01)">T</text><text class="cls-15" transform="matrix(0.97, -0.23, 0.23, 0.99, 49.2, 17.11)">Á</text><text class="cls-17" transform="translate(59.99 14.1) rotate(-4.41) scale(1 1.01)">N</text><text class="cls-18" transform="matrix(1, 0.05, -0.05, 1.01, 72.38, 13.86)"> </text><text class="cls-19" transform="translate(78.09 14.05) rotate(8.74) scale(1 1.01)">S</text><text class="cls-20" transform="translate(87.64 15.3) rotate(16.94) scale(1 1.01)">U</text><text class="cls-21" transform="matrix(0.9, 0.43, -0.44, 0.91, 97.99, 18.48)">Á</text><text class="cls-22" transform="matrix(0.83, 0.56, -0.57, 0.84, 108.55, 23.34)">R</text><text class="cls-23" transform="translate(117.65 29.61) rotate(42.48) scale(1 1.01)">E</text><text class="cls-24" transform="translate(125.02 36.21) rotate(50.14) scale(1 1.01)">Z</text><polyline class="cls-1" points="89.87 125.23 117.62 125.14 128.88 113.52 128.88 98.36 112.37 98.36 112.36 107.14 110.7 108.56 94.55 108.56"/><polyline class="cls-25" points="93.93 121.14 115.72 121.14 124.79 111.95 124.79 102.38 116.37 102.38 116.41 108.73 112.67 112.55 97.19 112.55"/><polyline class="cls-1" points="85.92 59.1 117.62 59.19 128.88 70.81 128.88 85.97 112.37 85.97 112.36 77.19 110.86 75.63 94.56 75.69"/><polyline class="cls-25" points="89.87 63.09 115.63 63.1 124.79 72.37 124.79 81.94 116.37 81.94 116.41 75.6 112.42 71.53 97.2 71.53"/><polygon class="cls-25" points="17.62 121.12 17.62 112.56 20.32 112.56 20.32 71.53 17.65 71.53 17.6 63.1 35.11 63.1 35.16 71.53 32.48 71.53 32.48 88.14 62.78 88.14 62.78 96.63 32.48 96.63 32.48 112.56 35.16 112.56 35.16 121.12 17.62 121.12"/><polygon class="cls-26" points="57.75 96.56 48.12 86.93 48.12 69.35 57.75 59.72 85.92 59.72 95.54 69.35 95.54 77.75 83.47 77.75 83.47 72.67 78.92 68.12 64.66 68.12 60.11 72.67 60.11 83.7 64.66 88.16 85.92 88.16 95.54 97.78 95.54 115.02 85.92 124.64 57.75 124.64 48.12 115.02 48.12 106.97 60.11 106.97 60.11 111.78 64.66 116.25 78.92 116.25 83.47 111.78 83.47 101.11 78.92 96.56 57.75 96.56"/><text class="cls-27" transform="translate(116.96 46.08) rotate(2.66) scale(1 1.01)"> </text><polygon class="cls-25" points="44.56 35.37 44.56 48.14 52.88 48.14 52.88 43.77 65.29 43.77 65.29 75.66 65.29 75.66 65.29 136.5 60.92 136.5 60.92 144.9 81.74 144.9 81.74 136.5 77.37 136.5 77.37 83.53 77.37 83.53 77.37 43.77 89.79 43.77 89.79 48.14 97.91 48.14 97.91 35.37 44.56 35.37"/><polygon class="cls-1" points="55.51 99.17 44.73 88.14 44.73 67.14 55.78 55.77 85.27 55.59 97.24 67.72 97.36 81.99 77.97 81.99 77.97 74.63 75.7 72.37 65.02 72.37 62.66 74.73 63.4 81.79 65.52 83.96 86.84 83.98 98.68 96 98.92 116.58 86.96 128.67 55.51 128.65 44.44 117.05 44.3 102.82 62.66 102.82 62.66 110.16 65.02 112.44 75.7 112.44 77.97 110.16 77.97 103.17 75.7 100.8 55.51 99.17"/><polygon class="cls-25" points="58.57 96.57 49.16 87.11 49.16 68.16 57.45 59.74 83.81 59.74 93.16 69.2 93.14 77.76 80.98 77.76 80.98 72.03 77.06 68.17 63.75 68.24 61.24 70.75 61.24 85.37 63.98 88.1 85.24 88.17 94.86 97.8 94.86 115.03 85.24 124.66 57.06 124.66 48.32 115.03 48.32 106.98 60.38 106.98 60.38 112.91 63.76 116.26 78.24 116.26 82.79 111.8 82.79 99.84 79.45 96.52 58.57 96.57"/><polyline class="cls-25" points="77.38 100 77.38 136.5 81.75 136.5 81.75 144.9 60.87 144.9 60.87 136.5 65.24 136.5 65.24 100"/></g></g></svg>