<svg xmlns="http://www.w3.org/2000/svg" viewBox="0 0 245.63 35.4"><defs><style>.cls-1{fill:#1d1d1b;}</style></defs><g id="Layer_2" data-name="Layer 2"><g id="Capa_1" data-name="Capa 1"><path class="cls-1" d="M3.86,31.24V.58H0V34.8H23.12V31.24Z"/><path class="cls-1" d="M39.51,0C29.09,0,22,8.25,22,17.7v.09c0,9.43,7,17.61,17.4,17.61s17.51-8.27,17.51-17.7v-.11C56.91,8.16,49.91,0,39.51,0ZM52.9,17.79c0,7.77-5.57,14-13.39,14S26,25.47,26,17.7v-.11c0-7.77,5.57-14,13.39-14S52.9,9.93,52.9,17.7Z"/><path class="cls-1" d="M84,.58,71.83,30.06,59.64.58h-4.3L70.06,35.05h3.42L88.19.58Z"/><path class="cls-1" d="M94,31.29v-12h18.67V15.79H94V4.1h20.87V.58H90.15V34.8h25V31.29Z"/><path class="cls-1" d="M131.86,31.24V.58H128V34.8h23.12V31.24Z"/><path class="cls-1" d="M167.51,0C157.09,0,150,8.25,150,17.7v.09c0,9.43,7,17.61,17.4,17.61s17.51-8.27,17.51-17.7v-.11C184.91,8.16,177.91,0,167.51,0ZM180.9,17.79c0,7.77-5.57,14-13.39,14S154,25.47,154,17.7v-.11c0-7.77,5.57-14,13.39-14s13.5,6.37,13.5,14.14Z"/><path class="cls-1" d="M192.14,31.24V.58h-3.86V34.8h23.13V31.24Z"/><path class="cls-1" d="M230,.34h-3.61l-15,33.17-.58,1.29h4l4.05-9h18.62l4,9h4.16Zm-9.68,22,7.83-17.46L236,22.29Z"/></g></g></svg>