<svg xmlns="http://www.w3.org/2000/svg" viewBox="0 0 186.06 109.82"><defs><style>.cls-1{fill:#101820;}</style></defs><g id="Layer_2" data-name="Layer 2"><g id="Capa_1" data-name="Capa 1"><path class="cls-1" d="M40.39,104.08V72.44a14.75,14.75,0,0,0-4.56-10.88A14.76,14.76,0,0,0,25,57.05a14.87,14.87,0,0,0-10.88,4.51,14.88,14.88,0,0,0-4.5,10.88v33.63H0V72.44A24,24,0,0,1,7.55,55Q15.11,47.43,25,47.42T42.42,55A24,24,0,0,1,50,72.44l0,27Z"/><path class="cls-1" d="M159.8,106.07l-13-20-13.07,20H122.33L141,77.23,130.53,60.11l8.24-4.1,8.07,12.36,15.6-24.2,18-8.9-27.87,42,18.71,28.84Z"/><path class="cls-1" d="M110.07,78.08a19.65,19.65,0,0,1-7.33,13.5,19.07,19.07,0,0,1-14.67,4.27,18.72,18.72,0,0,1-12.43-6.19l-9,4.54,0,0,.27.34a29.35,29.35,0,0,0,20.16,10.76A29.62,29.62,0,0,0,119.7,79.11Zm8.1-12.53a26.3,26.3,0,0,0-9.25-12.86,29.32,29.32,0,0,0-15.71-6.55,28.51,28.51,0,0,0-21.89,6.5A28.72,28.72,0,0,0,60.46,72.73c-.78,7.25.36,13.49,4.3,19.26ZM70,73.76a19.73,19.73,0,0,1,7.35-13.61,19.12,19.12,0,0,1,14.8-4.44,19.61,19.61,0,0,1,13.25,6.92l-35,17.74A21.19,21.19,0,0,1,70,73.76Z"/><path class="cls-1" d="M146.76,33.2a3.22,3.22,0,0,1-2.84,3.66,2.93,2.93,0,0,1-3-2.9,2.75,2.75,0,0,1,2.33-3A2.8,2.8,0,0,1,146.76,33.2Z"/><path class="cls-1" d="M141.12,39.36a3.21,3.21,0,0,1-4,2.27,2.91,2.91,0,0,1-1.62-3.81A2.75,2.75,0,0,1,138.75,36,2.83,2.83,0,0,1,141.12,39.36Z"/><path class="cls-1" d="M133.54,42.87a3.19,3.19,0,0,1-4.58.56,2.9,2.9,0,0,1-.05-4.14,2.75,2.75,0,0,1,3.74-.43A2.81,2.81,0,0,1,133.54,42.87Z"/><path class="cls-1" d="M125.2,43.23A3.21,3.21,0,0,1,120.75,42a2.9,2.9,0,0,1,1.54-3.83,2.75,2.75,0,0,1,3.63,1A2.81,2.81,0,0,1,125.2,43.23Z"/><path class="cls-1" d="M117.36,40.36a3.22,3.22,0,0,1-3.65-2.84,2.91,2.91,0,0,1,2.89-3,2.76,2.76,0,0,1,3,2.32A2.83,2.83,0,0,1,117.36,40.36Z"/><path class="cls-1" d="M111.21,34.72a3.22,3.22,0,0,1-2.28-4,2.91,2.91,0,0,1,3.8-1.62,2.76,2.76,0,0,1,1.85,3.29A2.84,2.84,0,0,1,111.21,34.72Z"/><path class="cls-1" d="M107.69,27.14a3.21,3.21,0,0,1-.56-4.59,2.91,2.91,0,0,1,4.14-.05,2.77,2.77,0,0,1,.44,3.74A2.81,2.81,0,0,1,107.69,27.14Z"/><path class="cls-1" d="M107.33,18.8a3.22,3.22,0,0,1,1.26-4.46,2.91,2.91,0,0,1,3.83,1.55,2.75,2.75,0,0,1-1,3.61A2.81,2.81,0,0,1,107.33,18.8Z"/><path class="cls-1" d="M110.2,11A3.23,3.23,0,0,1,113,7.3a2.92,2.92,0,0,1,3,2.89,2.75,2.75,0,0,1-2.33,3A2.83,2.83,0,0,1,110.2,11Z"/><path class="cls-1" d="M115.85,4.8a3.2,3.2,0,0,1,4-2.27,2.9,2.9,0,0,1,1.62,3.8,2.75,2.75,0,0,1-3.28,1.84A2.82,2.82,0,0,1,115.85,4.8Z"/><path class="cls-1" d="M123.42,1.28A3.22,3.22,0,0,1,128,.72a2.92,2.92,0,0,1,0,4.14,2.74,2.74,0,0,1-3.74.43A2.81,2.81,0,0,1,123.42,1.28Z"/><path class="cls-1" d="M131.77.92a3.23,3.23,0,0,1,4.46,1.26A2.93,2.93,0,0,1,134.68,6a2.77,2.77,0,0,1-3.63-1A2.84,2.84,0,0,1,131.77.92Z"/><path class="cls-1" d="M139.61,3.8a3.21,3.21,0,0,1,3.65,2.84,2.9,2.9,0,0,1-2.89,3,2.74,2.74,0,0,1-3-2.32A2.82,2.82,0,0,1,139.61,3.8Z"/><path class="cls-1" d="M145.76,9.45a3.21,3.21,0,0,1,2.29,4,2.92,2.92,0,0,1-3.82,1.62,2.74,2.74,0,0,1-1.83-3.28A2.8,2.8,0,0,1,145.76,9.45Z"/><path class="cls-1" d="M149.28,17a3.21,3.21,0,0,1,.56,4.6,2.91,2.91,0,0,1-4.14,0,2.75,2.75,0,0,1-.43-3.73A2.81,2.81,0,0,1,149.28,17Z"/><path class="cls-1" d="M149.64,25.36a3.23,3.23,0,0,1-1.25,4.46,2.91,2.91,0,0,1-3.84-1.54,2.75,2.75,0,0,1,1-3.63A2.81,2.81,0,0,1,149.64,25.36Z"/><path class="cls-1" d="M140.1,30a3.29,3.29,0,0,1-3.42,3.46,2.94,2.94,0,0,1-2.38-3.4,2.52,2.52,0,0,1,2.44-2.44A2.82,2.82,0,0,1,140.1,30Z"/><path class="cls-1" d="M133.21,35.34a3.29,3.29,0,0,1-4.79.77c-1.35-1.19-.88-3,.05-4.14a2.52,2.52,0,0,1,3.43-.53A2.83,2.83,0,0,1,133.21,35.34Z"/><path class="cls-1" d="M124.51,35.59a3.27,3.27,0,0,1-4.33-2.19c-.38-1.77,1.07-3,2.48-3.32a2.54,2.54,0,0,1,3.08,1.58A2.82,2.82,0,0,1,124.51,35.59Z"/><path class="cls-1" d="M117.33,30.66a3.29,3.29,0,0,1-2.21-4.32c.73-1.63,2.61-1.76,4-1.22a2.53,2.53,0,0,1,1.56,3.1C120.31,29.68,119.09,31.1,117.33,30.66Z"/><path class="cls-1" d="M114.41,22.48a3.28,3.28,0,0,1,.75-4.81c1.55-.9,3.15.11,3.92,1.34a2.52,2.52,0,0,1-.56,3.41A2.82,2.82,0,0,1,114.41,22.48Z"/><path class="cls-1" d="M116.87,14.13a3.28,3.28,0,0,1,3.42-3.46,2.94,2.94,0,0,1,2.38,3.39,2.53,2.53,0,0,1-2.45,2.45A2.83,2.83,0,0,1,116.87,14.13Z"/><path class="cls-1" d="M123.76,8.82a3.3,3.3,0,0,1,4.8-.78c1.34,1.19.88,3-.06,4.15a2.52,2.52,0,0,1-3.43.53C123.79,12,122.81,10.37,123.76,8.82Z"/><path class="cls-1" d="M132.46,8.58a3.26,3.26,0,0,1,4.33,2.18,2.93,2.93,0,0,1-2.48,3.32,2.54,2.54,0,0,1-3.08-1.58A2.82,2.82,0,0,1,132.46,8.58Z"/><path class="cls-1" d="M139.63,13.5a3.28,3.28,0,0,1,2.23,4.31c-.73,1.64-2.61,1.76-4,1.22a2.52,2.52,0,0,1-1.57-3.09C136.66,14.48,137.88,13.06,139.63,13.5Z"/><path class="cls-1" d="M142.56,21.68a3.28,3.28,0,0,1-.75,4.81c-1.55.9-3.15-.11-3.91-1.35a2.5,2.5,0,0,1,.55-3.41A2.82,2.82,0,0,1,142.56,21.68Z"/><path class="cls-1" d="M133.12,26.74c0,1.73-2.56,3-4,2.05s-.85-2.57-.44-3.56.69-1.16,1.82-.94S133.26,25.07,133.12,26.74Z"/><path class="cls-1" d="M125.55,28.26a2.77,2.77,0,0,1-3.15-3.16c.41-1.59,2.14-1.59,3.25-1.52s1.3.28,1.43,1.46S127.2,27.86,125.55,28.26Z"/><path class="cls-1" d="M121.78,21.52a2.75,2.75,0,0,1,2-4c1.65-.07,2.18,1.57,2.45,2.63s.09,1.33-.94,1.82S122.65,23,121.78,21.52Z"/><path class="cls-1" d="M121.78,21.52a2.75,2.75,0,0,1,2-4c1.65-.07,2.18,1.57,2.45,2.63s.09,1.33-.94,1.82S122.65,23,121.78,21.52Z"/><path class="cls-1" d="M127,15.84a2.77,2.77,0,0,1,4.4.71c.6,1.54-.81,2.56-1.72,3.14s-1.23.52-2-.34S125.9,17.12,127,15.84Z"/><path class="cls-1" d="M134,19.07c1.61.56,2.05,3.38.68,4.42s-2.67,0-3.53-.68-.86-1-.27-2S132.46,18.43,134,19.07Z"/><path class="cls-1" d="M186.06,104.28a5.66,5.66,0,1,1-5.61-5.5A5.55,5.55,0,0,1,186.06,104.28Zm-9.91,0a4.29,4.29,0,0,0,4.3,4.4,4.2,4.2,0,0,0,4.19-4.36,4.25,4.25,0,1,0-8.49,0Zm3.39,2.86h-1.27v-5.51a14.27,14.27,0,0,1,2.11-.17,2.9,2.9,0,0,1,1.88.44,1.38,1.38,0,0,1,.58,1.17,1.42,1.42,0,0,1-1.15,1.31v.07c.54.17.81.6,1,1.34a4.87,4.87,0,0,0,.4,1.35h-1.35a4.89,4.89,0,0,1-.43-1.35c-.1-.57-.44-.84-1.15-.84h-.6Zm0-3.09h.6c.71,0,1.28-.24,1.28-.81s-.38-.84-1.18-.84a3.18,3.18,0,0,0-.7.07Z"/></g></g></svg>