<svg xmlns="http://www.w3.org/2000/svg" viewBox="0 0 169.62 167.64"><defs><style>.cls-1{fill:#1d1d1b;}.cls-2{fill:#868686;}.cls-3{fill:#fff;}</style></defs><g id="Layer_2" data-name="Layer 2"><g id="Capa_1" data-name="Capa 1"><path class="cls-1" d="M167.63,83.82A83.82,83.82,0,1,1,83.82,0,83.81,83.81,0,0,1,167.63,83.82Z"/><path class="cls-2" d="M35.11,115.45v7.39h-.79v-.66h-.07a1.33,1.33,0,0,1-.64.54,5.87,5.87,0,0,1-1.83.18,12.88,12.88,0,0,1-1.47-.07,2.6,2.6,0,0,1-1-.28,1.62,1.62,0,0,1-.59-.6,3.39,3.39,0,0,1-.31-1.66,3.46,3.46,0,0,1,.31-1.67,1.84,1.84,0,0,1,.53-.6,2.15,2.15,0,0,1,.8-.29,13.76,13.76,0,0,1,1.91-.09,7.64,7.64,0,0,1,1.27.07,1.41,1.41,0,0,1,1,.62h.05v-2.88Zm-3.24,2.89a11.06,11.06,0,0,0-1.37.07,1.26,1.26,0,0,0-1,.59,4,4,0,0,0,0,2.48,1.18,1.18,0,0,0,.94.63,6.16,6.16,0,0,0,1.21.08,10.9,10.9,0,0,0,1.51-.07,2,2,0,0,0,.61-.19,1.07,1.07,0,0,0,.37-.39,3.86,3.86,0,0,0,0-2.57,1.25,1.25,0,0,0-.89-.55A8.45,8.45,0,0,0,31.87,118.34Z"/><path class="cls-2" d="M39.39,117.71h.82v.7h.06a1.35,1.35,0,0,1,.58-.55,2.1,2.1,0,0,1,.74-.18q.34,0,1,0a4.43,4.43,0,0,1,1.34.15c.62.22.93.78.93,1.69V120h-.83v-.37A2.83,2.83,0,0,0,44,119a.71.71,0,0,0-.53-.51,3.24,3.24,0,0,0-.93-.1,4.85,4.85,0,0,0-1.56.18,1,1,0,0,0-.63.75,4.37,4.37,0,0,0-.12,1.19v2.36h-.82Z"/><path class="cls-2" d="M49.38,117.71h.83v2.6a4.24,4.24,0,0,0,.1,1.11.93.93,0,0,0,.75.66,5.61,5.61,0,0,0,1.23.11A4.63,4.63,0,0,0,54,122a1.18,1.18,0,0,0,.46-.34,1.07,1.07,0,0,0,.24-.49,5.06,5.06,0,0,0,.06-.87v-2.54h.83v5.13h-.83v-.77h0a1.48,1.48,0,0,1-.63.59,5,5,0,0,1-1.89.24,6.36,6.36,0,0,1-1.71-.18,1.25,1.25,0,0,1-1-.86,4.84,4.84,0,0,1-.14-1.32Z"/><path class="cls-2" d="M65.36,117.71h.82v3.84a9.46,9.46,0,0,1-.13,1.84,1.47,1.47,0,0,1-.61,1,2.53,2.53,0,0,1-1.28.37c-.32,0-.82,0-1.48,0a6.68,6.68,0,0,1-2-.19,1.36,1.36,0,0,1-1-1,3.8,3.8,0,0,1,0-.43h.83a1.17,1.17,0,0,0,.1.42,1,1,0,0,0,.73.45,6.72,6.72,0,0,0,1.29.09,7.16,7.16,0,0,0,2-.19.9.9,0,0,0,.63-.76,7.56,7.56,0,0,0,.1-1.11H65.3a1.5,1.5,0,0,1-.7.51,6.77,6.77,0,0,1-1.8.15,9.59,9.59,0,0,1-1.73-.12,1.53,1.53,0,0,1-.69-.25,1.49,1.49,0,0,1-.5-.5,3,3,0,0,1-.38-1.65,2.18,2.18,0,0,1,1-2.2,3.15,3.15,0,0,1,1.15-.24c.28,0,.7,0,1.27,0a9.22,9.22,0,0,1,1.28.06,1.45,1.45,0,0,1,1.07.66h.06Zm-2.43.65a5,5,0,0,0-2,.25c-.41.2-.61.73-.61,1.57s.23,1.35.68,1.57a5.36,5.36,0,0,0,1.83.19,4.55,4.55,0,0,0,1.94-.26,1.14,1.14,0,0,0,.44-.61,3.35,3.35,0,0,0,.11-1,2.1,2.1,0,0,0-.22-1.11,1.3,1.3,0,0,0-.94-.52A7.9,7.9,0,0,0,62.93,118.36Z"/><path class="cls-2" d="M70,121.05h.86v.15a1.23,1.23,0,0,0,.11.62,1.1,1.1,0,0,0,.84.33c.28,0,.79,0,1.53,0a12.39,12.39,0,0,0,1.56-.06.8.8,0,0,0,.64-.35.87.87,0,0,0,.08-.39.72.72,0,0,0-.19-.55.66.66,0,0,0-.38-.19,3.74,3.74,0,0,0-.79-.05l-2.34,0a3.51,3.51,0,0,1-1.1-.15,1.07,1.07,0,0,1-.6-.51,1.79,1.79,0,0,1-.14-.75,1.3,1.3,0,0,1,.51-1.16,2.41,2.41,0,0,1,1.14-.31c.36,0,.87,0,1.54,0a7.32,7.32,0,0,1,2.22.23,1.17,1.17,0,0,1,.68.56,2.11,2.11,0,0,1,.12.86H75.4a.91.91,0,0,0-.17-.63,1.31,1.31,0,0,0-.65-.24,9.64,9.64,0,0,0-1.4-.08,4.82,4.82,0,0,0-2,.24.76.76,0,0,0-.11,1,.86.86,0,0,0,.45.17,7.23,7.23,0,0,0,.92,0c.6,0,1.39,0,2.36,0a1.86,1.86,0,0,1,1.38.5,1.54,1.54,0,0,1,.28,1,1.78,1.78,0,0,1-.14.76,1.1,1.1,0,0,1-.44.47,2.77,2.77,0,0,1-1.09.26c-.36,0-.87,0-1.52,0a14.72,14.72,0,0,1-1.93-.09,1.85,1.85,0,0,1-1-.35,1.09,1.09,0,0,1-.34-.56,3,3,0,0,1,0-.55C70,121.29,70,121.19,70,121.05Z"/><path class="cls-2" d="M121.73,121.05h.87v.15a1.26,1.26,0,0,0,.1.62,1.1,1.1,0,0,0,.84.33c.28,0,.79,0,1.53,0a12.08,12.08,0,0,0,1.55-.06.82.82,0,0,0,.65-.35.75.75,0,0,0,.08-.39.72.72,0,0,0-.19-.55.61.61,0,0,0-.39-.19,3.6,3.6,0,0,0-.78-.05l-2.35,0a3.44,3.44,0,0,1-1.09-.15,1.07,1.07,0,0,1-.6-.51,1.79,1.79,0,0,1-.14-.75,1.3,1.3,0,0,1,.51-1.16,2.41,2.41,0,0,1,1.14-.31c.36,0,.87,0,1.54,0a7.44,7.44,0,0,1,2.23.23,1.21,1.21,0,0,1,.67.56,2.3,2.3,0,0,1,.12.86h-.86a.92.92,0,0,0-.16-.63,1.27,1.27,0,0,0-.65-.24,9.64,9.64,0,0,0-1.4-.08,4.88,4.88,0,0,0-2,.24.64.64,0,0,0-.25.58.59.59,0,0,0,.15.47.86.86,0,0,0,.45.17,7.31,7.31,0,0,0,.93,0c.59,0,1.38,0,2.35,0a1.81,1.81,0,0,1,1.37.5,1.48,1.48,0,0,1,.29,1,1.64,1.64,0,0,1-.14.76,1.1,1.1,0,0,1-.44.47,2.73,2.73,0,0,1-1.09.26c-.36,0-.87,0-1.52,0a14.72,14.72,0,0,1-1.93-.09,1.81,1.81,0,0,1-1-.35,1.11,1.11,0,0,1-.35-.56,3,3,0,0,1,0-.55C121.72,121.29,121.72,121.19,121.73,121.05Z"/><path class="cls-2" d="M81.94,116.44h.83v1.27h3.58v.71H82.77v2.22c0,.46,0,.75,0,.86a.63.63,0,0,0,.16.34.62.62,0,0,0,.3.23,3.55,3.55,0,0,0,1,.12,2.46,2.46,0,0,0,.85-.1.65.65,0,0,0,.44-.54,5.81,5.81,0,0,0,0-.7v-.32h.81v.32a6.92,6.92,0,0,1,0,.89,1.17,1.17,0,0,1-.65.91,3.5,3.5,0,0,1-1.5.25,4,4,0,0,1-1.6-.25,1.08,1.08,0,0,1-.59-.75,4.19,4.19,0,0,1-.09-1v-2.48H80.67v-.71h1.27Z"/><path class="cls-2" d="M93.72,117.64a13.26,13.26,0,0,1,1.81.08,2.35,2.35,0,0,1,.81.24,1.63,1.63,0,0,1,.54.51,3.12,3.12,0,0,1,.4,1.79,3.75,3.75,0,0,1-.26,1.57,1.56,1.56,0,0,1-.77.79,3,3,0,0,1-1.18.25c-.31,0-.66,0-1,0a11.54,11.54,0,0,1-1.71-.09,1.92,1.92,0,0,1-1.42-.75,3,3,0,0,1-.39-1.76,3.48,3.48,0,0,1,.32-1.69,1.56,1.56,0,0,1,.76-.72,3.21,3.21,0,0,1,1.08-.23Zm.06.7a8.1,8.1,0,0,0-1.18.07,1.2,1.2,0,0,0-1,.63,3.16,3.16,0,0,0-.19,1.27,2.63,2.63,0,0,0,.23,1.26,1.36,1.36,0,0,0,1.06.57c.28,0,.72,0,1.31,0a8.11,8.11,0,0,0,1.32-.07,1.2,1.2,0,0,0,.94-.64,3.07,3.07,0,0,0,.19-1.24,2.9,2.9,0,0,0-.19-1.19,1.07,1.07,0,0,0-.62-.54A6.4,6.4,0,0,0,93.78,118.34Z"/><path class="cls-2" d="M101.51,117.71h.83v.7h.06a1.32,1.32,0,0,1,.57-.55,2.16,2.16,0,0,1,.74-.18c.23,0,.58,0,1,0a4.36,4.36,0,0,1,1.33.15c.62.22.92.78.92,1.69V120h-.81v-.37a2.33,2.33,0,0,0-.08-.68.71.71,0,0,0-.52-.51,3.3,3.3,0,0,0-1-.1,4.9,4.9,0,0,0-1.55.18,1,1,0,0,0-.63.75,4.92,4.92,0,0,0-.11,1.19v2.36h-.83Z"/><path class="cls-2" d="M117,121.26h.86a1.47,1.47,0,0,1-.31,1,1.91,1.91,0,0,1-1.07.55,6.64,6.64,0,0,1-1.44.11,13,13,0,0,1-2-.11,2.12,2.12,0,0,1-1.09-.45,2.8,2.8,0,0,1-.62-2.07,3.51,3.51,0,0,1,.32-1.71,1.79,1.79,0,0,1,1.26-.84,9.06,9.06,0,0,1,1.63-.1,9.73,9.73,0,0,1,1.86.13,1.76,1.76,0,0,1,1.32,1.08,5.32,5.32,0,0,1,.2,1.62h-5.72a2,2,0,0,0,.38,1.32,1.59,1.59,0,0,0,.94.36,12.54,12.54,0,0,0,1.47.06,5.89,5.89,0,0,0,1.34-.1.87.87,0,0,0,.67-.48A1.56,1.56,0,0,0,117,121.26Zm0-1.52a1.25,1.25,0,0,0-.4-1,1.94,1.94,0,0,0-1-.32c-.31,0-.69,0-1.13,0a7.13,7.13,0,0,0-1.3.09,1.07,1.07,0,0,0-.85.65,2,2,0,0,0-.14.67Z"/><path class="cls-3" d="M30.32,96.83h2.42v2a6.08,6.08,0,0,1,1.61-1.49A10.33,10.33,0,0,1,39,96.62a21.31,21.31,0,0,1,4.62.36,4.94,4.94,0,0,1,2.67,1.37,5,5,0,0,1,.64.93,4.28,4.28,0,0,1,1.4-1.61,5.5,5.5,0,0,1,2.2-.84,21.59,21.59,0,0,1,3.5-.21,19,19,0,0,1,4.81.44,4.54,4.54,0,0,1,3.08,2.47,13.35,13.35,0,0,1,.48,4.52v8H59.94v-8.58q0-2.8-.84-3.63Q58,98.76,54,98.76a12.48,12.48,0,0,0-4.16.52,3,3,0,0,0-1.92,2.27,22.73,22.73,0,0,0-.32,4.51v6H45.15v-8.58a10.93,10.93,0,0,0-.21-2.5,2.61,2.61,0,0,0-2-1.86,15.06,15.06,0,0,0-3.75-.37,13.15,13.15,0,0,0-4.23.52,2.87,2.87,0,0,0-1.86,2.08,23,23,0,0,0-.32,4.7v6H30.32Z"/><path class="cls-3" d="M74.06,96.62a40.57,40.57,0,0,1,5.39.25,7.37,7.37,0,0,1,2.42.72,4.86,4.86,0,0,1,1.61,1.53c.78,1.1,1.17,2.88,1.17,5.32a11.09,11.09,0,0,1-.77,4.66,4.76,4.76,0,0,1-2.29,2.35,9.28,9.28,0,0,1-3.51.76c-.94,0-2,.07-3,.07A37.71,37.71,0,0,1,70,112a5.86,5.86,0,0,1-4.24-2.25,9.32,9.32,0,0,1-1.16-5.25,10.45,10.45,0,0,1,1-5,4.88,4.88,0,0,1,2.27-2.12A9.65,9.65,0,0,1,71,96.7C71.92,96.65,72.94,96.62,74.06,96.62Zm.19,2.14a25.33,25.33,0,0,0-3.53.18,3.57,3.57,0,0,0-3,1.89,9.34,9.34,0,0,0-.57,3.74,7.73,7.73,0,0,0,.69,3.74A4.07,4.07,0,0,0,71,110a32.71,32.71,0,0,0,3.89.16,25,25,0,0,0,3.92-.21,3.62,3.62,0,0,0,2.8-1.88,9.26,9.26,0,0,0,.53-3.69,8.3,8.3,0,0,0-.55-3.51,3,3,0,0,0-1.83-1.61A19.73,19.73,0,0,0,74.25,98.76Z"/><path class="cls-3" d="M96.12,96.62a40.84,40.84,0,0,1,5.4.25,7.24,7.24,0,0,1,2.4.72,4.71,4.71,0,0,1,1.62,1.53c.77,1.1,1.17,2.88,1.17,5.32a11.09,11.09,0,0,1-.77,4.66,4.79,4.79,0,0,1-2.28,2.35,9.39,9.39,0,0,1-3.53.76c-.93,0-1.94.07-3,.07A37.71,37.71,0,0,1,92,112a5.84,5.84,0,0,1-4.24-2.25,9.32,9.32,0,0,1-1.16-5.25,10.45,10.45,0,0,1,.95-5,4.86,4.86,0,0,1,2.26-2.12,9.76,9.76,0,0,1,3.23-.68C94,96.65,95,96.62,96.12,96.62Zm.19,2.14a25.43,25.43,0,0,0-3.53.18,3.6,3.6,0,0,0-3,1.89,9.55,9.55,0,0,0-.56,3.74,7.73,7.73,0,0,0,.69,3.74A4.05,4.05,0,0,0,93,110a32.71,32.71,0,0,0,3.89.16,24.8,24.8,0,0,0,3.91-.21,3.64,3.64,0,0,0,2.81-1.88,9.44,9.44,0,0,0,.53-3.69,8.49,8.49,0,0,0-.54-3.51,3.12,3.12,0,0,0-1.84-1.61A19.73,19.73,0,0,0,96.31,98.76Z"/><path class="cls-3" d="M109,96.83h2.42v2.3h.18a4,4,0,0,1,1.6-1.67q1.49-.84,6.09-.84a18.32,18.32,0,0,1,5.84.66,3.77,3.77,0,0,1,2.32,2.37,12.24,12.24,0,0,1,.45,3.81v8.61h-2.43v-7.58a15.68,15.68,0,0,0-.22-3.14,2.72,2.72,0,0,0-2-2.16,15.72,15.72,0,0,0-4.3-.43,14.15,14.15,0,0,0-5.43.78,3.44,3.44,0,0,0-1.13.84,3.07,3.07,0,0,0-.7,1.17,12.63,12.63,0,0,0-.31,3.47v7H109Z"/><path class="cls-3" d="M67.86,47.66V89.8H63.23V86h-.3a7.79,7.79,0,0,1-3.65,3.15q-2.51,1-10.45,1a69.61,69.61,0,0,1-8.38-.37A15.12,15.12,0,0,1,35,88.22a9.15,9.15,0,0,1-3.4-3.42c-1.18-2.06-1.76-5.24-1.76-9.53s.58-7.45,1.76-9.53a9.85,9.85,0,0,1,3.07-3.43,12,12,0,0,1,4.56-1.67,76.19,76.19,0,0,1,11-.53,42.51,42.51,0,0,1,7.24.43A8.17,8.17,0,0,1,62.84,64h.31V47.66ZM49.3,64.17a59.68,59.68,0,0,0-7.81.38C38.7,65,36.82,66.12,35.85,68c-.79,1.51-1.18,3.94-1.18,7.31a17.27,17.27,0,0,0,1,6.84c.83,1.87,2.61,3.07,5.36,3.6a40.36,40.36,0,0,0,6.91.43,62.23,62.23,0,0,0,8.56-.4,9.75,9.75,0,0,0,3.5-1.1,6,6,0,0,0,2.11-2.21c.78-1.43,1.18-3.82,1.18-7.19,0-3.53-.43-6-1.27-7.47-.93-1.63-2.63-2.67-5.08-3.12A43.94,43.94,0,0,0,49.3,64.17Z"/><path class="cls-3" d="M67.86,47.66V89.8H63.23V86h-.3a7.79,7.79,0,0,1-3.65,3.15q-2.51,1-10.45,1a69.61,69.61,0,0,1-8.38-.37A15.12,15.12,0,0,1,35,88.22a9.15,9.15,0,0,1-3.4-3.42c-1.18-2.06-1.76-5.24-1.76-9.53s.58-7.45,1.76-9.53a9.85,9.85,0,0,1,3.07-3.43,12,12,0,0,1,4.56-1.67,76.19,76.19,0,0,1,11-.53,42.51,42.51,0,0,1,7.24.43A8.17,8.17,0,0,1,62.84,64h.31V47.66ZM49.3,64.17a59.68,59.68,0,0,0-7.81.38C38.7,65,36.82,66.12,35.85,68c-.79,1.51-1.18,3.94-1.18,7.31a17.27,17.27,0,0,0,1,6.84c.83,1.87,2.61,3.07,5.36,3.6a40.36,40.36,0,0,0,6.91.43,62.23,62.23,0,0,0,8.56-.4,9.75,9.75,0,0,0,3.5-1.1,6,6,0,0,0,2.11-2.21c.78-1.43,1.18-3.82,1.18-7.19,0-3.53-.43-6-1.27-7.47-.93-1.63-2.63-2.67-5.08-3.12A43.94,43.94,0,0,0,49.3,64.17Z"/><path class="cls-3" d="M103.57,80.77h4.85a9,9,0,0,1-1.73,5.67,10.91,10.91,0,0,1-6.12,3.15,40.79,40.79,0,0,1-8.25.62,79.28,79.28,0,0,1-11.67-.62A11.9,11.9,0,0,1,74.44,87q-3.59-3.34-3.58-11.79c0-4.35.63-7.63,1.89-9.81,1.41-2.47,3.81-4.06,7.19-4.74a52.54,52.54,0,0,1,9.27-.58,53.26,53.26,0,0,1,10.65.74q5.63,1.3,7.48,6.14,1.08,2.79,1.14,9.23H75.84Q76,81.7,78,83.73c1,1,2.78,1.75,5.38,2.07a70.8,70.8,0,0,0,8.4.34,34.89,34.89,0,0,0,7.65-.56q3.06-.8,3.8-2.82A7.83,7.83,0,0,0,103.57,80.77Zm-.21-8.54c0-2.87-.79-4.88-2.29-6a10.86,10.86,0,0,0-5.53-1.76,62.51,62.51,0,0,0-6.48-.29,40.79,40.79,0,0,0-7.44.53,6.07,6.07,0,0,0-4.82,3.69,11.83,11.83,0,0,0-.8,3.84Z"/><path class="cls-3" d="M113,47.66h4.63V89.8H113Z"/><path class="cls-3" d="M123.08,47.66h4.63v5.53h-4.63Zm0,12.85h4.63V89.8h-4.63Z"/><path class="cls-3" d="M103.57,80.77h4.85a9,9,0,0,1-1.73,5.67,10.91,10.91,0,0,1-6.12,3.15,40.79,40.79,0,0,1-8.25.62,79.28,79.28,0,0,1-11.67-.62A11.9,11.9,0,0,1,74.44,87q-3.59-3.34-3.58-11.79c0-4.35.63-7.63,1.89-9.81,1.41-2.47,3.81-4.06,7.19-4.74a52.54,52.54,0,0,1,9.27-.58,53.26,53.26,0,0,1,10.65.74q5.63,1.3,7.48,6.14,1.08,2.79,1.14,9.23H75.84Q76,81.7,78,83.73c1,1,2.78,1.75,5.38,2.07a70.8,70.8,0,0,0,8.4.34,34.89,34.89,0,0,0,7.65-.56q3.06-.8,3.8-2.82A7.83,7.83,0,0,0,103.57,80.77Zm-.21-8.54c0-2.87-.79-4.88-2.29-6a10.86,10.86,0,0,0-5.53-1.76,62.51,62.51,0,0,0-6.48-.29,40.79,40.79,0,0,0-7.44.53,6.07,6.07,0,0,0-4.82,3.69,11.83,11.83,0,0,0-.8,3.84Z"/><path class="cls-3" d="M113,47.66h4.63V89.8H113Z"/><path class="cls-3" d="M123.08,47.66h4.63v5.53h-4.63Zm0,12.85h4.63V89.8h-4.63Z"/><path class="cls-2" d="M135.4,12.65A35,35,0,0,0,99.71,46.87h0A28.24,28.24,0,1,1,135,82.55a35,35,0,0,0,.45-69.9Z"/></g></g></svg>