<svg xmlns="http://www.w3.org/2000/svg" viewBox="0 0 207.99 73.29"><defs><style>.cls-1{fill:#231f20;fill-rule:evenodd;}.cls-2{fill:#d7282f;}.cls-3{fill:#1d1d1b;}</style></defs><g id="Layer_2" data-name="Layer 2"><g id="Capa_1" data-name="Capa 1"><path class="cls-1" d="M7,49.76h8.71c5.54,0,9.9-1.31,13.08-4s4.71-6.4,4.71-11.11S31.8,26.2,28.38,23.56c-3.3-2.83-8-4.14-14-4.14H7V49.76Zm7,5.66H0V13.75H15.91c7.41,0,13.42,1.88,18,5.85a18.91,18.91,0,0,1,6.84,15.09,20,20,0,0,1-2.6,9.79,20.6,20.6,0,0,1-7.41,7.17,23,23,0,0,1-6.95,2.83c-2.36.74-5.78.94-9.9.94ZM53.48,34.31a15.48,15.48,0,0,0,1.29,6.22,16.53,16.53,0,0,0,3.65,5.08A17.52,17.52,0,0,0,64.31,49a17.28,17.28,0,0,0,6.84,1.32,17.79,17.79,0,0,0,12.72-4.72,14.16,14.16,0,0,0,5.19-11.3,13.51,13.51,0,0,0-1.18-5.65A17.67,17.67,0,0,0,84.23,24a18.23,18.23,0,0,0-6-3.78,21,21,0,0,0-7.06-1.32A20,20,0,0,0,64.43,20a19,19,0,0,0-5.53,3.21,14.58,14.58,0,0,0-4,5.27,13.22,13.22,0,0,0-1.42,5.85Zm-7.42,0A18.14,18.14,0,0,1,47.94,26a22.55,22.55,0,0,1,5.77-7.16,32.13,32.13,0,0,1,8-4.53,31.09,31.09,0,0,1,9.43-1.51,32,32,0,0,1,9.66,1.51,25.82,25.82,0,0,1,8,4.72,18.63,18.63,0,0,1,5.66,7,17.64,17.64,0,0,1,2,8.3,20.28,20.28,0,0,1-1.64,8.11,17.12,17.12,0,0,1-5,6.78,26.45,26.45,0,0,1-8.49,5.28,30.35,30.35,0,0,1-10.24,1.7,29.42,29.42,0,0,1-10.25-1.7A25.69,25.69,0,0,1,52.42,49a18.72,18.72,0,0,1-4.71-6.59,19.37,19.37,0,0,1-1.65-8.11ZM111,35.43h3.77c4.82,0,8.59-.74,11-2.06a6.56,6.56,0,0,0,3.65-6.23,6.84,6.84,0,0,0-3.07-6c-2.11-1.13-5.41-1.88-9.89-1.88H111v16.2Zm0,20H103.9V13.75h14.25c5.89,0,10.36,1.14,13.55,3.41s4.59,5.64,4.59,10a11.44,11.44,0,0,1-3.89,8.68,16,16,0,0,1-10,3.58l13.9,16h-9L111,36V55.42Zm58.66,0H144.06V13.75h25.57v5.48h-18.5V31.67h18.5v5.46h-18.5V49.58h18.5v5.84Zm35.34,0H179.4V13.75H205v5.48H186.48V31.67H205v5.46H186.48V49.58H205v5.84ZM180,6.79V6.22L205.21,0V7.16Z"/><rect class="cls-2" x="103.78" y="64.19" width="7.44" height="8.49"/><path class="cls-3" d="M122.8,71.84h-.18a1.77,1.77,0,0,0-.46.19c-.23.13-.54.27-.91.44a9.17,9.17,0,0,1-1.25.41,5.92,5.92,0,0,1-1.47.18,7.19,7.19,0,0,1-1.93-.26A4.72,4.72,0,0,1,115,72a3.86,3.86,0,0,1-1.13-1.34,3.92,3.92,0,0,1-.41-1.86,4,4,0,0,1,.41-1.87A4.08,4.08,0,0,1,115,65.57a4.94,4.94,0,0,1,1.64-.81,6.82,6.82,0,0,1,1.93-.27,7.48,7.48,0,0,1,1.48.13,10.61,10.61,0,0,1,1.16.27,4.9,4.9,0,0,1,.78.27,1.81,1.81,0,0,0,.35.13.19.19,0,0,0,.14-.08,1.05,1.05,0,0,1,.08-.13l.24.19-1.24,1.93-.16-.11s0-.06,0-.09,0-.07,0-.12a.67.67,0,0,0-.32-.35,2.92,2.92,0,0,0-.71-.33,6.61,6.61,0,0,0-.9-.24,3.94,3.94,0,0,0-.87-.1,4.57,4.57,0,0,0-1.29.19,3.41,3.41,0,0,0-1.07.56,2.79,2.79,0,0,0-.72.91,2.53,2.53,0,0,0-.28,1.22,2.55,2.55,0,0,0,.28,1.22,2.66,2.66,0,0,0,.72.9,3.21,3.21,0,0,0,1.07.56,4.24,4.24,0,0,0,1.29.19,5.08,5.08,0,0,0,1.07-.12,6.82,6.82,0,0,0,1-.3,3.17,3.17,0,0,0,.78-.42c.21-.15.31-.3.31-.43a.29.29,0,0,0-.07-.2l.23-.12,1,1.69Z"/><path class="cls-3" d="M130.31,64.49a6.55,6.55,0,0,1,1.78.26,5.71,5.71,0,0,1,1.67.79A4.27,4.27,0,0,1,135,66.88a3.64,3.64,0,0,1,.48,1.91A3.69,3.69,0,0,1,135,70.7,4.35,4.35,0,0,1,133.76,72a5.2,5.2,0,0,1-1.67.77,6.76,6.76,0,0,1-3.57,0,5.2,5.2,0,0,1-1.67-.77,4.35,4.35,0,0,1-1.23-1.33,3.69,3.69,0,0,1-.48-1.91,3.64,3.64,0,0,1,.48-1.91,4.27,4.27,0,0,1,1.23-1.34,5.71,5.71,0,0,1,1.67-.79A6.57,6.57,0,0,1,130.31,64.49Zm0,1.47a4,4,0,0,0-1.22.19,3.73,3.73,0,0,0-1.09.55,2.8,2.8,0,0,0-.79.89,2.46,2.46,0,0,0,0,2.39,2.7,2.7,0,0,0,.79.89,3.73,3.73,0,0,0,1.09.55,4,4,0,0,0,2.43,0,3.73,3.73,0,0,0,1.09-.55,2.85,2.85,0,0,0,.8-.89,2.53,2.53,0,0,0,0-2.39,3,3,0,0,0-.8-.89,3.73,3.73,0,0,0-1.09-.55A4,4,0,0,0,130.31,66Z"/><path class="cls-3" d="M138.52,70.35l.16.08a.55.55,0,0,0,.06.26,1.13,1.13,0,0,0,.44.37,4.34,4.34,0,0,0,.75.33,6.1,6.1,0,0,0,.89.23,4.36,4.36,0,0,0,.83.09,6.68,6.68,0,0,0,.7,0,4.13,4.13,0,0,0,.85-.17,2.2,2.2,0,0,0,.72-.35.7.7,0,0,0,.3-.59.57.57,0,0,0-.28-.54,1.89,1.89,0,0,0-.73-.26,7.65,7.65,0,0,0-1-.1c-.39,0-.79,0-1.19-.08a11.37,11.37,0,0,1-1.19-.15,3.29,3.29,0,0,1-1-.38,2.21,2.21,0,0,1-.74-.72,2.3,2.3,0,0,1-.28-1.19,2.11,2.11,0,0,1,.24-1,2.28,2.28,0,0,1,.71-.85,3.7,3.7,0,0,1,1.21-.6,5.94,5.94,0,0,1,1.73-.23,7.11,7.11,0,0,1,1.47.13,9.43,9.43,0,0,1,1.08.27,6.43,6.43,0,0,1,.76.27,1.57,1.57,0,0,0,.52.13.45.45,0,0,0,.32-.1l.19.13-1.1,2-.16-.07a.81.81,0,0,0-.13-.37,1.31,1.31,0,0,0-.42-.37,4.44,4.44,0,0,0-.69-.33,6.88,6.88,0,0,0-.87-.23,4.86,4.86,0,0,0-.92-.09,4.59,4.59,0,0,0-.73.06,3.22,3.22,0,0,0-.68.17,1.43,1.43,0,0,0-.5.29.58.58,0,0,0-.2.46.64.64,0,0,0,.28.57,1.89,1.89,0,0,0,.73.29,7.18,7.18,0,0,0,1,.13c.39,0,.78,0,1.19.08a9.45,9.45,0,0,1,1.19.16,3.57,3.57,0,0,1,1,.39,2,2,0,0,1,.73.71,2.16,2.16,0,0,1,.28,1.17,2,2,0,0,1-.44,1.35,2.91,2.91,0,0,1-1.09.83,4.78,4.78,0,0,1-1.41.41,10.5,10.5,0,0,1-1.42.11,9.12,9.12,0,0,1-1.52-.11,5.05,5.05,0,0,1-1.67-.53,1.13,1.13,0,0,0-.42-.12.31.31,0,0,0-.21.13l-.22-.13Z"/><path class="cls-3" d="M148.58,72.7a.37.37,0,0,0,.23-.07.27.27,0,0,0,.09-.22V65.13a.2.2,0,0,0-.09-.2.44.44,0,0,0-.23-.06v-.29h3v.29a.41.41,0,0,0-.17,0,.16.16,0,0,0-.08.14.48.48,0,0,0,.06.21c0,.09.09.18.14.27l2.29,4.16,2.3-4.11.17-.33a.63.63,0,0,0,.05-.21c0-.12-.07-.18-.2-.18v-.29h3v.29a.4.4,0,0,0-.22.06c-.07,0-.1.1-.1.2v7.28a.25.25,0,0,0,.1.22.34.34,0,0,0,.22.07V73h-2.51V72.7c.29,0,.43-.1.43-.29v-5.3h0L153.76,73h0l-3.15-5.9h0v5.32c0,.19.15.29.45.29V73h-2.4Z"/><path class="cls-3" d="M169.75,66.31a.27.27,0,0,0-.13-.26.9.9,0,0,0-.47-.09H164v2h3.13a1.12,1.12,0,0,0,.5-.09c.12-.06.17-.21.17-.45h.29v2.49h-.29c0-.25-.05-.4-.17-.47a1,1,0,0,0-.5-.11H164v2.21h5.34a.67.67,0,0,0,.39-.11.37.37,0,0,0,.15-.31h.29v2.19h-.29q0-.24-.15-.27a2.06,2.06,0,0,0-.39,0h-7.45V72.7a.29.29,0,0,0,.2-.07.27.27,0,0,0,.09-.22V65.16a.27.27,0,0,0-.09-.22.35.35,0,0,0-.2-.07v-.29h7.29a.8.8,0,0,0,.47-.1.33.33,0,0,0,.13-.28H170v2.11Zm-3.61-2.25H164.8l1.46-2.3h2.15Z"/><path class="cls-3" d="M176.93,72.41c0,.19.12.29.35.29V73h-2.46V72.7a.31.31,0,0,0,.2-.07.27.27,0,0,0,.09-.22V66.05h-2.64a.6.6,0,0,0-.28.08.34.34,0,0,0-.13.31h-.29V64.2h.29a.31.31,0,0,0,.13.3.5.5,0,0,0,.28.08h7.1a.47.47,0,0,0,.27-.08.3.3,0,0,0,.14-.3h.29v2.24H180a.32.32,0,0,0-.14-.31.56.56,0,0,0-.27-.08h-2.64Z"/><path class="cls-3" d="M182.23,72.7c.28,0,.42-.1.42-.29V65.16c0-.19-.14-.29-.42-.29v-.29h2.66v.29c-.28,0-.42.1-.42.29v7.25c0,.19.14.29.42.29V73h-2.66Z"/><path class="cls-3" d="M196.47,71.84h-.18a1.76,1.76,0,0,0-.45.19c-.24.13-.55.27-.91.44a9.83,9.83,0,0,1-1.26.41,5.92,5.92,0,0,1-1.47.18,7.25,7.25,0,0,1-1.93-.26,4.8,4.8,0,0,1-1.64-.79,3.83,3.83,0,0,1-1.12-1.34,3.93,3.93,0,0,1-.42-1.86,4,4,0,0,1,.42-1.87,4.05,4.05,0,0,1,1.12-1.35,5,5,0,0,1,1.64-.81,6.87,6.87,0,0,1,1.93-.27,7.41,7.41,0,0,1,1.48.13,10.61,10.61,0,0,1,1.16.27,4.9,4.9,0,0,1,.78.27,1.81,1.81,0,0,0,.35.13.17.17,0,0,0,.14-.08l.09-.13.24.19-1.25,1.93-.16-.11a.28.28,0,0,0,0-.09.6.6,0,0,0,0-.12c0-.11-.13-.23-.32-.35a2.76,2.76,0,0,0-.71-.33,5.91,5.91,0,0,0-.9-.24,3.94,3.94,0,0,0-.87-.1,4.56,4.56,0,0,0-1.28.19,3.3,3.3,0,0,0-1.07.56,2.7,2.7,0,0,0-.73.91,2.64,2.64,0,0,0-.27,1.22,2.67,2.67,0,0,0,.27,1.22,2.57,2.57,0,0,0,.73.9,3.12,3.12,0,0,0,1.07.56,4.22,4.22,0,0,0,1.28.19,5.08,5.08,0,0,0,1.07-.12,6.62,6.62,0,0,0,1-.3,3.09,3.09,0,0,0,.77-.42c.21-.15.31-.3.31-.43a.34.34,0,0,0-.06-.2l.22-.12,1.06,1.69Z"/><path class="cls-3" d="M198.1,72.7a.46.46,0,0,0,.33-.21,3.55,3.55,0,0,0,.23-.4l3-6.21a3.64,3.64,0,0,0,.2-.39.64.64,0,0,0,.09-.3.23.23,0,0,0-.11-.22.64.64,0,0,0-.24-.1v-.29h2.7v.29A1,1,0,0,0,204,65c-.08,0-.11.11-.11.23a.6.6,0,0,0,.05.26c0,.08.09.19.17.33l3.32,6.5a.52.52,0,0,0,.22.26,2.94,2.94,0,0,0,.31.16V73h-2.81V72.7a.47.47,0,0,0,.16,0,.15.15,0,0,0,.09-.14,1,1,0,0,0-.12-.42l-.61-1.18h-3.9l-.58,1.14a1.48,1.48,0,0,0-.16.47c0,.12.11.18.31.18V73H198.1Zm6-3-1.34-3-1.5,3Z"/></g></g></svg>