<svg xmlns="http://www.w3.org/2000/svg" viewBox="0 0 161.42 137.3"><defs><style>.cls-1{fill:#1d1d1b;}</style></defs><g id="Layer_2" data-name="Layer 2"><g id="Capa_1" data-name="Capa 1"><path class="cls-1" d="M4.24,55.46c5.32,6.35,15.44,4.83,22.89,2.22-1.22.72-2.54.72-3.59,1.49-1.82,1.32-.82,3-3.77,3.53a5.81,5.81,0,0,0,5-1.28c1-.87,2-2.63,3.31-3.85.07-.06.59-.53.65-.5l0,0a4.42,4.42,0,0,0-1,1.56c-.55,1.51.53,3.09.15,4.42a3.18,3.18,0,0,1-1.2,1.58,4,4,0,0,0,2.92-2.94c.33-1.2-.07-1.78-.07-2.88A3,3,0,0,1,30,57a3.23,3.23,0,0,1,1.7-1h0c2.71-.91,5.46-2.65,6.78-3a12.59,12.59,0,0,0,.76,2.34,8,8,0,0,0-2.4-.51,3.14,3.14,0,0,0-2.58,3.34,5.5,5.5,0,0,0,1.3,3.31c2.87,3.2,8.53,2.17,9.07,1.88.79-.41,1.71-.8,2-1.05a17,17,0,0,0,11.9-.5l1.32-.67a14.59,14.59,0,0,0,6.4-7.59A9.21,9.21,0,0,0,67,55.68a2.77,2.77,0,0,1,0,1.18,4.63,4.63,0,0,0-1.08,1.21,5.41,5.41,0,0,0,1.6,7.44,8.44,8.44,0,0,0,8.42-.18,8.11,8.11,0,0,0,2.23-2,6.12,6.12,0,0,0,1.07-1.78h.72A6.15,6.15,0,0,0,81,63.36a8.11,8.11,0,0,0,2.23,2,8.44,8.44,0,0,0,8.42.18,5.43,5.43,0,0,0,1.6-7.44,4.63,4.63,0,0,0-1.08-1.21,2.62,2.62,0,0,1,0-1.18,10.28,10.28,0,0,0,.65-2.15,14.59,14.59,0,0,0,6.4,7.59l1.32.67a17,17,0,0,0,11.9.5c.33.25,1.25.64,2,1.05.55.29,6.2,1.32,9.06-1.88a5.45,5.45,0,0,0,1.31-3.31,3.14,3.14,0,0,0-2.58-3.34,8,8,0,0,0-2.4.51,13.38,13.38,0,0,0,.76-2.34c1.32.35,4.07,2.09,6.78,3h0a3.23,3.23,0,0,1,1.7,1,3,3,0,0,1,.56,1.82c0,1.1-.4,1.68-.07,2.88a4,4,0,0,0,2.92,2.94,3.13,3.13,0,0,1-1.2-1.58c-.38-1.33.7-2.91.15-4.42a4.42,4.42,0,0,0-1-1.56l0,0c.06,0,.59.44.65.5,1.3,1.22,2.31,3,3.31,3.85a5.81,5.81,0,0,0,5,1.28c-3-.57-2-2.21-3.77-3.53-1-.77-2.37-.77-3.59-1.49,7.45,2.61,17.57,4.13,22.88-2.22,3.37-4,3.33-10.43-1.24-13.46a9.25,9.25,0,0,0-3.89-1.4,9.38,9.38,0,0,0-5.45.88,4,4,0,0,0-2,2.89,3.51,3.51,0,1,0,7,.39,3.55,3.55,0,0,0-1.85-3.13c7.12-.59,9.47,5.93,7.54,10.87.67-3.48-1.23-5.45-3.58-5.76,3.16,3,1.6,5.95,1.6,5.95-1.09-1.16-2.24-1.15-2.82-.45a3.1,3.1,0,0,0-.51,1.5c-.7,5.52-6.64,5.58-12.2,4.41a8.26,8.26,0,0,0,4.71-1.35c2-1.63,2.24-4.48,4-5.82a5.06,5.06,0,0,1,3-.9,6.41,6.41,0,0,0-6.52,1c-1.55,1.23-1.59,2.35-2.62,3.77-1.74,2.39-5.77,2.75-8.32,1.69A7.79,7.79,0,0,0,136.18,55c5.15-4,3.53-12.5-2.1-15.52-5.44-2.91-12.16-.18-16.15,3.5-2.37-2.14-5.11-4.1-9.05-4.56-5.43-.42-8.49,1.6-10.77,4a1.89,1.89,0,0,1-.09-.21,1.7,1.7,0,0,1,.86-2,1.72,1.72,0,0,0,.7-.44c.62-.7-.25-1.85-1.34-1.07a2.78,2.78,0,0,1,1-1c.54-.33,1-.16,1.5-.54a.81.81,0,0,0,.32-.74.94.94,0,0,0-.23-.44c.74-.55,1.65.62.86,1.45a1.31,1.31,0,0,0,1.12-1.83,2.65,2.65,0,0,0-3.57-1.41,4.79,4.79,0,0,0-2.72,3.54A7.49,7.49,0,0,0,96.31,39a2.25,2.25,0,0,1-.61-.81,2.33,2.33,0,0,1,0-1.48,3,3,0,0,0-.41,3.06c.35.86.85,1,1.35,1.68a2.16,2.16,0,0,1,.48,1.34,2.08,2.08,0,0,1-.36,1.09,22.15,22.15,0,0,1-4,4.32c-.08-5.65.81-10.74,4.54-15.86,7.37,2.67,15.6-1.91,15.85-8.33,3,.25,5.94,1.38,7.51,3.74,2.4,3.61,1.54,10-3.86,10A4.19,4.19,0,0,1,112.45,34a4,4,0,0,1,.72-3.14,1.41,1.41,0,0,0,2.49,1.06,1.5,1.5,0,0,0,.26-1.11c.53,3.12,2.53,2.39,1.91,5.41a6.08,6.08,0,0,0,2.27-4.88c-.39-2.55-2.92-3.6-5.21-3.28a5.32,5.32,0,0,0-4.35,4.07c-1,4,2.61,6.66,6.36,6.7,4.51,0,7.87-3.11,7.5-7.63-.4-4.76-5.26-8.62-11.25-8.74-.48-6.26-7.39-8.21-12.27-5.78-4.69,2.33-6.89,7.2-8.44,11a9.82,9.82,0,0,1-3.31-11.52c2.56,1.34,7,1,9.23-.81A4.81,4.81,0,0,0,99,8.71c-1.92-2.22-7.07-2.1-7.79,1A1.49,1.49,0,0,0,92,11.48a1.57,1.57,0,0,0,1.34,0A1.45,1.45,0,0,0,93.48,9a1.9,1.9,0,0,0-1.13-.23,3.66,3.66,0,0,1,5.32.67,4.49,4.49,0,0,1,.25,3.94,4.47,4.47,0,0,0-.48-1.3c-.62-1-2-.62-1.67.71-.68-.73-2-1.08-3.72-.45a6.16,6.16,0,0,0-3.29,3,19.82,19.82,0,0,1-4.71-3.15c.84.23,1.71,1,2.56.84,1.31-.21.87-1.63,2.52-1.55A1.3,1.3,0,0,0,87.71,11c.38-.63,2.2-1,2.78-.33a1.9,1.9,0,0,0-1.83-1.41c-1.66-.06-2.21,1.44-3.33,1.89a2.42,2.42,0,0,1-3.24-2.35c.1-.43.54-.44.78-.08.37.55.13,1.56,1.38,1.82A2,2,0,0,0,86.11,8c-.29-.91-3.57-3.92-4.59-4.84.18,1.54-.74,4.65-.58,6.18a13.16,13.16,0,0,0,2,5.15,13.52,13.52,0,0,1,1.52,3.28A4.44,4.44,0,0,1,84,21.48a2.48,2.48,0,0,0,1.62-2.92A1.43,1.43,0,0,1,86,19.71c1-1,.42-3.1-.76-3.9a1.56,1.56,0,0,1,1.26.6c-.12-1.89-2.73-1.58-3.08-3.84A18.09,18.09,0,0,0,88.51,16c-1.82,4.91-.77,9.28,3.4,13.31-2.35,5.92-1.39,13.8-3.7,20.1-2.4-.46-4.27-3-3.41-5.06A26.82,26.82,0,0,1,86.94,41a8.23,8.23,0,0,0,1.67-3.86c.17-2.54-1.25-4.68-3.67-4.92,1.53,1.95,1.11,2.78.59,5.08-.24,1.36.28,2.3.16,2.71-1.5-2,.63-4.21-.89-5.11-1.08,2-3.3,4.45-.21,6.83a2.88,2.88,0,0,1-2.08-2.4,5.39,5.39,0,0,0-.78,2.81,8.24,8.24,0,0,0,6.2,8.11,7,7,0,0,0,.91.18,5.94,5.94,0,0,0,3-.68,1.72,1.72,0,0,1-.12.9,2.36,2.36,0,0,1-1,1.12c-.75.43-1.31.39-2,1.1a3.17,3.17,0,0,0-.86,3,4.32,4.32,0,0,0-1.67.81,3.92,3.92,0,0,0,1,6.81c1,.36,1.12.45.43-.34a2.13,2.13,0,0,1,.71-3A1.85,1.85,0,0,1,91,61.37c.84,2.36-1.77,3.6-3.67,3.69a6.79,6.79,0,0,1-5.21-1.85c-.1-.1-.18-.2-.27-.3A8.4,8.4,0,0,1,81,61.6a5,5,0,0,1-.39-2.08,20.13,20.13,0,0,1,.16-3.64c.82-6,.87-10.34-.56-11.58V38.48a2.29,2.29,0,0,0,0-4.4V28.59h0a4.77,4.77,0,0,0,3.13,3.66c.68-1.32-.15-3.65-.15-3.65,2.39,2.54,5.8-.07,5.8-.07-3.91-.36-7.28-3.9-8.47-7.23a2.4,2.4,0,0,0-.34-4.5V7.91c.2-3.32,1.68-5.17-.61-7.91-2.3,2.74-.83,4.59-.62,7.91V16.8a2.4,2.4,0,0,0-1.75,2.32,2.37,2.37,0,0,0,1.41,2.18c-1.19,3.33-4.56,6.87-8.47,7.23,0,0,3.41,2.61,5.8.07,0,0-.83,2.33-.15,3.65a4.77,4.77,0,0,0,3.13-3.66h0v5.49a2.29,2.29,0,0,0,0,4.4V44.3c-1.43,1.24-1.38,5.61-.57,11.58a21.09,21.09,0,0,1,.17,3.64,5,5,0,0,1-.39,2.08,8.4,8.4,0,0,1-.81,1.31l-.27.3a6.8,6.8,0,0,1-5.21,1.85c-1.9-.09-4.52-1.33-3.67-3.69a1.85,1.85,0,0,1,2.58-1.16,2.13,2.13,0,0,1,.7,3c-.68.79-.62.7.44.34a3.92,3.92,0,0,0,1-6.81,4.32,4.32,0,0,0-1.67-.81,3.17,3.17,0,0,0-.86-3c-.68-.71-1.24-.67-2-1.1a2.41,2.41,0,0,1-1-1.12,1.83,1.83,0,0,1-.13-.9,6,6,0,0,0,3.06.68,7,7,0,0,0,.91-.18,8.26,8.26,0,0,0,6.2-8.11,5.49,5.49,0,0,0-.78-2.81,2.88,2.88,0,0,1-2.08,2.4c3.09-2.38.87-4.82-.22-6.83-1.51.9.61,3.08-.88,5.11-.13-.41.39-1.35.16-2.71-.52-2.3-.94-3.13.59-5.08-2.42.24-3.84,2.38-3.67,4.92A8.13,8.13,0,0,0,72.23,41a26.69,26.69,0,0,1,2.13,3.33c.87,2.08-1,4.6-3.4,5.06-2.31-6.3-1.35-14.18-3.7-20.1,4.17-4,5.22-8.4,3.4-13.31a18.09,18.09,0,0,0,5.06-3.39c-.35,2.26-3,1.95-3.08,3.84a1.55,1.55,0,0,1,1.26-.6c-1.18.8-1.74,2.93-.76,3.9a1.4,1.4,0,0,1,.39-1.15,2.48,2.48,0,0,0,1.62,2.92,4.44,4.44,0,0,1-.42-3.74,13.91,13.91,0,0,1,1.52-3.28,13,13,0,0,0,2-5.15c.16-1.53-.76-4.64-.58-6.18-1,.92-4.3,3.93-4.59,4.84a2,2,0,0,0,1.85,2.59c1.25-.26,1-1.27,1.39-1.82.24-.36.68-.35.77.08a2.41,2.41,0,0,1-3.23,2.35c-1.12-.45-1.67-1.95-3.34-1.89a1.89,1.89,0,0,0-1.82,1.41c.58-.64,2.4-.3,2.78.33a1.3,1.3,0,0,0-1.42.45c1.65-.08,1.21,1.34,2.52,1.55.85.13,1.72-.61,2.56-.84a20.23,20.23,0,0,1-4.71,3.15,6.16,6.16,0,0,0-3.29-3c-1.75-.63-3-.28-3.72.45.35-1.33-1-1.68-1.67-.71a4.47,4.47,0,0,0-.48,1.3,4.49,4.49,0,0,1,.25-3.94,3.66,3.66,0,0,1,5.32-.67A1.87,1.87,0,0,0,65.69,9a1.44,1.44,0,0,0,.15,2.49,1.57,1.57,0,0,0,1.34,0A1.49,1.49,0,0,0,68,9.7c-.72-3.09-5.87-3.21-7.79-1a4.8,4.8,0,0,0,.61,6.67c2.21,1.79,6.66,2.15,9.23.81a9.81,9.81,0,0,1-3.32,11.52c-1.55-3.82-3.74-8.69-8.43-11C53.41,14.26,46.5,16.21,46,22.47c-6,.12-10.85,4-11.25,8.74-.38,4.52,3,7.67,7.5,7.63,3.75,0,7.31-2.71,6.36-6.7a5.32,5.32,0,0,0-4.36-4.07c-2.28-.32-4.82.73-5.2,3.28a6.06,6.06,0,0,0,2.28,4.88c-.63-3,1.37-2.29,1.89-5.41a1.59,1.59,0,0,0,.26,1.11A1.41,1.41,0,0,0,46,30.87,4,4,0,0,1,46.71,34a4.17,4.17,0,0,1-4.35,3.82c-5.41,0-6.26-6.43-3.86-10,1.57-2.36,4.56-3.49,7.5-3.74.25,6.42,8.48,11,15.86,8.33,3.72,5.12,4.61,10.21,4.54,15.86a22.15,22.15,0,0,1-4-4.32,2,2,0,0,1-.36-1.09,2.16,2.16,0,0,1,.48-1.34c.5-.65,1-.82,1.35-1.68a3,3,0,0,0-.41-3.06,2.33,2.33,0,0,1,0,1.48,2.25,2.25,0,0,1-.61.81,8.5,8.5,0,0,0-.16-1.36A4.79,4.79,0,0,0,60,34.14a2.65,2.65,0,0,0-3.57,1.41,1.31,1.31,0,0,0,1.11,1.83c-.78-.83.13-2,.87-1.45a1,1,0,0,0-.24.44.79.79,0,0,0,.33.74c.46.38,1,.21,1.5.54a3,3,0,0,1,1,1c-1.1-.78-2,.37-1.34,1.07a1.79,1.79,0,0,0,.7.44,1.7,1.7,0,0,1,.86,2,1.89,1.89,0,0,1-.09.21c-2.28-2.41-5.34-4.43-10.78-4-3.93.46-6.67,2.42-9,4.56-4-3.68-10.71-6.41-16.15-3.5-5.64,3-7.25,11.5-2.1,15.52a7.76,7.76,0,0,0,4.44,1.61c-2.55,1.06-6.58.7-8.32-1.69-1-1.42-1.07-2.54-2.62-3.77a6.41,6.41,0,0,0-6.52-1,5,5,0,0,1,3,.9c1.75,1.34,2,4.19,4,5.82a8.31,8.31,0,0,0,4.71,1.35c-5.55,1.17-11.49,1.11-12.19-4.41A3,3,0,0,0,9,52.24c-.58-.7-1.73-.71-2.82.45,0,0-1.57-3,1.6-5.95C5.4,47.05,3.51,49,4.18,52.5,2.25,47.56,4.6,41,11.72,41.63a3.55,3.55,0,0,0,1.66,6.67,3.51,3.51,0,0,0,3.49-3.93,4,4,0,0,0-2-2.89,9.38,9.38,0,0,0-5.45-.88A9.2,9.2,0,0,0,5.49,42C.91,45,.88,51.44,4.24,55.46M111,58.33c-.29-3.18,3-5.64,5.89-5.89a8.38,8.38,0,0,1,2.34.09,6.77,6.77,0,0,0-2.5.45c-1.44.72-2,2.25-2.58,3.7a4.42,4.42,0,0,1,1.65-1.23c1-.43,3.35-1,4.06-2.32a12.55,12.55,0,0,1-1.61,3.53c-.88,1.42-3.79,4.66-5.57,4.58-.88,0-1.59-2-1.68-2.91m11.42,0c-.2-1-1.87-1.8-2-.42-.13,1,1.16,2.5,0,3.23.36-1-.07-2.34-1.31-1.66-.76.41-.72,1.52-1.54,2.18a4.07,4.07,0,0,1-4,.27c3-1.18,4.61-3.48,6.15-6.08,1.82,0,3.19,1,2.77,2.48m7.15-18.64c.9.54,1,1.28.69,1.83a2.25,2.25,0,0,0-.28.9c0,1.08,1.58,1.44,2-.05.46.47.58.84.5,1.17-.12.5-.73.88-1.12,1.3s-.6,1.2-.12,1.61a1.09,1.09,0,0,0,.53.21c-.24,1-1.9.67-1.82-.63a1.49,1.49,0,0,0,.38,2.42,3,3,0,0,0,4.17-1.4A5.73,5.73,0,0,0,132.37,40a8.15,8.15,0,0,0-1.06-.51,4.57,4.57,0,0,1,2.05.6,8.91,8.91,0,0,1,4.31,11.44,6.92,6.92,0,0,1-7.19,4.22c-3.74-.27-6.68-2.5-9.62-3.53a15.36,15.36,0,0,0,.13-1.75,7.23,7.23,0,0,0,1,1.12,5.22,5.22,0,0,0,2.73,1.28c1.78.19,3.21-1.41,4.75-1.35a3.47,3.47,0,0,1,2,.88,4.47,4.47,0,0,0-4-2.38c-1.39,0-1.91.55-3.1.85a2.95,2.95,0,0,1-3.43-1.3,2.27,2.27,0,0,0,.8.6,3.17,3.17,0,0,0,2.76-.11A3.06,3.06,0,0,0,126,46.24a2.3,2.3,0,0,0-2.13-1.68,1.77,1.77,0,0,0-1.76,1.6,1.36,1.36,0,0,0,2.35,1.15,1.07,1.07,0,0,0,.26-.66c1.36,2-1.6,4.06-3,2.61s-.64-3.14-2.48-4.88a8.27,8.27,0,0,0-.56-.73c2.29-2.59,8.31-5.46,10.87-4m-11.69,4.67A7.91,7.91,0,0,1,120.06,52c-4.42-1.51-10.35,1.44-10,6.36a5.62,5.62,0,0,0,1.43,3.25,16.75,16.75,0,0,1-8.27.16,6.58,6.58,0,0,0,2.33-.08c1.53-.49,2.36-1.89,3.13-3.24a4.29,4.29,0,0,1-1.82.95c-1.18.29-4,.53-4.63,2.08-3.94-1.31-5.84-4-5.76-4.11,7.89,4.22,16.79-8.63,21.41-13m-16.52-3.43a11.37,11.37,0,0,1,8.08-1.46C104,39.93,97.66,43,97.29,49.15a6,6,0,0,0,.59,3.23c1.24,2.23,3,1.77,5.06,1.88a1.89,1.89,0,0,1,1,.37c.29-2.66-1.41-2.39-2.71-2.81a3.78,3.78,0,0,1-2.35-3.6A6.62,6.62,0,0,0,100,50.41a3,3,0,0,0,1.67,1c.74.08,1.63-.37,2.35-.05a5,5,0,0,0-.32-1.59,2.69,2.69,0,0,0-2.59-1.31,1.56,1.56,0,0,1-1.63-1.69,2.33,2.33,0,0,0,.35.62,2.14,2.14,0,0,0,2.17.72c1.58-.43,1.1-2.1-.09-2.13-.44,0-.77.29-1.27.19s-.81-.3-.83-.6a1,1,0,0,0,.65.26.82.82,0,0,0,.08-1.64,8.49,8.49,0,0,1,1.09-1.07A12.72,12.72,0,0,1,112.9,41a7.65,7.65,0,0,1,1.37.57c-3.22-.85-8.93,0-8.93,4.12a3.51,3.51,0,1,0,5.18-3.11,5.77,5.77,0,0,1,6.2.69l.45.39c-4.46,4.08-13.85,17.77-21.52,12.17-1.38-1-2-2.94-2.45-5.06a3.84,3.84,0,0,0,1.3,1.65c1,.41,2.24-.29,2.78,1a3.39,3.39,0,0,0-1.48-2.21c-.54-.25-.85-.11-1.38-.2a2,2,0,0,1-1.49-1.7c3.93-2.95,5.34-6.35,8.4-8.33m-9.1-28.09c3-1.08,4.35,1.14,3,2.5s-4.28,1.1-5.91.28a5.51,5.51,0,0,1,2.88-2.78M98.06,31A17.67,17.67,0,0,1,112.29,24c-.64,5.77-8.89,8.8-14.23,7.06M101.5,18.5c4.06-2.05,10.2-1.12,10.7,3.94a24.31,24.31,0,0,0-4.63.69,2.48,2.48,0,0,0-1.45-3.89,3.16,3.16,0,0,0-1.77.18,1.91,1.91,0,0,0-1.28,1.84,1.46,1.46,0,0,0,1.41,1.37c1.62,0,1.63-2.21.27-2.18,1.13-1.13,3-.09,2.61,1.73-.21,1-2.1,1.78-2.93,2.19-3.46,1.73-5,3.24-7.45,6.3a22.54,22.54,0,0,1-3.6-2.15c1.15-3.11,4.22-8,8.12-10M91.74,48.74a4,4,0,0,1-2.57.72c2.36-6.79,1.15-12.92,3.61-19.49a21.53,21.53,0,0,0,3.44,2c-2.94,4.49-4.71,9.29-4.48,16.76M88,55.88a2.45,2.45,0,0,1,.58-1.32c.75-.79,2.27-.69,3.07-1.66a3.49,3.49,0,0,0,.65-1.34q.1.44.24.87c-1.67.78-1.12,3.09-.37,4.38A5.08,5.08,0,0,0,88,55.88M79.59,45.32c.81,1.87.61,5.26,0,10-.62-4.69-.83-8.08,0-10m-15.68-30c-1.32-1.36,0-3.58,3-2.5a5.51,5.51,0,0,1,2.88,2.78c-1.63.82-4.5,1.11-5.91-.28M67.57,52.9c.8,1,2.31.87,3.06,1.66a2.48,2.48,0,0,1,.59,1.32,5.08,5.08,0,0,0-4.17.93c.74-1.29,1.3-3.6-.37-4.38.09-.29.16-.58.24-.87a3.49,3.49,0,0,0,.65,1.34M46.88,24A17.67,17.67,0,0,1,61.11,31c-5.34,1.74-13.6-1.29-14.23-7.06m7.86.39C53.91,24,52,23.2,51.81,22.18c-.37-1.82,1.48-2.86,2.61-1.73-1.37,0-1.35,2.22.28,2.18a1.44,1.44,0,0,0,1.39-1.37,1.89,1.89,0,0,0-1.27-1.84,3.17,3.17,0,0,0-1.77-.18,2.48,2.48,0,0,0-1.45,3.89A24.31,24.31,0,0,0,47,22.44c.5-5.06,6.64-6,10.7-3.94,3.91,2,7,6.91,8.12,10a22.21,22.21,0,0,1-3.61,2.15c-2.44-3.06-4-4.57-7.44-6.3M63,32a22,22,0,0,0,3.44-2c2.46,6.57,1.24,12.7,3.6,19.49a4,4,0,0,1-2.56-.72C67.67,41.27,65.89,36.47,63,32M41.66,61.66c-.82-.66-.78-1.77-1.54-2.18-1.25-.68-1.67.64-1.31,1.66-1.16-.73.13-2.22,0-3.23-.16-1.38-1.84-.56-2,.42-.42-1.51.94-2.48,2.77-2.48,1.53,2.6,3.19,4.9,6.15,6.08a4.07,4.07,0,0,1-4-.27m4.86-.42c-1.78.08-4.69-3.16-5.57-4.58a12.55,12.55,0,0,1-1.61-3.53c.71,1.3,3.06,1.89,4.06,2.32A4.38,4.38,0,0,1,45,56.68c-.54-1.45-1.14-3-2.57-3.7a6.77,6.77,0,0,0-2.5-.45,8.38,8.38,0,0,1,2.34-.09c2.86.25,6.18,2.71,5.89,5.89-.09,1-.8,2.87-1.68,2.91m-4.07-18a5.77,5.77,0,0,1,6.2-.69,3.53,3.53,0,1,0,5.18,3.11c0-4.11-5.71-5-8.93-4.12A7.36,7.36,0,0,1,46.27,41a12.73,12.73,0,0,1,11.25,2.19,9.29,9.29,0,0,1,1.1,1.07.82.82,0,0,0,.06,1.64,1.05,1.05,0,0,0,.66-.26c0,.3-.44.52-.83.6s-.83-.2-1.27-.19c-1.19,0-1.67,1.7-.09,2.13a2.14,2.14,0,0,0,2.17-.72,2.33,2.33,0,0,0,.35-.62A1.56,1.56,0,0,1,58,48.5a2.69,2.69,0,0,0-2.58,1.31,5,5,0,0,0-.32,1.59c.72-.32,1.61.13,2.34.05a3,3,0,0,0,1.68-1,6.62,6.62,0,0,0,1.09-2.19,3.77,3.77,0,0,1-2.35,3.6c-1.3.42-3,.15-2.71,2.81a1.89,1.89,0,0,1,1-.37c2-.11,3.82.35,5.05-1.88a6,6,0,0,0,.6-3.23c-.37-6.15-6.66-9.22-12.12-9.68a11.37,11.37,0,0,1,8.08,1.46c3.06,2,4.47,5.38,8.4,8.33A2,2,0,0,1,64.75,51c-.53.09-.84-.05-1.38.2a3.36,3.36,0,0,0-1.48,2.21c.54-1.27,1.83-.57,2.78-1A3.84,3.84,0,0,0,66,50.74c-.42,2.12-1.07,4.06-2.45,5.06C55.85,61.4,46.46,47.71,42,43.63l.45-.39m-1.13,1.12c4.62,4.35,13.52,17.2,21.41,13,.08.15-1.83,2.8-5.77,4.11-.59-1.55-3.44-1.79-4.62-2.08a4.39,4.39,0,0,1-1.83-.95c.78,1.35,1.61,2.75,3.14,3.24a6.58,6.58,0,0,0,2.33.08,16.75,16.75,0,0,1-8.27-.16,5.62,5.62,0,0,0,1.43-3.25c.32-4.92-5.61-7.87-10-6.36a7.91,7.91,0,0,1,2.21-7.61M21.5,51.5a8.9,8.9,0,0,1,4.31-11.44,4.57,4.57,0,0,1,2.05-.6A7.56,7.56,0,0,0,26.8,40a5.7,5.7,0,0,0-2.07,7.08,3,3,0,0,0,4.17,1.4A1.49,1.49,0,0,0,29.28,46c.07,1.3-1.58,1.65-1.83.63a1.09,1.09,0,0,0,.54-.21c.48-.41.25-1.22-.12-1.61s-1-.8-1.12-1.3c-.08-.33,0-.7.5-1.17.39,1.49,2,1.13,2,.05a2.14,2.14,0,0,0-.29-.9c-.3-.55-.2-1.29.7-1.83,2.56-1.5,8.57,1.37,10.87,4a8.36,8.36,0,0,0-.57.73c-1.83,1.74-1.16,3.57-2.47,4.88s-4.4-.63-3-2.61a1.07,1.07,0,0,0,.26.66A1.36,1.36,0,0,0,37,46.16a1.77,1.77,0,0,0-1.76-1.6,2.3,2.3,0,0,0-2.13,1.68A3.06,3.06,0,0,0,34.65,50a3.17,3.17,0,0,0,2.76.11,2.27,2.27,0,0,0,.8-.6,2.95,2.95,0,0,1-3.43,1.3c-1.19-.3-1.72-.89-3.1-.85a4.47,4.47,0,0,0-4,2.38,3.43,3.43,0,0,1,2-.88c1.54-.06,3,1.54,4.75,1.35a5.22,5.22,0,0,0,2.73-1.28,7.23,7.23,0,0,0,1-1.12,11.84,11.84,0,0,0,.13,1.75c-2.94,1-5.88,3.26-9.62,3.53A6.92,6.92,0,0,1,21.5,51.5"/><line class="cls-1" x1="81.93" y1="64.45" x2="77.27" y2="64.45"/><rect class="cls-1" x="89.91" y="63.77" width="69.19" height="1.35"/><rect class="cls-1" x="0.29" y="63.77" width="69.19" height="1.35"/><path class="cls-1" d="M3.4,104.21a8.62,8.62,0,0,0,2.06,4.4,5.76,5.76,0,0,0,4.25,1.45,6.67,6.67,0,0,0,2.63-.5A4.07,4.07,0,0,0,14.21,108a5.06,5.06,0,0,0,.71-2.77,5.83,5.83,0,0,0-.57-2.66,6.68,6.68,0,0,0-1.84-2.15A20.86,20.86,0,0,0,9,98.24a34.1,34.1,0,0,1-3.5-2,13.7,13.7,0,0,1-2.66-2.29A9.52,9.52,0,0,1,1.13,91.2,9.59,9.59,0,0,1,2,82.67a9.25,9.25,0,0,1,4.38-3.23A18.21,18.21,0,0,1,13,78.34a35.53,35.53,0,0,1,4.21.23,44.88,44.88,0,0,1,4.58.83v7.19H18.44a10.74,10.74,0,0,0-1.2-3.11,4.57,4.57,0,0,0-1.83-1.7,6.14,6.14,0,0,0-2.75-.55,6.13,6.13,0,0,0-2.52.5A4,4,0,0,0,8.38,83.2a4.25,4.25,0,0,0-.65,2.37,5.26,5.26,0,0,0,.56,2.49,6.41,6.41,0,0,0,1.87,2.06A26.77,26.77,0,0,0,14,92.41a25,25,0,0,1,4.79,3.11,9.19,9.19,0,0,1,3.41,7.5,9.72,9.72,0,0,1-1.41,5.29,9,9,0,0,1-4.11,3.45,15.32,15.32,0,0,1-6.25,1.2c-1.69,0-3.44-.1-5.27-.28A44.19,44.19,0,0,1,0,111.85v-7.64Z"/><path class="cls-1" d="M51.36,85a13.76,13.76,0,0,0-.16-2.59,2.26,2.26,0,0,0-.63-1.17,4.61,4.61,0,0,0-1.84-.82V78.73H59.64v1.64a6.57,6.57,0,0,0-1.42.53,2,2,0,0,0-.79.79A3.47,3.47,0,0,0,57.09,83,18.1,18.1,0,0,0,57,85v15.49a23.23,23.23,0,0,1-.49,5.15A9.76,9.76,0,0,1,55,109.07a8.22,8.22,0,0,1-2.59,2.28,11.55,11.55,0,0,1-3.49,1.24,22.77,22.77,0,0,1-4.33.37,20.79,20.79,0,0,1-6-.73A9.42,9.42,0,0,1,34.67,110a8.94,8.94,0,0,1-2.26-3.58,16.76,16.76,0,0,1-.73-5.43V85c0-.78,0-1.43-.06-2a3.38,3.38,0,0,0-.32-1.29,2,2,0,0,0-.8-.8A5.73,5.73,0,0,0,29,80.37V78.73H42v1.64a5.5,5.5,0,0,0-1.5.58,2.2,2.2,0,0,0-.73.76,3.46,3.46,0,0,0-.35,1.16,17.86,17.86,0,0,0-.1,2.11v16.36a23.07,23.07,0,0,0,.25,3.57,8.08,8.08,0,0,0,.91,2.76,4.37,4.37,0,0,0,1.82,1.77,6.4,6.4,0,0,0,3,.62,5.87,5.87,0,0,0,3.77-1,5.44,5.44,0,0,0,1.74-2.83,21.67,21.67,0,0,0,.51-5.44Z"/><path class="cls-1" d="M77.28,106.37a15.12,15.12,0,0,0,.12,2.31,2.94,2.94,0,0,0,.41,1.1,2.25,2.25,0,0,0,.82.68,6.09,6.09,0,0,0,1.65.47v1.63H66.94v-1.63a7.21,7.21,0,0,0,1.45-.54,1.85,1.85,0,0,0,.8-.79,3.68,3.68,0,0,0,.33-1.29c0-.52.08-1.17.08-2V85c0-.78,0-1.43-.07-2a3.21,3.21,0,0,0-.32-1.29,2,2,0,0,0-.79-.81,6.26,6.26,0,0,0-1.48-.55V78.73h14.4q6.27,0,9.4,2.24t3.12,6.91A10.93,10.93,0,0,1,92.4,93.6a9.22,9.22,0,0,1-4.24,3.68,16.79,16.79,0,0,1-6.94,1.25c-1.6,0-2.92,0-3.94-.09Zm0-10.73h2.13a9.16,9.16,0,0,0,3.94-.71,4.47,4.47,0,0,0,2.17-2.24,10.1,10.1,0,0,0,.71-4.14,10,10,0,0,0-.71-4.11,4.28,4.28,0,0,0-2.07-2.16A8.17,8.17,0,0,0,80,81.63c-1.16,0-2,0-2.68.05Z"/><path class="cls-1" d="M110.35,106.37a15.12,15.12,0,0,0,.12,2.31,2.78,2.78,0,0,0,.41,1.1,2.25,2.25,0,0,0,.82.68,6.09,6.09,0,0,0,1.65.47v1.63H100v-1.63a7.46,7.46,0,0,0,1.45-.54,1.78,1.78,0,0,0,.79-.79,3.47,3.47,0,0,0,.34-1.29c0-.52.07-1.17.07-2V85c0-.78,0-1.43-.06-2a3.38,3.38,0,0,0-.32-1.29,2,2,0,0,0-.79-.81,6.26,6.26,0,0,0-1.48-.55V78.73h14.4q6.27,0,9.4,2.24t3.12,6.91a10.93,10.93,0,0,1-1.46,5.72,9.2,9.2,0,0,1-4.25,3.68,16.74,16.74,0,0,1-6.93,1.25c-1.61,0-2.92,0-3.94-.09Zm0-10.73h2.13a9.19,9.19,0,0,0,3.94-.71,4.55,4.55,0,0,0,2.17-2.24,10.12,10.12,0,0,0,.7-4.14,10,10,0,0,0-.7-4.11,4.36,4.36,0,0,0-2.07-2.16,8.22,8.22,0,0,0-3.5-.65c-1.15,0-2,0-2.67.05Z"/><path class="cls-1" d="M148.7,102.08H138.11l-.81,2.36a17.71,17.71,0,0,0-.57,1.91,8.44,8.44,0,0,0-.23,2q0,2.43,2.58,2.61v1.63H128.5v-1.63a3.1,3.1,0,0,0,1.61-.65,5.51,5.51,0,0,0,1.26-1.48,16.09,16.09,0,0,0,1.22-2.71l10.33-27.53h6.62l8.18,27.76a18.88,18.88,0,0,0,.92,2.64,3.52,3.52,0,0,0,1,1.26,3.93,3.93,0,0,0,1.66.71v1.63H147.58v-1.63a3.34,3.34,0,0,0,1.91-.72,2.09,2.09,0,0,0,.62-1.61,10.07,10.07,0,0,0-.17-1.71c-.12-.63-.31-1.42-.57-2.38Zm-9.64-2.9H148l-4-14Z"/><path class="cls-1" d="M3.84,134.85a5.76,5.76,0,0,0,0,.86,1.21,1.21,0,0,0,.16.41.84.84,0,0,0,.3.25,2.25,2.25,0,0,0,.61.18v.6H0v-.6a3.5,3.5,0,0,0,.54-.2.65.65,0,0,0,.29-.3,1.19,1.19,0,0,0,.13-.48c0-.19,0-.43,0-.73V126.9c0-.29,0-.53,0-.73a1.13,1.13,0,0,0-.12-.48.68.68,0,0,0-.29-.29,2.11,2.11,0,0,0-.55-.21v-.61H5.35a6,6,0,0,1,3.49.83A2.94,2.94,0,0,1,10,128a4.09,4.09,0,0,1-.54,2.13,3.46,3.46,0,0,1-1.58,1.36,6.26,6.26,0,0,1-2.58.47c-.59,0-1.08,0-1.46,0Zm0-4h.79a3.52,3.52,0,0,0,1.47-.26,1.66,1.66,0,0,0,.8-.83,3.67,3.67,0,0,0,.27-1.54,3.62,3.62,0,0,0-.27-1.53,1.58,1.58,0,0,0-.77-.8,3,3,0,0,0-1.3-.24c-.43,0-.76,0-1,0Z"/><path class="cls-1" d="M19.25,137.15H14.42v-.6a4,4,0,0,0,.54-.2.65.65,0,0,0,.29-.3,1.19,1.19,0,0,0,.13-.48c0-.19,0-.43,0-.73V126.9c0-.29,0-.53,0-.73a1,1,0,0,0-.12-.47.65.65,0,0,0-.29-.3,2.26,2.26,0,0,0-.55-.21v-.61h5.37a9.62,9.62,0,0,1,1.84.15,4.7,4.7,0,0,1,1.34.47,3,3,0,0,1,.81.65,2.79,2.79,0,0,1,.51.91,3.67,3.67,0,0,1,.18,1.21,3.51,3.51,0,0,1-.32,1.55,3,3,0,0,1-.86,1.07,6,6,0,0,1-1.44.81v.09a3.33,3.33,0,0,1,1.13.79,4.93,4.93,0,0,1,.81,1.24l.58,1.26a4.69,4.69,0,0,0,.76,1.25,1.66,1.66,0,0,0,.91.52v.6H22.49a14.28,14.28,0,0,1-1.2-2.19l-.72-1.57a6.13,6.13,0,0,0-.55-1,1.33,1.33,0,0,0-.48-.4,1.79,1.79,0,0,0-.75-.11h-.53v3a5.34,5.34,0,0,0,.06,1,.84.84,0,0,0,.25.44,1.75,1.75,0,0,0,.68.3Zm-1-11.47v5.12h.91a3.27,3.27,0,0,0,1.22-.2,1.79,1.79,0,0,0,.75-.55,2,2,0,0,0,.39-.84,4.9,4.9,0,0,0,.11-1.05,2.68,2.68,0,0,0-.59-1.88,2.32,2.32,0,0,0-1.75-.62c-.53,0-.88,0-1,0"/><path class="cls-1" d="M35.3,137.3a5.07,5.07,0,0,1-4.06-1.58A7.12,7.12,0,0,1,29.88,131a8.6,8.6,0,0,1,.66-3.54,4.81,4.81,0,0,1,1.93-2.23,5.88,5.88,0,0,1,3.05-.77A5.22,5.22,0,0,1,39.66,126a7,7,0,0,1,1.38,4.7,9.77,9.77,0,0,1-.41,3,5.33,5.33,0,0,1-1.16,2,4.55,4.55,0,0,1-1.81,1.18,7,7,0,0,1-2.36.38m-2.49-6.58a9.87,9.87,0,0,0,.66,4.14,2.17,2.17,0,0,0,2.05,1.36,1.87,1.87,0,0,0,1.2-.38,2.73,2.73,0,0,0,.81-1.07,6.35,6.35,0,0,0,.44-1.62,14.72,14.72,0,0,0,.13-2.07,13.38,13.38,0,0,0-.29-3.07,4.08,4.08,0,0,0-.87-1.87,2,2,0,0,0-1.5-.63,2.1,2.1,0,0,0-2,1.28,8.94,8.94,0,0,0-.65,3.93"/><path class="cls-1" d="M49.53,134.85a5.76,5.76,0,0,0,0,.86,1.21,1.21,0,0,0,.16.41.84.84,0,0,0,.3.25,2.25,2.25,0,0,0,.61.18v.6h-5v-.6a4,4,0,0,0,.54-.2.65.65,0,0,0,.29-.3,1.06,1.06,0,0,0,.12-.48,7.18,7.18,0,0,0,0-.73V126.9c0-.29,0-.53,0-.73a1.13,1.13,0,0,0-.12-.48.68.68,0,0,0-.29-.29,2.26,2.26,0,0,0-.55-.21v-.61H51a6,6,0,0,1,3.49.83A3,3,0,0,1,55.69,128a4.09,4.09,0,0,1-.54,2.13,3.41,3.41,0,0,1-1.58,1.36,6.26,6.26,0,0,1-2.58.47c-.59,0-1.08,0-1.46,0Zm0-4h.79a3.55,3.55,0,0,0,1.47-.26,1.66,1.66,0,0,0,.8-.83,3.68,3.68,0,0,0,.26-1.54,3.63,3.63,0,0,0-.26-1.53,1.58,1.58,0,0,0-.77-.8,3,3,0,0,0-1.3-.24c-.43,0-.76,0-1,0Z"/><path class="cls-1" d="M67.34,134.84c0,.22,0,.42,0,.6a1.73,1.73,0,0,0,.08.45.62.62,0,0,0,.16.3.88.88,0,0,0,.28.2,3,3,0,0,0,.46.16v.6H63.5v-.6a3.14,3.14,0,0,0,.54-.2.65.65,0,0,0,.29-.3,1.19,1.19,0,0,0,.13-.48,7.18,7.18,0,0,0,0-.73v-8c0-.29,0-.54,0-.73a1.08,1.08,0,0,0-.12-.47.7.7,0,0,0-.29-.3,2.59,2.59,0,0,0-.55-.2v-.61h4.84v.61a2.09,2.09,0,0,0-.56.22.72.72,0,0,0-.27.28,1.15,1.15,0,0,0-.13.43,5.21,5.21,0,0,0,0,.78Z"/><path class="cls-1" d="M85.67,124.58v2.93H84.41a5.39,5.39,0,0,0-.52-1.18,1.66,1.66,0,0,0-.5-.49,2.06,2.06,0,0,0-1-.18h-2v4.42h1.22a1.43,1.43,0,0,0,.64-.12.87.87,0,0,0,.38-.38,3.35,3.35,0,0,0,.29-.83h1v3.74h-1a3.2,3.2,0,0,0-.29-.81,1,1,0,0,0-.37-.4,1.39,1.39,0,0,0-.65-.12H80.37v4.92h2a2.79,2.79,0,0,0,.55-.05,1,1,0,0,0,.39-.14,1.44,1.44,0,0,0,.34-.28,2,2,0,0,0,.28-.37,4.49,4.49,0,0,0,.27-.54,8.79,8.79,0,0,0,.3-.91h1.26l-.17,3.36H76.53v-.6a3.14,3.14,0,0,0,.54-.2.67.67,0,0,0,.3-.3,1.4,1.4,0,0,0,.12-.48,7.18,7.18,0,0,0,0-.73V126.9c0-.29,0-.53,0-.73a1.53,1.53,0,0,0-.12-.48.76.76,0,0,0-.3-.29,2,2,0,0,0-.55-.21v-.61Z"/><path class="cls-1" d="M95.44,124.58a11.63,11.63,0,0,1,2.57.24,5.57,5.57,0,0,1,1.83.76,4.48,4.48,0,0,1,1.3,1.22,5.33,5.33,0,0,1,.73,1.66,8.67,8.67,0,0,1,.24,2.13,9.27,9.27,0,0,1-.34,2.58,5.28,5.28,0,0,1-1,2,4.9,4.9,0,0,1-1.47,1.19,6.28,6.28,0,0,1-2,.67,15.23,15.23,0,0,1-2.46.16H90.65v-.6a3.14,3.14,0,0,0,.54-.2.65.65,0,0,0,.29-.3,1.19,1.19,0,0,0,.13-.48c0-.19,0-.43,0-.73V126.9c0-.29,0-.53,0-.73a1,1,0,0,0-.12-.47.65.65,0,0,0-.29-.3,2.11,2.11,0,0,0-.55-.21v-.61Zm-1,11.46a6.67,6.67,0,0,0,.84,0,4.28,4.28,0,0,0,1.7-.3,2.52,2.52,0,0,0,.88-.61,4,4,0,0,0,.9-1.64,9.58,9.58,0,0,0,.33-2.7,7.84,7.84,0,0,0-.47-2.91,3.46,3.46,0,0,0-1.32-1.7,3.66,3.66,0,0,0-2-.55l-.82,0Z"/><path class="cls-1" d="M113,133.26h-3.94l-.3.87a5.72,5.72,0,0,0-.21.72,2.87,2.87,0,0,0-.08.73c0,.6.31.92,1,1v.6h-3.93v-.6a1.23,1.23,0,0,0,.6-.24,2.05,2.05,0,0,0,.47-.56,5.8,5.8,0,0,0,.45-1l3.84-10.23h2.46l3,10.31a6.82,6.82,0,0,0,.34,1,1.23,1.23,0,0,0,.36.47,1.49,1.49,0,0,0,.62.27v.6h-5.09v-.6a1.26,1.26,0,0,0,.71-.27.78.78,0,0,0,.23-.6,3.91,3.91,0,0,0-.06-.64c0-.23-.12-.52-.21-.88Zm-3.59-1.08h3.32L111.29,127Z"/><path class="cls-1" d="M125.9,124.58a11.63,11.63,0,0,1,2.57.24,5.57,5.57,0,0,1,1.83.76,4.61,4.61,0,0,1,1.3,1.22,5.33,5.33,0,0,1,.73,1.66,8.67,8.67,0,0,1,.24,2.13,8.91,8.91,0,0,1-.34,2.58,5.28,5.28,0,0,1-1,2,4.9,4.9,0,0,1-1.47,1.19,6.28,6.28,0,0,1-2,.67,15.23,15.23,0,0,1-2.46.16h-4.18v-.6a3.14,3.14,0,0,0,.54-.2.65.65,0,0,0,.29-.3,1.19,1.19,0,0,0,.13-.48c0-.19,0-.43,0-.73V126.9c0-.29,0-.53,0-.73a1,1,0,0,0-.12-.47.65.65,0,0,0-.29-.3,2.26,2.26,0,0,0-.55-.21v-.61ZM125,136a6.67,6.67,0,0,0,.84,0,4.28,4.28,0,0,0,1.7-.3,2.62,2.62,0,0,0,.88-.61,4,4,0,0,0,.9-1.64,9.58,9.58,0,0,0,.33-2.7,7.84,7.84,0,0,0-.47-2.91,3.46,3.46,0,0,0-1.32-1.7,3.66,3.66,0,0,0-2-.55l-.82,0Z"/><path class="cls-1" d="M146.59,124.58v2.93h-1.26a5.94,5.94,0,0,0-.52-1.18,1.66,1.66,0,0,0-.5-.49,2.08,2.08,0,0,0-1-.18h-2v4.42h1.22a1.36,1.36,0,0,0,.63-.12.84.84,0,0,0,.39-.38,3.82,3.82,0,0,0,.29-.83h1v3.74h-1a3.2,3.2,0,0,0-.29-.81,1,1,0,0,0-.37-.4,1.39,1.39,0,0,0-.65-.12h-1.22v4.92h2a2.79,2.79,0,0,0,.55-.05,1.07,1.07,0,0,0,.39-.14,1.44,1.44,0,0,0,.34-.28,2,2,0,0,0,.28-.37,4.49,4.49,0,0,0,.27-.54,8.79,8.79,0,0,0,.3-.91h1.26l-.17,3.36h-9.06v-.6a3.14,3.14,0,0,0,.54-.2.67.67,0,0,0,.3-.3,1.4,1.4,0,0,0,.12-.48,7.18,7.18,0,0,0,0-.73V126.9c0-.29,0-.53,0-.73a1.53,1.53,0,0,0-.12-.48.76.76,0,0,0-.3-.29,2,2,0,0,0-.55-.21v-.61Z"/><path class="cls-1" d="M154.44,134.05a3.22,3.22,0,0,0,.77,1.64,2.17,2.17,0,0,0,1.58.53,2.5,2.5,0,0,0,1-.18,1.5,1.5,0,0,0,.7-.6,1.88,1.88,0,0,0,.26-1,2.19,2.19,0,0,0-.21-1,2.49,2.49,0,0,0-.68-.8,7.82,7.82,0,0,0-1.31-.8,12,12,0,0,1-1.3-.75,4.61,4.61,0,0,1-1-.85,3.89,3.89,0,0,1-.64-1,3.58,3.58,0,0,1,.34-3.16,3.47,3.47,0,0,1,1.63-1.21,6.89,6.89,0,0,1,2.46-.41,13.14,13.14,0,0,1,1.57.09,16.08,16.08,0,0,1,1.7.31v2.67H160a3.82,3.82,0,0,0-.45-1.15,1.73,1.73,0,0,0-.68-.64,2.34,2.34,0,0,0-1-.2,2.19,2.19,0,0,0-.94.19,1.49,1.49,0,0,0-.65.54,1.59,1.59,0,0,0-.24.88,1.94,1.94,0,0,0,.21.93,2.39,2.39,0,0,0,.69.76,9.24,9.24,0,0,0,1.42.85,9.14,9.14,0,0,1,1.78,1.16,3.82,3.82,0,0,1,1,1.24,3.95,3.95,0,0,1-.22,3.51,3.24,3.24,0,0,1-1.53,1.28,5.62,5.62,0,0,1-2.32.45,19,19,0,0,1-1.95-.11,17.57,17.57,0,0,1-1.92-.3v-2.84Z"/></g></g></svg>