<svg xmlns="http://www.w3.org/2000/svg" viewBox="0 0 324.14 41.89"><defs><style>.cls-1,.cls-2,.cls-3{fill:#1d1d1b;}.cls-2,.cls-3{fill-rule:evenodd;}.cls-3{opacity:0.2;}</style></defs><g id="Layer_2" data-name="Layer 2"><g id="Capa_1" data-name="Capa 1"><path class="cls-1" d="M20.67,28.16a7.71,7.71,0,0,1-1.36,4.57,8.53,8.53,0,0,1-3.76,2.93,13.57,13.57,0,0,1-5.3,1,22.66,22.66,0,0,1-3.08-.2,14.5,14.5,0,0,1-2.61-.61A11.29,11.29,0,0,1,2.2,34.72,12,12,0,0,1,0,33L3.55,29.4q2.34,2.37,6.77,2.37a6.48,6.48,0,0,0,3.7-.89,3,3,0,0,0,1.28-2.57A3.09,3.09,0,0,0,14.42,26a4.56,4.56,0,0,0-2.48-1l-3.38-.49a9.54,9.54,0,0,1-5.44-2.31,7.43,7.43,0,0,1-2-5.52,7.84,7.84,0,0,1,2.64-6.16,10.37,10.37,0,0,1,7.14-2.35A15.23,15.23,0,0,1,16,8.92,10.86,10.86,0,0,1,20,11.42l-3.47,3.44a6.29,6.29,0,0,0-2.61-1.54,11.37,11.37,0,0,0-3.14-.41,4.71,4.71,0,0,0-3.21,1,3.3,3.3,0,0,0-1.11,2.56,2.62,2.62,0,0,0,.82,2,4.58,4.58,0,0,0,2.6,1.09l3.3.48a9.38,9.38,0,0,1,5.36,2.18A7.76,7.76,0,0,1,20.67,28.16Z"/><path class="cls-1" d="M49.22,26.81A9.74,9.74,0,0,1,47.85,32a9.31,9.31,0,0,1-3.72,3.48,11.88,11.88,0,0,1-10.49,0A9.31,9.31,0,0,1,29.92,32a9.74,9.74,0,0,1-1.37-5.15V8.37H34V26.61a5.27,5.27,0,0,0,1.3,3.77,4.65,4.65,0,0,0,3.55,1.39,4.71,4.71,0,0,0,3.57-1.38,5.25,5.25,0,0,0,1.31-3.78V8.37h5.45Z"/><path class="cls-1" d="M78.44,24.92a21.87,21.87,0,0,1-.26,3.58,10.52,10.52,0,0,1-.85,2.73,8.44,8.44,0,0,1-1.57,2.23,10,10,0,0,1-3.59,2.45,12,12,0,0,1-4.34.75,10.37,10.37,0,0,1-7.56-3.06,8.49,8.49,0,0,1-1.9-3,13,13,0,0,1-.72-3.39c-.09-1.18-.13-2.79-.13-4.84s0-3.67.13-4.84a13,13,0,0,1,.72-3.39,8.49,8.49,0,0,1,1.9-3,10.28,10.28,0,0,1,7.56-3.06,11.15,11.15,0,0,1,5.35,1.2,9.25,9.25,0,0,1,3.53,3.26,11.86,11.86,0,0,1,1.69,4.51H72.89A4.76,4.76,0,0,0,67.83,13a4.4,4.4,0,0,0-4.33,2.91,9.18,9.18,0,0,0-.38,2.31c-.08,1-.12,2.42-.12,4.16s0,3.13.12,4.16a9.55,9.55,0,0,0,.38,2.33,4.49,4.49,0,0,0,.83,1.43,4.38,4.38,0,0,0,3.5,1.44,5,5,0,0,0,3.91-1.58A5.37,5.37,0,0,0,73,26.46V25.4H67.83V20.82H78.44Z"/><path class="cls-1" d="M108.62,36.43H102.9l-1.65-5h-10l-1.69,5H83.87L94.09,8.37h4.29ZM99.8,26.84,96.36,16.65,92.82,26.84Z"/><path class="cls-1" d="M137.17,36.43H130.8l-5.47-11.18h-3.92V36.43h-5.48V8.37h11a9.77,9.77,0,0,1,4.85,1.15,7.92,7.92,0,0,1,3.15,3.11A8.74,8.74,0,0,1,136,17a7.5,7.5,0,0,1-1.43,4.67,8,8,0,0,1-3.71,2.71ZM130.53,17a3.7,3.7,0,0,0-.48-1.9,3.5,3.5,0,0,0-1.41-1.31,4.37,4.37,0,0,0-2.08-.48h-5.15v7.41h5.15a4.06,4.06,0,0,0,2.88-1A3.51,3.51,0,0,0,130.53,17Z"/><path class="cls-1" d="M224.72,36.43h-18.2V8.37H212V31.54h12.72Z"/><path class="cls-1" d="M255.84,36.43h-5.72l-1.65-5h-10l-1.7,5h-5.71L241.31,8.37h4.29ZM247,26.84l-3.44-10.19L240,26.84Z"/><path class="cls-1" d="M283.49,28.35a8.79,8.79,0,0,1-.64,3.42,6.83,6.83,0,0,1-1.77,2.56,7.71,7.71,0,0,1-2.71,1.56,10.67,10.67,0,0,1-3.48.54H263.15V8.37h11.28a10.47,10.47,0,0,1,4.64,1,6.73,6.73,0,0,1,3,2.73,8.27,8.27,0,0,1,1,4.18,6.63,6.63,0,0,1-.3,2.05,6.83,6.83,0,0,1-.85,1.71,6,6,0,0,1-1.14,1.27,5.17,5.17,0,0,1-1.17.76,7,7,0,0,1,2.72,2.24A6.57,6.57,0,0,1,283.49,28.35Zm-5.87-11.86a3.29,3.29,0,0,0-.43-1.71A2.93,2.93,0,0,0,276,13.65a4.42,4.42,0,0,0-2-.39h-5.35v6.46H274a3.85,3.85,0,0,0,2.69-.87A3.07,3.07,0,0,0,277.62,16.49ZM278,28.08a3.4,3.4,0,0,0-.93-2.48,3.66,3.66,0,0,0-2.72-1h-5.72v6.89h5.72a3.59,3.59,0,0,0,2.71-1A3.43,3.43,0,0,0,278,28.08Z"/><path class="cls-1" d="M297,13.26l-5.37,4.06v-9H297Z"/><path class="cls-1" d="M324.14,28.16a7.78,7.78,0,0,1-1.36,4.57A8.46,8.46,0,0,1,319,35.66a13.57,13.57,0,0,1-5.3,1,22.66,22.66,0,0,1-3.08-.2,14.7,14.7,0,0,1-2.61-.61,11.43,11.43,0,0,1-2.35-1.12A12.18,12.18,0,0,1,303.47,33L307,29.4q2.34,2.37,6.77,2.37a6.48,6.48,0,0,0,3.7-.89,3,3,0,0,0,1.28-2.57,3.11,3.11,0,0,0-.88-2.36,4.56,4.56,0,0,0-2.48-1L312,24.48a9.54,9.54,0,0,1-5.44-2.31,7.43,7.43,0,0,1-2-5.52,7.84,7.84,0,0,1,2.64-6.16,10.37,10.37,0,0,1,7.14-2.35,15.23,15.23,0,0,1,5.14.78,10.86,10.86,0,0,1,3.93,2.5L320,14.86a6.29,6.29,0,0,0-2.61-1.54,11.37,11.37,0,0,0-3.14-.41,4.71,4.71,0,0,0-3.21,1,3.3,3.3,0,0,0-1.11,2.56,2.62,2.62,0,0,0,.82,2,4.58,4.58,0,0,0,2.6,1.09l3.3.48A9.38,9.38,0,0,1,322,22.22,7.76,7.76,0,0,1,324.14,28.16Z"/><path class="cls-2" d="M161.52,17.2a2.41,2.41,0,1,1-2.41,2.41,2.41,2.41,0,0,1,2.41-2.41Z"/><path class="cls-2" d="M166.73,17.2a2.41,2.41,0,1,1-2.41,2.41,2.41,2.41,0,0,1,2.41-2.41Z"/><path class="cls-2" d="M172.06,17.2a2.41,2.41,0,1,1-2.41,2.41,2.41,2.41,0,0,1,2.41-2.41Z"/><path class="cls-2" d="M161.52,22.42a2.41,2.41,0,1,1-2.41,2.4,2.4,2.4,0,0,1,2.41-2.4Z"/><path class="cls-2" d="M166.73,22.42a2.41,2.41,0,1,1-2.41,2.4,2.4,2.4,0,0,1,2.41-2.4Z"/><path class="cls-2" d="M172.06,22.42a2.41,2.41,0,1,1-2.41,2.4,2.4,2.4,0,0,1,2.41-2.4Z"/><path class="cls-2" d="M172.06,32.87a2.41,2.41,0,1,1-2.41,2.41,2.41,2.41,0,0,1,2.41-2.41Z"/><path class="cls-2" d="M161.52,27.63A2.41,2.41,0,1,1,159.11,30a2.41,2.41,0,0,1,2.41-2.41Z"/><path class="cls-2" d="M166.73,27.63A2.41,2.41,0,1,1,164.32,30a2.41,2.41,0,0,1,2.41-2.41Z"/><path class="cls-2" d="M166.73,32.87a2.41,2.41,0,1,1-2.41,2.41,2.41,2.41,0,0,1,2.41-2.41Z"/><path class="cls-2" d="M172.06,27.63A2.41,2.41,0,1,1,169.65,30a2.41,2.41,0,0,1,2.41-2.41Z"/><path class="cls-2" d="M177.35,32.45A2.41,2.41,0,1,0,174.94,30a2.41,2.41,0,0,0,2.41,2.41Z"/><path class="cls-2" d="M183,32.45A2.41,2.41,0,1,0,180.62,30,2.41,2.41,0,0,0,183,32.45Z"/><path class="cls-2" d="M177.35,27.23a2.41,2.41,0,1,0-2.41-2.41,2.4,2.4,0,0,0,2.41,2.41Z"/><path class="cls-2" d="M177.35,37.69a2.41,2.41,0,1,0-2.41-2.41,2.41,2.41,0,0,0,2.41,2.41Z"/><path class="cls-2" d="M183,27.23a2.41,2.41,0,1,0-2.41-2.41A2.4,2.4,0,0,0,183,27.23Z"/><path class="cls-2" d="M177.35,22a2.41,2.41,0,1,0-2.41-2.41A2.41,2.41,0,0,0,177.35,22Z"/><path class="cls-2" d="M183,22a2.41,2.41,0,1,0-2.41-2.41A2.41,2.41,0,0,0,183,22Z"/><path class="cls-1" d="M189.47,23.28a17.58,17.58,0,0,0-8.13-13.74l.37-1.64-2.25-.52-.75,3.3.75.43a15.23,15.23,0,0,1,7.73,13.29c0,.28,0,.56,0,.85.8-.39,1.58-.77,2.33-1.17C189.5,23.82,189.49,23.55,189.47,23.28ZM170,7A17.55,17.55,0,0,0,156.9,33.32q.25.42.54.84c.84-.12,1.69-.25,2.57-.4-.21-.26-.4-.52-.59-.8A15.23,15.23,0,0,1,171,9.17l.86-.06.75-3.29-2.25-.52Zm19.37,19.76c-.75.37-1.8.89-2.58,1.25a15.24,15.24,0,0,1-24.89,7.79c-.82.15-2,.38-2.76.52a17.53,17.53,0,0,0,30.23-9.56Z"/><path class="cls-3" d="M185.79,26.86q0,.3-.12.63a13.66,13.66,0,0,1-.7,2.22,117.8,117.8,0,0,1-20.74,6.38,13.59,13.59,0,0,1-2.3-1.9,113.33,113.33,0,0,0,23.86-7.33Z"/><path class="cls-1" d="M193.08,23.93A67.42,67.42,0,0,1,187,27c-.86.38-1.74.76-2.65,1.14a118.52,118.52,0,0,1-21.65,6.55l-1.12.21-.33.06-.16,0-1.41.23-.69.11h0c-1.64.24-3.21.42-4.69.52-5.81.41-9.77-.51-10.49-2.84-1.06-3.46,5-7.16,8.31-9l.09-.05a17.85,17.85,0,0,0,.21,2.52,26.1,26.1,0,0,0-5.11,3.62c-1,1-1.44,1.71-1.3,2.19.36,1.16,3.44,1.54,8.13,1.22l1-.08c.85-.08,1.73-.18,2.63-.3q1.89-.26,3.9-.63l.33-.06a110.25,110.25,0,0,0,27.18-9.08c.8-.41,1.57-.82,2.29-1.24.16-.08.31-.17.46-.26,4.06-2.37,6.39-4.42,6-5.59-.15-.48-1-.85-2.37-1.09a25,25,0,0,0-6-.12A18.79,18.79,0,0,0,188.22,13c3.74-.37,10.86-.73,11.92,2.72C200.86,18,198.11,21,193.08,23.93Z"/><path class="cls-1" d="M184.41,4.72C183.75,3,181.07,1.19,177.6.4c-4-.91-7.56-.21-8.49,1.54a2.22,2.22,0,0,0-.18.49A2.31,2.31,0,0,0,169.19,4a5.19,5.19,0,0,0,1.36,1.6l.29.22a10.74,10.74,0,0,0,1.87,1.11A15,15,0,0,0,175.86,8a15.07,15.07,0,0,0,3,.39A11.46,11.46,0,0,0,181,8.28c1.88-.31,3.22-1.11,3.49-2.29A2.16,2.16,0,0,0,184.41,4.72Zm-3,.24c-.14.62-.91,1-2,1.17a7.34,7.34,0,0,1-1.26,0,10.46,10.46,0,0,1-1.77-.25,9.66,9.66,0,0,1-1.86-.61,6.84,6.84,0,0,1-1.11-.62l-.17-.12a3,3,0,0,1-.82-.86,1.14,1.14,0,0,1-.17-.84,1.17,1.17,0,0,1,.1-.26c.52-.92,2.62-1.24,4.95-.71,2,.47,3.63,1.44,4,2.39A1,1,0,0,1,181.38,5Z"/></g></g></svg>