<svg xmlns="http://www.w3.org/2000/svg" viewBox="0 0 301.66 59.6"><defs><style>.cls-1{fill:#1d1d1b;}</style></defs><g id="Layer_2" data-name="Layer 2"><g id="Capa_1" data-name="Capa 1"><path class="cls-1" d="M59.61,59.6H0V0H59.61ZM1.16,58.45H58.45V1.16H1.16Z"/><path class="cls-1" d="M30.91,22.47h0c12.57,0,20.31,5.07,20.31,13-12.6,0-20.3-5-20.31-13m-2.23,0h0c-12.56,0-20.3,5.08-20.3,13,12.58,0,20.3-5,20.3-13"/><rect class="cls-1" x="23.42" y="32.57" width="12.76" height="2.45"/><path class="cls-1" d="M36.18,37.62a3.55,3.55,0,0,1-.65,1.89H24.06a3.59,3.59,0,0,1-.64-1.88v-.57H36.17Z"/><path class="cls-1" d="M29.8,44h0a19.24,19.24,0,0,1-3.9-2.44h7.82A20.94,20.94,0,0,1,29.8,44"/><path class="cls-1" d="M25.59,20.06a4.46,4.46,0,1,1,8.92,0Z"/><polygon class="cls-1" points="5 5 5 6.24 7.16 5 5 5"/><polygon class="cls-1" points="13.43 5 8.53 5 10.98 6.41 13.43 5"/><polygon class="cls-1" points="19.7 5 14.81 5 17.25 6.41 19.7 5"/><polygon class="cls-1" points="25.98 5 21.08 5 23.53 6.41 25.98 5"/><polygon class="cls-1" points="32.25 5 27.36 5 29.8 6.41 32.25 5"/><polygon class="cls-1" points="38.53 5 33.63 5 36.08 6.41 38.53 5"/><polygon class="cls-1" points="44.81 5 39.91 5 42.35 6.41 44.81 5"/><polygon class="cls-1" points="51.08 5 46.18 5 48.63 6.41 51.08 5"/><polygon class="cls-1" points="52.45 5 54.6 6.24 54.6 5 52.45 5"/><polygon class="cls-1" points="5.19 10.19 7.88 11.74 10.57 10.19 10.57 7.09 7.88 5.53 5.19 7.09 5.19 10.19"/><polygon class="cls-1" points="11.47 10.19 14.16 11.74 16.85 10.19 16.85 7.09 14.16 5.53 11.47 7.09 11.47 10.19"/><polygon class="cls-1" points="17.74 10.19 20.43 11.74 23.12 10.19 23.12 7.09 20.43 5.53 17.74 7.09 17.74 10.19"/><polygon class="cls-1" points="24.01 10.19 26.7 11.74 29.39 10.19 29.39 7.09 26.7 5.53 24.01 7.09 24.01 10.19"/><polygon class="cls-1" points="30.29 10.19 32.98 11.74 35.67 10.19 35.67 7.09 32.98 5.53 30.29 7.09 30.29 10.19"/><polygon class="cls-1" points="36.56 10.19 39.25 11.74 41.94 10.19 41.94 7.09 39.25 5.53 36.56 7.09 36.56 10.19"/><polygon class="cls-1" points="42.84 10.19 45.53 11.74 48.22 10.19 48.22 7.09 45.53 5.53 42.84 7.09 42.84 10.19"/><polygon class="cls-1" points="54.49 7.09 51.8 5.53 49.12 7.09 49.12 10.19 51.8 11.74 54.49 10.19 54.49 7.09"/><polygon class="cls-1" points="7.4 12.33 5 10.95 5 16.82 7.4 15.44 7.4 12.33"/><polygon class="cls-1" points="13.67 15.44 13.67 12.33 10.98 10.78 8.29 12.33 8.29 15.44 10.98 16.98 13.67 15.44"/><polygon class="cls-1" points="19.94 15.44 19.94 12.33 17.25 10.78 14.57 12.33 14.57 15.44 17.25 16.98 19.94 15.44"/><path class="cls-1" d="M26.22,14.63v-2.3l-2.69-1.55-2.69,1.55v3.11L23.53,17l.94-.53A6.6,6.6,0,0,1,26.22,14.63Z"/><path class="cls-1" d="M32.49,13.88V12.33L29.8,10.78l-2.68,1.55v1.78a6.6,6.6,0,0,1,2.9-.7A6.7,6.7,0,0,1,32.49,13.88Z"/><path class="cls-1" d="M35.83,16.84l.25.14,2.69-1.54V12.33l-2.69-1.55-2.69,1.55v2A6.73,6.73,0,0,1,35.83,16.84Z"/><polygon class="cls-1" points="45.05 12.33 42.35 10.78 39.67 12.33 39.67 15.44 42.35 16.98 45.05 15.44 45.05 12.33"/><polygon class="cls-1" points="51.32 15.44 51.32 12.33 48.63 10.78 45.94 12.33 45.94 15.44 48.63 16.98 51.32 15.44"/><polygon class="cls-1" points="52.21 15.44 54.6 16.82 54.6 10.95 52.21 12.33 52.21 15.44"/><polygon class="cls-1" points="5.19 17.66 5.19 20.77 7.88 22.32 10.57 20.77 10.57 17.66 7.88 16.11 5.19 17.66"/><polygon class="cls-1" points="16.85 20.77 16.85 17.66 14.16 16.11 11.47 17.66 11.47 20.77 14.16 22.32 16.85 20.77"/><path class="cls-1" d="M23.12,17.66l-2.69-1.55-2.69,1.55v3.11l1.24.72a31.2,31.2,0,0,1,4.14-.85Z"/><path class="cls-1" d="M36.71,20.07a1.9,1.9,0,0,1-.09.58,30.3,30.3,0,0,1,4.06.85l1.26-.73V17.66l-2.69-1.55-2.69,1.55v1.26a5.45,5.45,0,0,1,.12.81A1.79,1.79,0,0,1,36.71,20.07Z"/><polygon class="cls-1" points="48.22 20.77 48.22 17.66 45.53 16.11 42.84 17.66 42.84 20.77 45.53 22.32 48.22 20.77"/><polygon class="cls-1" points="54.49 20.77 54.49 17.66 51.8 16.11 49.12 17.66 49.12 20.77 51.8 22.32 54.49 20.77"/><polygon class="cls-1" points="7.4 22.91 5 21.53 5 27.4 7.4 26.02 7.4 22.91"/><path class="cls-1" d="M13.67,23.59v-.68L11,21.36,8.29,22.91V26l1.31.76A16,16,0,0,1,13.67,23.59Z"/><path class="cls-1" d="M17.25,21.36l-2.68,1.55v.24A23.55,23.55,0,0,1,18,21.8Z"/><path class="cls-1" d="M45.05,22.91l-2.7-1.55-.75.44a25.56,25.56,0,0,1,3.45,1.37Z"/><path class="cls-1" d="M50,26.79,51.32,26V22.91l-2.69-1.55-2.69,1.55v.7A16.45,16.45,0,0,1,50,26.79Z"/><polygon class="cls-1" points="52.21 26.02 54.6 27.41 54.6 21.53 52.21 22.91 52.21 26.02"/><path class="cls-1" d="M7.88,26.7,5.19,28.24v3.11l1.42.82A12.45,12.45,0,0,1,9,27.36Z"/><path class="cls-1" d="M54.49,31.35V28.24L51.8,26.7l-1.22.7A12.29,12.29,0,0,1,53,32.21Z"/><path class="cls-1" d="M6.44,32.94,5,32.11V38l1.8-1a2.19,2.19,0,0,1-.62-1.51A13.47,13.47,0,0,1,6.44,32.94Z"/><path class="cls-1" d="M11,38.15l1.23-.71c-.73.07-1.51.09-2.28.11Z"/><path class="cls-1" d="M17.25,38.15l2.69-1.54v-.75a29,29,0,0,1-4.59,1.19Z"/><path class="cls-1" d="M39.67,36.61l2.68,1.54,1.91-1.09a30.72,30.72,0,0,1-4.59-1.19Z"/><path class="cls-1" d="M48.63,38.15l1-.6c-.77,0-1.55,0-2.28-.1Z"/><path class="cls-1" d="M53.4,35.11a1.05,1.05,0,0,1,0,.31,2.13,2.13,0,0,1-.63,1.52L54.61,38V32.11L53.13,33A12.64,12.64,0,0,1,53.4,35.11Z"/><path class="cls-1" d="M7.56,37.46,5.19,38.83v3.1l2.69,1.56,2.69-1.56v-3.1L8.46,37.61H8.37A2.47,2.47,0,0,1,7.56,37.46Z"/><polygon class="cls-1" points="11.47 38.83 11.47 41.93 14.16 43.49 16.85 41.93 16.85 38.83 14.16 37.27 11.47 38.83"/><path class="cls-1" d="M22.17,40.66a6.06,6.06,0,0,1-.94-2.92l-.8-.47-2.69,1.56v3.1l2.69,1.56,2.69-1.56v-.5A2.1,2.1,0,0,1,22.17,40.66Z"/><path class="cls-1" d="M36.56,41.4v.53l2.69,1.56,2.69-1.56v-3.1l-2.69-1.56-.92.53a5.69,5.69,0,0,1-.95,2.87A2,2,0,0,1,36.56,41.4Z"/><polygon class="cls-1" points="42.84 38.83 42.84 41.93 45.53 43.49 48.22 41.93 48.22 38.83 45.53 37.27 42.84 38.83"/><path class="cls-1" d="M51.22,37.61l-2.1,1.22v3.1l2.68,1.56,2.69-1.56v-3.1l-2.4-1.39a2.2,2.2,0,0,1-.86.17Z"/><polygon class="cls-1" points="7.4 44.07 5 42.69 5 48.56 7.4 47.18 7.4 44.07"/><polygon class="cls-1" points="8.29 44.07 8.29 47.18 10.98 48.73 13.67 47.18 13.67 44.07 10.98 42.52 8.29 44.07"/><polygon class="cls-1" points="14.57 47.18 17.25 48.73 19.94 47.18 19.94 44.07 17.25 42.52 14.57 44.07 14.57 47.18"/><path class="cls-1" d="M24.23,42.93l-.7-.41-2.69,1.55v3.11l2.69,1.55,2.69-1.55V44.5a16.76,16.76,0,0,1-1.74-1.26A3.76,3.76,0,0,1,24.23,42.93Z"/><path class="cls-1" d="M29.78,46.2a1.09,1.09,0,0,1-.26,0h0l-.18,0a10.45,10.45,0,0,1-2.2-1.08v2.12l2.68,1.55,2.69-1.55V45c-.8.48-1.45.79-1.74.93A2.16,2.16,0,0,1,29.78,46.2Z"/><path class="cls-1" d="M33.39,44.47v2.71l2.69,1.55,2.69-1.55V44.07l-2.69-1.55-.77.44a1.18,1.18,0,0,1-.22.28A19,19,0,0,1,33.39,44.47Z"/><polygon class="cls-1" points="39.67 44.07 39.67 47.18 42.35 48.73 45.05 47.18 45.05 44.07 42.35 42.52 39.67 44.07"/><polygon class="cls-1" points="45.94 47.18 48.63 48.73 51.32 47.18 51.32 44.07 48.63 42.52 45.94 44.07 45.94 47.18"/><polygon class="cls-1" points="52.21 47.18 54.6 48.57 54.6 42.69 52.21 44.07 52.21 47.18"/><polygon class="cls-1" points="10.57 49.41 7.88 47.85 5.19 49.41 5.19 52.51 7.88 54.07 10.57 52.51 10.57 49.41"/><polygon class="cls-1" points="16.85 49.41 14.16 47.85 11.47 49.41 11.47 52.51 14.16 54.07 16.85 52.51 16.85 49.41"/><polygon class="cls-1" points="23.12 49.41 20.43 47.85 17.74 49.41 17.74 52.51 20.43 54.07 23.12 52.51 23.12 49.41"/><polygon class="cls-1" points="29.39 49.41 26.7 47.85 24.01 49.41 24.01 52.51 26.7 54.07 29.39 52.51 29.39 49.41"/><polygon class="cls-1" points="35.67 49.41 32.98 47.85 30.29 49.41 30.29 52.51 32.98 54.07 35.67 52.51 35.67 49.41"/><polygon class="cls-1" points="41.94 49.41 39.25 47.85 36.56 49.41 36.56 52.51 39.25 54.07 41.94 52.51 41.94 49.41"/><polygon class="cls-1" points="48.22 49.41 45.53 47.85 42.84 49.41 42.84 52.51 45.53 54.07 48.22 52.51 48.22 49.41"/><polygon class="cls-1" points="54.49 49.41 51.8 47.85 49.12 49.41 49.12 52.51 51.8 54.07 54.49 52.51 54.49 49.41"/><polygon class="cls-1" points="5 54.61 7.3 54.61 5 53.27 5 54.61"/><polygon class="cls-1" points="8.38 54.61 13.58 54.61 10.98 53.1 8.38 54.61"/><polygon class="cls-1" points="14.66 54.61 19.85 54.61 17.25 53.1 14.66 54.61"/><polygon class="cls-1" points="20.93 54.61 26.13 54.61 23.53 53.1 20.93 54.61"/><polygon class="cls-1" points="27.21 54.61 32.4 54.61 29.8 53.1 27.21 54.61"/><polygon class="cls-1" points="33.48 54.61 38.68 54.61 36.08 53.1 33.48 54.61"/><polygon class="cls-1" points="39.76 54.61 44.96 54.61 42.35 53.1 39.76 54.61"/><polygon class="cls-1" points="46.03 54.61 51.23 54.61 48.63 53.1 46.03 54.61"/><polygon class="cls-1" points="54.6 54.61 54.6 53.26 52.3 54.61 54.6 54.61"/><path class="cls-1" d="M51.22,37.61h0a2.2,2.2,0,0,0,.86-.17l-.29-.17Z"/><path class="cls-1" d="M51.22,37.61h0a2.2,2.2,0,0,0,.86-.17l-.29-.17Z"/><path class="cls-1" d="M263.34,6.92h-.17c-15.34,0-27.75,5.23-27.75,13.42,0,8.49,12.41,13.39,27.75,13.39h.17c15,0,27.29-4.91,27.29-13.39,0-8.13-12.29-13.35-27.29-13.42m.17,22.91h-.11c-8.13-.07-14.57-4.28-14.57-9.49,0-4.9,6.44-9.11,14.51-9.16h.17c7.87,0,14.41,4.25,14.41,9.16,0,5.23-6.54,9.49-14.41,9.49"/><path class="cls-1" d="M182.08,7.25h7.86c12.42,0,34,21.07,34,21.07V9.87a3.89,3.89,0,0,1,.34-2A2.3,2.3,0,0,1,226,7.21h7s-.16.26-.47.67a2.68,2.68,0,0,0-.36,1.32V33.42h-7.83c-13.09,0-34.35-20.92-34.35-20.92l0,18.24a3.45,3.45,0,0,1-.32,2,1.79,1.79,0,0,1-1.35.7l-7,0s.19-.26.47-.71a2.28,2.28,0,0,0,.4-1.3Z"/><path class="cls-1" d="M167.6,30.74a3.77,3.77,0,0,0,.33,2,1.59,1.59,0,0,0,1.28.72h7.89s-.23-.32-.49-.75a1.47,1.47,0,0,1-.32-.89v-22a4.22,4.22,0,0,0-.39-2A1.94,1.94,0,0,0,174.63,7l-7.86.06a6.49,6.49,0,0,0,.48.69,2.51,2.51,0,0,1,.35,1.32Z"/><path class="cls-1" d="M116.62,31.53c-5-2.78-12.78-8-19.67-9.81,0,0,17.86-.71,17.86-7.41,0-6.32-11.32-7.06-21.93-7.06H71.81l-.08,24.23a2.36,2.36,0,0,1-.47,1.17,2.91,2.91,0,0,1-.84.72l3.08,0h6.23A2.19,2.19,0,0,0,81,32.92a1.93,1.93,0,0,0,.41-1.28V21.88l.41,0c2.19.42,5.55,2.27,9.36,4.38,5.19,2.91,11.32,6.21,16.57,7,3,.43,13,.12,13,.12a18.25,18.25,0,0,1-4.11-1.89m-29-13.41H81.43v-7.4h6.42c.48,0,1.75-.05,3.35,0,3.93.14,9.8.73,9.8,3.56,0,2.62-4.55,3.5-9.8,3.73-1.18.06-2.39.09-3.62.09"/><path class="cls-1" d="M155.36,28.44H144.82c-4.12-.07-8.4-.23-11.13-2.48a7.13,7.13,0,0,1-2.95-5.31c0-7.07,9.86-9.63,15.88-11.13A38.31,38.31,0,0,1,151,8.74c-1,6.37-6.36,11-14.91,13.11a16.15,16.15,0,0,0-.14,2c16.11,0,26-6.49,26-16.58,0-.29-.06-.39-.06-.39H145.2c-15.33,0-27.79,5.23-27.79,13.43,0,8.37,12.15,13.28,27.27,13.43h17.86V28.44Z"/><path class="cls-1" d="M296.34,39.2A5.22,5.22,0,0,1,291,33.78a5.33,5.33,0,1,1,5.34,5.42Zm0-9.9a4.2,4.2,0,0,0-4.17,4.48,4.18,4.18,0,1,0,8.33,0A4.21,4.21,0,0,0,296.34,29.3Zm-1.07,7.58h-1v-6h2.27c1.45,0,2.2.51,2.2,1.72a1.55,1.55,0,0,1-1.56,1.65l1.67,2.63h-1.11l-1.55-2.56h-.94Zm1.11-3.4c.73,0,1.39-.08,1.39-.95s-.71-.81-1.31-.81h-1.19v1.76Z"/><path class="cls-1" d="M78,48.26a4.51,4.51,0,0,0-3.23-1.4,4.38,4.38,0,0,0,0,8.76A4.59,4.59,0,0,0,78,54.21v1.46a5.43,5.43,0,0,1-3.15,1,5.48,5.48,0,1,1,0-11,5.12,5.12,0,0,1,3.15,1Z"/><path class="cls-1" d="M82.32,53.53l-1.27,3H79.76l4.88-11.09L89.4,56.53H88.09l-1.25-3Zm2.29-5.34L82.8,52.43h3.58Z"/><path class="cls-1" d="M92.63,45.34l3.85,8.89,3.86-8.89,2.14,11.19h-1.2l-1.36-7.16h0L96.48,57l-3.4-7.6h0l-1.36,7.16H90.48Z"/><path class="cls-1" d="M105.74,56.53h-1.18V45.94h1.18Z"/><path class="cls-1" d="M108.66,45.5l8.26,8.64v-8.2h1.18V57l-8.26-8.64v8.16h-1.18Z"/><path class="cls-1" d="M131.5,51.25A5.52,5.52,0,1,1,126,45.76,5.49,5.49,0,0,1,131.5,51.25Zm-9.86,0A4.34,4.34,0,1,0,126,46.86,4.38,4.38,0,0,0,121.64,51.24Z"/><path class="cls-1" d="M138.9,45.5l8.26,8.64v-8.2h1.18V57l-8.26-8.64v8.16H138.9Z"/><path class="cls-1" d="M152.83,53.53l-1.28,3h-1.29l4.88-11.09,4.76,11.09h-1.3l-1.25-3Zm2.29-5.34-1.81,4.24h3.58Z"/><path class="cls-1" d="M163.44,56.53h-1.18V47h-2.55v-1.1H166V47h-2.59Z"/><path class="cls-1" d="M169.09,52.25a3.93,3.93,0,0,0,.46,2.36,2.74,2.74,0,0,0,2.13,1,2.8,2.8,0,0,0,2.08-.94,3.68,3.68,0,0,0,.52-2.43V45.94h1.18v6.63a3.72,3.72,0,0,1-.93,2.94,3.91,3.91,0,0,1-2.85,1.2A4,4,0,0,1,169,55.63a3.71,3.71,0,0,1-1-3.06V45.94h1.18Z"/><path class="cls-1" d="M179.43,56.53h-1.17V45.94h1.52c2,0,3.88.54,3.88,2.92A2.76,2.76,0,0,1,181,51.78l3.36,4.75h-1.44l-3.2-4.65h-.3Zm0-5.69h.37c1.33,0,2.68-.25,2.68-1.89S181.2,47,179.78,47h-.35Z"/><path class="cls-1" d="M188.15,53.53l-1.28,3h-1.29l4.89-11.09,4.76,11.09h-1.31l-1.25-3Zm2.29-5.34-1.81,4.24h3.58Z"/><path class="cls-1" d="M198.26,55.43h2.92v1.1h-4.1V45.94h1.18Z"/><path class="cls-1" d="M209.66,53.53l-1.28,3h-1.29L212,45.44l4.76,11.09h-1.3l-1.25-3ZM212,48.19l-1.81,4.24h3.57Z"/><path class="cls-1" d="M224.79,55.43h2.92v1.1h-4.1V45.94h1.18Z"/><path class="cls-1" d="M231.17,53.53l-1.28,3h-1.3l4.89-11.09,4.76,11.09h-1.31l-1.25-3Zm2.28-5.34-1.81,4.24h3.58Z"/><path class="cls-1" d="M245.12,45.94h1.74c1.92,0,3.54.71,3.54,2.87a2.36,2.36,0,0,1-1,2.06,2.7,2.7,0,0,1,2,2.71c0,2.11-1.7,3-3.79,3h-2.46Zm1.18,4.66h.45c1.33,0,2.47-.15,2.47-1.79s-1-1.77-2.46-1.77h-.46Zm0,4.83h1.18c1.32,0,2.71-.32,2.71-1.93s-1.57-1.88-2.87-1.88h-1Z"/><path class="cls-1" d="M253.79,45.94h5.49V47H255v3.14h4.19v1.1H255v4.15h4.31v1.1h-5.49Z"/><path class="cls-1" d="M263.17,55.43h2.92v1.1H262V45.94h1.18Z"/><path class="cls-1" d="M269.14,55.43h2.92v1.1H268V45.94h1.18Z"/><path class="cls-1" d="M273.93,45.94h5.49V47h-4.31v3.14h4.18v1.1h-4.18v4.15h4.31v1.1h-5.49Z"/><path class="cls-1" d="M288.84,55.43v1.1h-7.58L287,47h-5v-1.1h7l-5.78,9.49Z"/><path class="cls-1" d="M292.64,53.53l-1.28,3h-1.29L295,45.44l4.75,11.09h-1.3l-1.25-3Zm2.29-5.34-1.81,4.24h3.58Z"/></g></g></svg>