<svg xmlns="http://www.w3.org/2000/svg" viewBox="0 0 254.37 62.55"><defs><style>.cls-1{fill:#1d1d1b;}</style></defs><g id="Layer_2" data-name="Layer 2"><g id="Capa_1" data-name="Capa 1"><path class="cls-1" d="M7.5,2A1.11,1.11,0,0,1,8.76,3.21V18.1H35.57V3.21A1.11,1.11,0,0,1,36.83,2H43c.88,0,1.31.42,1.31,1.26V40.79c0,.84-.43,1.26-1.31,1.26H36.83a1.11,1.11,0,0,1-1.26-1.26V25.55H8.76V40.79A1.11,1.11,0,0,1,7.5,42.05H1.32Q0,42.05,0,40.79V3.21Q0,2,1.32,2Z"/><path class="cls-1" d="M76.57,2a7.1,7.1,0,0,1,3.67.89A9.06,9.06,0,0,1,83.16,6.3l19,34.43a1.2,1.2,0,0,1,.14.94c-.1.25-.37.38-.83.38H94.15a1.3,1.3,0,0,1-1.31-.75l-4.07-7.39H61.85l-4,7.39a1.39,1.39,0,0,1-1.32.75H49.13c-.49,0-.79-.13-.89-.38a1.21,1.21,0,0,1,.15-.94L67.18,6.3A9.62,9.62,0,0,1,70,2.84,5.82,5.82,0,0,1,73.19,2ZM65.46,27.27h19.7L76.05,10.48a.71.71,0,0,0-.63-.4h-.34a.71.71,0,0,0-.63.4Z"/><path class="cls-1" d="M146.32,2a1.11,1.11,0,0,1,1.26,1.26V8.65a1.11,1.11,0,0,1-1.26,1.26h-28.7a2.86,2.86,0,0,0-2.35.86,3.65,3.65,0,0,0-.69,2.35v2c0,2.14,1,3.2,3,3.2H139c3.32,0,5.83.85,7.51,2.55s2.52,4.14,2.52,7.31v4.58a9.39,9.39,0,0,1-2.47,6.76q-2.46,2.58-7.67,2.58H107.19c-.87,0-1.31-.42-1.31-1.26V35.34c0-.84.44-1.26,1.31-1.26h30.08a2.87,2.87,0,0,0,2.35-.85,3.73,3.73,0,0,0,.68-2.35V28.53q0-3.21-3-3.21H115.84q-5,0-7.5-2.55t-2.52-7.3V11.29a9.38,9.38,0,0,1,2.46-6.76Q110.74,2,116,2Z"/><path class="cls-1" d="M228.63,2a7.1,7.1,0,0,1,3.67.89,9.06,9.06,0,0,1,2.92,3.46l19,34.43a1.16,1.16,0,0,1,.14.94c-.09.25-.37.38-.83.38h-7.27a1.31,1.31,0,0,1-1.32-.75l-4.07-7.39H213.91L210,41.3a1.39,1.39,0,0,1-1.32.75h-7.45c-.49,0-.79-.13-.88-.38a1.16,1.16,0,0,1,.14-.94L219.24,6.3A9.62,9.62,0,0,1,222,2.84,5.82,5.82,0,0,1,225.25,2ZM217.52,27.27h19.7l-9.1-16.79a.73.73,0,0,0-.63-.4h-.35a.71.71,0,0,0-.63.4Z"/><path class="cls-1" d="M203.24,10.23,200.85.93a1.07,1.07,0,0,0-2-.25S198.63,1,198,2H166.17Q161,2,158.49,4.53A9.38,9.38,0,0,0,156,11.29v4.18q0,4.76,2.52,7.3t7.5,2.55h21.48q3,0,3,3.21v2.35a3.67,3.67,0,0,1-.69,2.35,2.83,2.83,0,0,1-2.34.85H162c.43-.72.73-1.24.73-1.24.7-1.47-.61-1.88-1.19-1.71l-6.76,1.74-.65.16-.66.17-1.31.34a.66.66,0,0,0-.48.81L154,43.66a1.06,1.06,0,0,0,2,.25s.54-.88,1.14-1.88l.19,0h31.74q5.21,0,7.67-2.58a9.38,9.38,0,0,0,2.46-6.76V28.13q0-4.75-2.52-7.31t-7.5-2.55H167.77c-2,0-3-1.06-3-3.2v-2a3.65,3.65,0,0,1,.69-2.35,2.86,2.86,0,0,1,2.35-.86h25.44l-1.08,1.83c-.71,1.47.61,1.88,1.19,1.72l6.76-1.74.65-.17.65-.16,1.32-.34A.68.68,0,0,0,203.24,10.23Z"/><path class="cls-1" d="M29.76,51.93H28.61c0-.82-.13-1.34-.41-1.57A3.55,3.55,0,0,0,26.27,50a5.32,5.32,0,0,0-2.33.32c-.35.21-.53.68-.53,1.42s.14,1.32.41,1.5a6.73,6.73,0,0,0,2.45.36,6.23,6.23,0,0,1,3,.61c.43.33.64,1.08.64,2.24s-.24,2.07-.74,2.44a6.27,6.27,0,0,1-3.28.55A5.32,5.32,0,0,1,23,58.92a2.76,2.76,0,0,1-.73-2.25v-.46h1.14v.26c0,.91.14,1.48.42,1.7A4.18,4.18,0,0,0,26,58.5a5.27,5.27,0,0,0,2.44-.33c.3-.22.46-.82.46-1.78a1.82,1.82,0,0,0-.31-1.24,2.09,2.09,0,0,0-1.3-.37L26,54.72l-1.13-.06A2.44,2.44,0,0,1,22.31,52a2.83,2.83,0,0,1,.76-2.33,5.41,5.41,0,0,1,3-.58,5.41,5.41,0,0,1,3,.54A2.89,2.89,0,0,1,29.76,51.93Z"/><path class="cls-1" d="M34.15,52.12a3.42,3.42,0,0,1,2.57.69,4.94,4.94,0,0,1,.59,3,5,5,0,0,1-.59,3,3.42,3.42,0,0,1-2.57.69,3.41,3.41,0,0,1-2.56-.69,5,5,0,0,1-.59-3,5,5,0,0,1,.59-3A3.41,3.41,0,0,1,34.15,52.12Zm0,.86c-.92,0-1.5.16-1.72.46a4.94,4.94,0,0,0-.33,2.35,5,5,0,0,0,.33,2.36c.22.3.8.46,1.72.46s1.51-.16,1.73-.46a4.79,4.79,0,0,0,.34-2.36,4.77,4.77,0,0,0-.34-2.35C35.66,53.14,35.08,53,34.15,53Z"/><path class="cls-1" d="M39.93,49.17v10.2h-1V49.17Z"/><path class="cls-1" d="M47.49,52.22v7.15H46.44l.07-.94,0,0a2.36,2.36,0,0,1-2.33,1.06A2.2,2.2,0,0,1,41.66,57V52.22h1V57a2,2,0,0,0,.32,1.3,1.81,1.81,0,0,0,1.27.33A2.32,2.32,0,0,0,46,58.12a2.65,2.65,0,0,0,.46-1.8v-4.1Z"/><path class="cls-1" d="M54.2,56.79h1v.39c0,1.53-1,2.29-3,2.29a3.33,3.33,0,0,1-2.54-.72,4.9,4.9,0,0,1-.62-3,4.7,4.7,0,0,1,.63-2.88,3,3,0,0,1,2.4-.76,4,4,0,0,1,2.38.51,2.38,2.38,0,0,1,.63,1.92h-1v-.18a1.24,1.24,0,0,0-.42-1.11A3.27,3.27,0,0,0,52,53c-.79,0-1.3.18-1.52.53a5.16,5.16,0,0,0-.34,2.34,4.16,4.16,0,0,0,.39,2.27c.26.32.85.49,1.8.49a2.35,2.35,0,0,0,1.51-.32A2.25,2.25,0,0,0,54.2,56.79Z"/><path class="cls-1" d="M57.71,49.17v1.17H56.66V49.17Zm0,3v7.15H56.66V52.22Z"/><path class="cls-1" d="M62.43,52.12a3.42,3.42,0,0,1,2.57.69,5,5,0,0,1,.59,3,5,5,0,0,1-.59,3,3.42,3.42,0,0,1-2.57.69,3.43,3.43,0,0,1-2.57-.69,5,5,0,0,1-.59-3,5,5,0,0,1,.59-3A3.43,3.43,0,0,1,62.43,52.12Zm0,.86c-.93,0-1.5.16-1.73.46a4.94,4.94,0,0,0-.33,2.35,5,5,0,0,0,.33,2.36c.23.3.8.46,1.73.46s1.51-.16,1.73-.46a5,5,0,0,0,.33-2.36,4.94,4.94,0,0,0-.33-2.35C63.94,53.14,63.36,53,62.43,53Z"/><path class="cls-1" d="M67.14,52.22h1l0,1,0,0c.32-.74,1.11-1.1,2.38-1.1a3,3,0,0,1,2.07.54,2.91,2.91,0,0,1,.54,2.06v4.65h-1V54.54a1.68,1.68,0,0,0-.35-1.24A2.12,2.12,0,0,0,70.39,53c-1.47,0-2.2.7-2.2,2.09v4.3h-1Z"/><path class="cls-1" d="M79.89,57.21H81v.26A1.73,1.73,0,0,1,80.29,59a4.64,4.64,0,0,1-2.37.44,3.41,3.41,0,0,1-2.59-.72,5,5,0,0,1-.62-3,4.72,4.72,0,0,1,.62-2.87,3.1,3.1,0,0,1,2.43-.73,3.71,3.71,0,0,1,2.58.63A4.06,4.06,0,0,1,81,55.43V56H75.81a4,4,0,0,0,.37,2.15c.24.31.8.47,1.69.47a3.76,3.76,0,0,0,1.64-.23c.25-.14.38-.46.38-1Zm0-2v-.33a2.13,2.13,0,0,0-.38-1.51A2.62,2.62,0,0,0,77.86,53a2.33,2.33,0,0,0-1.65.41,2.84,2.84,0,0,0-.38,1.78Z"/><path class="cls-1" d="M88.16,54.09h-1q0-.75-.3-.93A3.93,3.93,0,0,0,85.25,53a3.65,3.65,0,0,0-1.48.19c-.21.13-.31.44-.31.92a1,1,0,0,0,1.05,1.15l.85,0,1.07.05a1.81,1.81,0,0,1,1.94,2A1.88,1.88,0,0,1,87.73,59a4.41,4.41,0,0,1-2.36.45A4.84,4.84,0,0,1,83,59.05a1.72,1.72,0,0,1-.67-1.57v-.39h1.09v.34a1.05,1.05,0,0,0,.36.94,2.81,2.81,0,0,0,1.41.24,3.81,3.81,0,0,0,1.7-.25,1.1,1.1,0,0,0,.41-1c0-.76-.34-1.13-1-1.13a7.76,7.76,0,0,1-3.14-.41,1.71,1.71,0,0,1-.75-1.67,1.79,1.79,0,0,1,.6-1.6,4.63,4.63,0,0,1,2.36-.4c1.89,0,2.84.57,2.84,1.71Z"/><path class="cls-1" d="M93.7,52.22h1l-.06.91,0,0a2.42,2.42,0,0,1,2.35-1,2.59,2.59,0,0,1,2.19.8,5.29,5.29,0,0,1,.6,3,4.67,4.67,0,0,1-.61,2.79,2.57,2.57,0,0,1-2.15.78,2.48,2.48,0,0,1-2.33-.95h0v3.91h-1Zm3.08.76c-.84,0-1.38.18-1.64.55a4.62,4.62,0,0,0-.38,2.32,4.07,4.07,0,0,0,.41,2.21,2,2,0,0,0,1.65.55,1.8,1.8,0,0,0,1.56-.54,4.21,4.21,0,0,0,.38-2.19,4.79,4.79,0,0,0-.37-2.36C98.15,53.16,97.61,53,96.78,53Z"/><path class="cls-1" d="M102.55,54.22h-1a2,2,0,0,1,.56-1.67,3.9,3.9,0,0,1,2.21-.43,4,4,0,0,1,2.41.52,2.55,2.55,0,0,1,.63,2v4.72h-1l.09-.77h0a2.74,2.74,0,0,1-2.43.88c-1.8,0-2.7-.72-2.7-2.17a2.21,2.21,0,0,1,.6-1.79A3.6,3.6,0,0,1,104,55c1.26,0,2,.24,2.26.74h0v-.87a2.59,2.59,0,0,0-.33-1.59,2.11,2.11,0,0,0-1.47-.36c-1.29,0-1.93.36-1.93,1.09Zm1.69,1.61a3.09,3.09,0,0,0-1.57.26c-.24.17-.36.53-.36,1.09a1.38,1.38,0,0,0,.36,1.14,2.51,2.51,0,0,0,1.45.29q2.22,0,2.22-1.35a1.32,1.32,0,0,0-.43-1.14A3.34,3.34,0,0,0,104.24,55.83Z"/><path class="cls-1" d="M109.16,52.22h1l-.11.82,0,0a2.19,2.19,0,0,1,2-1,1.77,1.77,0,0,1,2,2v.49h-1l0-.18a3.24,3.24,0,0,0,0-.38c0-.73-.4-1.1-1.19-1.1-1.17,0-1.75.72-1.75,2.16v4.29h-1Z"/><path class="cls-1" d="M116.39,54.22h-1a2,2,0,0,1,.56-1.67,3.9,3.9,0,0,1,2.21-.43,4,4,0,0,1,2.42.52,2.59,2.59,0,0,1,.62,2v4.72h-1l.08-.77h0a2.76,2.76,0,0,1-2.43.88c-1.81,0-2.71-.72-2.71-2.17a2.18,2.18,0,0,1,.61-1.79,3.56,3.56,0,0,1,2.19-.49c1.25,0,2,.24,2.25.74h0v-.87a2.58,2.58,0,0,0-.34-1.59,2.09,2.09,0,0,0-1.47-.36c-1.29,0-1.93.36-1.93,1.09A1.92,1.92,0,0,0,116.39,54.22Zm1.68,1.61a3.11,3.11,0,0,0-1.57.26c-.24.17-.36.53-.36,1.09a1.38,1.38,0,0,0,.36,1.14,2.53,2.53,0,0,0,1.46.29c1.47,0,2.21-.45,2.21-1.35a1.29,1.29,0,0,0-.43-1.14A3.32,3.32,0,0,0,118.07,55.83Z"/><path class="cls-1" d="M128,49.17v10.2h-1V49.17Z"/><path class="cls-1" d="M130.79,54.22h-1a2,2,0,0,1,.56-1.67,3.92,3.92,0,0,1,2.21-.43,4,4,0,0,1,2.42.52,2.55,2.55,0,0,1,.63,2v4.72h-1l.08-.77h0a2.76,2.76,0,0,1-2.43.88c-1.8,0-2.71-.72-2.71-2.17a2.22,2.22,0,0,1,.61-1.79,3.56,3.56,0,0,1,2.19-.49c1.26,0,2,.24,2.26.74h0v-.87a2.51,2.51,0,0,0-.34-1.59,2.07,2.07,0,0,0-1.47-.36c-1.29,0-1.93.36-1.93,1.09A1.92,1.92,0,0,0,130.79,54.22Zm1.68,1.61a3.07,3.07,0,0,0-1.56.26c-.25.17-.37.53-.37,1.09a1.38,1.38,0,0,0,.36,1.14,2.55,2.55,0,0,0,1.46.29c1.47,0,2.21-.45,2.21-1.35a1.29,1.29,0,0,0-.43-1.14A3.29,3.29,0,0,0,132.47,55.83Z"/><path class="cls-1" d="M142.37,49.17V53.1l0,0c.26-.67,1-1,2.21-1,1.79,0,2.69.79,2.69,2.39v4.86h-1.05V54.6A1.45,1.45,0,0,0,144.6,53a2.45,2.45,0,0,0-1.78.48,2.84,2.84,0,0,0-.45,1.89v4h-1V49.17Z"/><path class="cls-1" d="M150.1,49.17v1.17h-1V49.17Zm0,3v7.15h-1V52.22Z"/><path class="cls-1" d="M157.83,52.22v7.61a2.74,2.74,0,0,1-.67,2.14,3.86,3.86,0,0,1-2.47.58,3.51,3.51,0,0,1-2.18-.49,2.35,2.35,0,0,1-.58-1.85h1a1.55,1.55,0,0,0,.34,1.2,2.68,2.68,0,0,0,1.49.27,2.65,2.65,0,0,0,1.61-.35,1.87,1.87,0,0,0,.41-1.41V58.49h0c-.26.66-1,1-2.33,1a2.61,2.61,0,0,1-2.18-.78,4.9,4.9,0,0,1-.6-2.85,5.08,5.08,0,0,1,.61-2.93,2.71,2.71,0,0,1,2.26-.79,2.33,2.33,0,0,1,2.3,1.07h0l-.05-1Zm-3.11.76c-.83,0-1.36.18-1.6.52a4.49,4.49,0,0,0-.37,2.28,4.56,4.56,0,0,0,.37,2.3c.24.35.77.53,1.6.53a1.89,1.89,0,0,0,1.64-.58,4.75,4.75,0,0,0,.4-2.41,3.77,3.77,0,0,0-.4-2.13A2,2,0,0,0,154.72,53Z"/><path class="cls-1" d="M160.61,49.17v1.17h-1.05V49.17Zm0,3v7.15h-1.05V52.22Z"/><path class="cls-1" d="M167.34,57.21h1.07v.26a1.74,1.74,0,0,1-.68,1.56,4.64,4.64,0,0,1-2.37.44,3.41,3.41,0,0,1-2.59-.72,5,5,0,0,1-.62-3,4.72,4.72,0,0,1,.62-2.87,3.13,3.13,0,0,1,2.43-.73,3.74,3.74,0,0,1,2.59.63,4.07,4.07,0,0,1,.61,2.68V56h-5.14a4,4,0,0,0,.36,2.15c.24.31.81.47,1.69.47a3.81,3.81,0,0,0,1.65-.23c.25-.14.37-.46.37-1Zm0-2v-.33a2.08,2.08,0,0,0-.38-1.51,2.62,2.62,0,0,0-1.64-.35,2.33,2.33,0,0,0-1.65.41,2.84,2.84,0,0,0-.38,1.78Z"/><path class="cls-1" d="M170,52.22h1l0,1,0,0c.32-.74,1.11-1.1,2.38-1.1a3,3,0,0,1,2.07.54,2.91,2.91,0,0,1,.54,2.06v4.65h-1V54.54a1.64,1.64,0,0,0-.36-1.24,2.07,2.07,0,0,0-1.35-.32c-1.47,0-2.2.7-2.2,2.09v4.3H170Z"/><path class="cls-1" d="M182.73,57.21h1.07v.26a1.73,1.73,0,0,1-.67,1.56,4.69,4.69,0,0,1-2.38.44,3.42,3.42,0,0,1-2.59-.72,5.06,5.06,0,0,1-.61-3,4.65,4.65,0,0,1,.62-2.87,3.1,3.1,0,0,1,2.43-.73,3.73,3.73,0,0,1,2.58.63,4.06,4.06,0,0,1,.62,2.68V56h-5.15a3.91,3.91,0,0,0,.37,2.15c.24.31.8.47,1.69.47a3.76,3.76,0,0,0,1.64-.23c.25-.14.38-.46.38-1Zm0-2v-.33a2.13,2.13,0,0,0-.38-1.51,2.65,2.65,0,0,0-1.65-.35,2.32,2.32,0,0,0-1.64.41,2.77,2.77,0,0,0-.38,1.78Z"/><path class="cls-1" d="M195.1,52.22v7.15h-1l.07-.94,0,0a2.36,2.36,0,0,1-2.33,1.06A2.21,2.21,0,0,1,189.27,57V52.22h1V57a2,2,0,0,0,.32,1.3,1.8,1.8,0,0,0,1.26.33,2.33,2.33,0,0,0,1.7-.49,2.71,2.71,0,0,0,.46-1.8v-4.1Z"/><path class="cls-1" d="M196.94,52.22h1l-.1.82,0,0a2.2,2.2,0,0,1,2-1,1.77,1.77,0,0,1,2,2v.49h-1l0-.18c0-.18,0-.31,0-.38,0-.73-.4-1.1-1.2-1.1-1.16,0-1.75.72-1.75,2.16v4.29h-1Z"/><path class="cls-1" d="M203.09,59.37V49.17h1v4l0,0c.24-.7,1-1,2.35-1a2.55,2.55,0,0,1,2.17.81,5.34,5.34,0,0,1,.59,3,4.63,4.63,0,0,1-.63,2.81,2.8,2.8,0,0,1-2.28.78,2.34,2.34,0,0,1-2.24-1h0l0,.88ZM206.24,53a2,2,0,0,0-1.65.53,3.62,3.62,0,0,0-.42,2.1,4.87,4.87,0,0,0,.38,2.46c.25.36.83.54,1.73.54a1.73,1.73,0,0,0,1.52-.55,4.37,4.37,0,0,0,.37-2.22,4.78,4.78,0,0,0-.36-2.31A1.79,1.79,0,0,0,206.24,53Z"/><path class="cls-1" d="M212,54.22h-1a2,2,0,0,1,.57-1.67,3.88,3.88,0,0,1,2.21-.43,4,4,0,0,1,2.41.52,2.55,2.55,0,0,1,.63,2v4.72h-1.05l.08-.77h0a2.76,2.76,0,0,1-2.43.88c-1.8,0-2.7-.72-2.7-2.17a2.21,2.21,0,0,1,.6-1.79,3.6,3.6,0,0,1,2.19-.49c1.26,0,2,.24,2.26.74h0v-.87a2.59,2.59,0,0,0-.33-1.59,2.12,2.12,0,0,0-1.48-.36c-1.28,0-1.93.36-1.93,1.09C212,54.05,212,54.12,212,54.22Zm1.68,1.61a3.07,3.07,0,0,0-1.56.26c-.24.17-.36.53-.36,1.09a1.42,1.42,0,0,0,.35,1.14,2.55,2.55,0,0,0,1.46.29c1.48,0,2.21-.45,2.21-1.35a1.29,1.29,0,0,0-.43-1.14A3.29,3.29,0,0,0,213.64,55.83Z"/><path class="cls-1" d="M218.51,52.22h1l0,1,0,0c.32-.74,1.11-1.1,2.38-1.1a3,3,0,0,1,2.07.54,2.91,2.91,0,0,1,.54,2.06v4.65h-1V54.54a1.68,1.68,0,0,0-.35-1.24,2.12,2.12,0,0,0-1.36-.32c-1.46,0-2.2.7-2.2,2.09v4.3h-1.05Z"/><path class="cls-1" d="M227.35,54.22h-1a2,2,0,0,1,.56-1.67,3.92,3.92,0,0,1,2.21-.43,4,4,0,0,1,2.42.52,2.59,2.59,0,0,1,.62,2v4.72h-1l.08-.77h0a2.76,2.76,0,0,1-2.43.88c-1.81,0-2.71-.72-2.71-2.17a2.18,2.18,0,0,1,.61-1.79A3.56,3.56,0,0,1,228.8,55c1.25,0,2,.24,2.25.74h0v-.87a2.58,2.58,0,0,0-.34-1.59,2.09,2.09,0,0,0-1.47-.36c-1.29,0-1.93.36-1.93,1.09A1.92,1.92,0,0,0,227.35,54.22ZM229,55.83a3.11,3.11,0,0,0-1.57.26c-.24.17-.36.53-.36,1.09a1.38,1.38,0,0,0,.36,1.14,2.53,2.53,0,0,0,1.46.29c1.47,0,2.21-.45,2.21-1.35a1.29,1.29,0,0,0-.43-1.14A3.32,3.32,0,0,0,229,55.83Z"/></g></g></svg>